<svg width="942" height="161" viewBox="0 0 942 161" fill="none" xmlns="http://www.w3.org/2000/svg">
<path d="M375.255 88H370.193L379.41 61.8182H385.265L394.495 88H389.433L382.44 67.1875H382.235L375.255 88ZM375.421 77.7344H389.228V81.544H375.421V77.7344ZM397.88 88V68.3636H402.508V88H397.88ZM400.206 65.5767C399.473 65.5767 398.843 65.3338 398.314 64.848C397.786 64.3537 397.522 63.7614 397.522 63.071C397.522 62.3722 397.786 61.7798 398.314 61.294C398.843 60.7997 399.473 60.5526 400.206 60.5526C400.948 60.5526 401.579 60.7997 402.098 61.294C402.627 61.7798 402.891 62.3722 402.891 63.071C402.891 63.7614 402.627 64.3537 402.098 64.848C401.579 65.3338 400.948 65.5767 400.206 65.5767ZM407.266 88V68.3636H411.754V71.6364H411.958C412.316 70.5028 412.93 69.6293 413.799 69.0156C414.677 68.3935 415.678 68.0824 416.803 68.0824C417.059 68.0824 417.345 68.0952 417.66 68.1207C417.984 68.1378 418.252 68.1676 418.465 68.2102V72.4673C418.269 72.3991 417.958 72.3395 417.532 72.2884C417.114 72.2287 416.71 72.1989 416.318 72.1989C415.474 72.1989 414.715 72.3821 414.042 72.7486C413.377 73.1065 412.853 73.6051 412.47 74.2443C412.086 74.8835 411.894 75.6207 411.894 76.456V88H407.266ZM421.744 88V61.8182H431.563C433.574 61.8182 435.261 62.1932 436.625 62.9432C437.997 63.6932 439.033 64.7244 439.732 66.0369C440.439 67.3409 440.793 68.8239 440.793 70.4858C440.793 72.1648 440.439 73.6562 439.732 74.9602C439.024 76.2642 437.98 77.2912 436.599 78.0412C435.219 78.7827 433.519 79.1534 431.499 79.1534H424.992V75.2543H430.859C432.036 75.2543 432.999 75.0497 433.749 74.6406C434.499 74.2315 435.053 73.669 435.411 72.9531C435.777 72.2372 435.96 71.4148 435.96 70.4858C435.96 69.5568 435.777 68.7386 435.411 68.0312C435.053 67.3239 434.494 66.7741 433.736 66.3821C432.986 65.9815 432.019 65.7812 430.834 65.7812H426.487V88H421.744ZM452.992 88.3835C451.074 88.3835 449.412 87.9616 448.006 87.1179C446.6 86.2741 445.509 85.0937 444.733 83.5767C443.966 82.0597 443.583 80.2869 443.583 78.2585C443.583 76.2301 443.966 74.4531 444.733 72.9276C445.509 71.402 446.6 70.2173 448.006 69.3736C449.412 68.5298 451.074 68.108 452.992 68.108C454.91 68.108 456.571 68.5298 457.978 69.3736C459.384 70.2173 460.471 71.402 461.238 72.9276C462.013 74.4531 462.401 76.2301 462.401 78.2585C462.401 80.2869 462.013 82.0597 461.238 83.5767C460.471 85.0937 459.384 86.2741 457.978 87.1179C456.571 87.9616 454.91 88.3835 452.992 88.3835ZM453.017 84.6761C454.057 84.6761 454.927 84.3906 455.625 83.8196C456.324 83.2401 456.844 82.4645 457.185 81.4929C457.535 80.5213 457.709 79.4389 457.709 78.2457C457.709 77.044 457.535 75.9574 457.185 74.9858C456.844 74.0057 456.324 73.2259 455.625 72.6463C454.927 72.0668 454.057 71.777 453.017 71.777C451.952 71.777 451.066 72.0668 450.358 72.6463C449.66 73.2259 449.135 74.0057 448.786 74.9858C448.445 75.9574 448.275 77.044 448.275 78.2457C448.275 79.4389 448.445 80.5213 448.786 81.4929C449.135 82.4645 449.66 83.2401 450.358 83.8196C451.066 84.3906 451.952 84.6761 453.017 84.6761ZM473.616 88.3452C472.073 88.3452 470.693 87.9489 469.474 87.1562C468.255 86.3636 467.292 85.2131 466.585 83.7045C465.877 82.196 465.523 80.3636 465.523 78.2074C465.523 76.0256 465.881 74.1847 466.597 72.6847C467.322 71.1761 468.298 70.0384 469.525 69.2713C470.752 68.4957 472.12 68.108 473.629 68.108C474.779 68.108 475.725 68.304 476.467 68.696C477.208 69.0795 477.796 69.544 478.231 70.0895C478.666 70.6264 479.002 71.1335 479.241 71.6108H479.433V61.8182H484.073V88H479.522V84.9062H479.241C479.002 85.3835 478.657 85.8906 478.205 86.4276C477.754 86.956 477.157 87.4077 476.416 87.7827C475.674 88.1577 474.741 88.3452 473.616 88.3452ZM474.907 84.5483C475.887 84.5483 476.722 84.2841 477.413 83.7557C478.103 83.2187 478.627 82.473 478.985 81.5185C479.343 80.5639 479.522 79.4517 479.522 78.1818C479.522 76.9119 479.343 75.8082 478.985 74.8707C478.636 73.9332 478.116 73.2045 477.425 72.6847C476.744 72.1648 475.904 71.9048 474.907 71.9048C473.876 71.9048 473.015 72.1733 472.325 72.7102C471.634 73.2472 471.114 73.9886 470.765 74.9347C470.416 75.8807 470.241 76.9631 470.241 78.1818C470.241 79.4091 470.416 80.5043 470.765 81.4673C471.123 82.4219 471.647 83.1761 472.337 83.7301C473.036 84.2756 473.893 84.5483 474.907 84.5483ZM504.525 73.554L500.306 74.0142C500.186 73.5881 499.978 73.1875 499.679 72.8125C499.39 72.4375 498.998 72.1349 498.503 71.9048C498.009 71.6747 497.404 71.5597 496.688 71.5597C495.725 71.5597 494.915 71.7685 494.259 72.1861C493.611 72.6037 493.292 73.1449 493.3 73.8097C493.292 74.3807 493.5 74.8452 493.927 75.2031C494.361 75.5611 495.077 75.8551 496.074 76.0852L499.424 76.8011C501.282 77.2017 502.662 77.8366 503.566 78.706C504.478 79.5753 504.938 80.7131 504.946 82.1193C504.938 83.3551 504.576 84.446 503.86 85.392C503.152 86.3295 502.168 87.0625 500.907 87.5909C499.645 88.1193 498.196 88.3835 496.56 88.3835C494.157 88.3835 492.222 87.8807 490.756 86.875C489.29 85.8608 488.417 84.4503 488.135 82.6435L492.648 82.2088C492.853 83.0952 493.287 83.7642 493.952 84.2159C494.617 84.6676 495.482 84.8935 496.547 84.8935C497.647 84.8935 498.529 84.6676 499.194 84.2159C499.867 83.7642 500.204 83.206 500.204 82.5412C500.204 81.9787 499.986 81.5142 499.552 81.1477C499.125 80.7812 498.461 80.5 497.557 80.304L494.208 79.6009C492.324 79.2088 490.931 78.5483 490.027 77.6193C489.124 76.6818 488.677 75.4972 488.685 74.0653C488.677 72.8551 489.005 71.8068 489.669 70.9205C490.343 70.0256 491.276 69.3352 492.469 68.8494C493.671 68.3551 495.056 68.108 496.624 68.108C498.925 68.108 500.736 68.598 502.057 69.5781C503.387 70.5582 504.209 71.8835 504.525 73.554ZM517.897 88V61.8182H527.715C529.726 61.8182 531.414 62.1932 532.777 62.9432C534.15 63.6932 535.185 64.7244 535.884 66.0369C536.591 67.3409 536.945 68.8239 536.945 70.4858C536.945 72.1648 536.591 73.6562 535.884 74.9602C535.177 76.2642 534.133 77.2912 532.752 78.0412C531.371 78.7827 529.671 79.1534 527.651 79.1534H521.144V75.2543H527.012C528.188 75.2543 529.151 75.0497 529.901 74.6406C530.651 74.2315 531.205 73.669 531.563 72.9531C531.929 72.2372 532.113 71.4148 532.113 70.4858C532.113 69.5568 531.929 68.7386 531.563 68.0312C531.205 67.3239 530.647 66.7741 529.888 66.3821C529.138 65.9815 528.171 65.7812 526.986 65.7812H522.64V88H517.897ZM540.86 88V68.3636H545.347V71.6364H545.552C545.91 70.5028 546.523 69.6293 547.393 69.0156C548.271 68.3935 549.272 68.0824 550.397 68.0824C550.653 68.0824 550.938 68.0952 551.254 68.1207C551.577 68.1378 551.846 68.1676 552.059 68.2102V72.4673C551.863 72.3991 551.552 72.3395 551.126 72.2884C550.708 72.2287 550.303 72.1989 549.911 72.1989C549.068 72.1989 548.309 72.3821 547.636 72.7486C546.971 73.1065 546.447 73.6051 546.063 74.2443C545.68 74.8835 545.488 75.6207 545.488 76.456V88H540.86ZM562.89 88.3835C560.973 88.3835 559.311 87.9616 557.905 87.1179C556.498 86.2741 555.407 85.0937 554.632 83.5767C553.865 82.0597 553.481 80.2869 553.481 78.2585C553.481 76.2301 553.865 74.4531 554.632 72.9276C555.407 71.402 556.498 70.2173 557.905 69.3736C559.311 68.5298 560.973 68.108 562.89 68.108C564.808 68.108 566.47 68.5298 567.876 69.3736C569.282 70.2173 570.369 71.402 571.136 72.9276C571.912 74.4531 572.299 76.2301 572.299 78.2585C572.299 80.2869 571.912 82.0597 571.136 83.5767C570.369 85.0937 569.282 86.2741 567.876 87.1179C566.47 87.9616 564.808 88.3835 562.89 88.3835ZM562.916 84.6761C563.956 84.6761 564.825 84.3906 565.524 83.8196C566.223 83.2401 566.743 82.4645 567.084 81.4929C567.433 80.5213 567.608 79.4389 567.608 78.2457C567.608 77.044 567.433 75.9574 567.084 74.9858C566.743 74.0057 566.223 73.2259 565.524 72.6463C564.825 72.0668 563.956 71.777 562.916 71.777C561.851 71.777 560.964 72.0668 560.257 72.6463C559.558 73.2259 559.034 74.0057 558.684 74.9858C558.343 75.9574 558.173 77.044 558.173 78.2457C558.173 79.4389 558.343 80.5213 558.684 81.4929C559.034 82.4645 559.558 83.2401 560.257 83.8196C560.964 84.3906 561.851 84.6761 562.916 84.6761Z" fill="#F5F5F7"/>
<path d="M355.603 121V107.909H360.027C361.049 107.909 361.889 108.084 362.545 108.433C363.201 108.778 363.687 109.254 364.003 109.859C364.318 110.464 364.476 111.152 364.476 111.923C364.476 112.695 364.318 113.379 364.003 113.975C363.687 114.572 363.204 115.04 362.552 115.381C361.9 115.718 361.066 115.886 360.052 115.886H356.473V114.455H360.001C360.7 114.455 361.263 114.352 361.689 114.148C362.119 113.943 362.43 113.653 362.622 113.278C362.818 112.899 362.916 112.447 362.916 111.923C362.916 111.399 362.818 110.941 362.622 110.549C362.426 110.157 362.113 109.854 361.682 109.641C361.252 109.424 360.683 109.315 359.976 109.315H357.189V121H355.603ZM361.765 115.119L364.987 121H363.146L359.976 115.119H361.765ZM371.26 121.205C370.314 121.205 369.497 120.996 368.811 120.578C368.13 120.156 367.603 119.568 367.233 118.814C366.866 118.055 366.683 117.173 366.683 116.168C366.683 115.162 366.866 114.276 367.233 113.509C367.603 112.737 368.119 112.136 368.779 111.706C369.444 111.271 370.22 111.054 371.106 111.054C371.618 111.054 372.122 111.139 372.621 111.31C373.12 111.48 373.573 111.757 373.983 112.141C374.392 112.52 374.718 113.023 374.961 113.649C375.203 114.276 375.325 115.047 375.325 115.963V116.602H367.757V115.298H373.791C373.791 114.744 373.68 114.25 373.458 113.815C373.241 113.381 372.93 113.038 372.525 112.786C372.125 112.535 371.652 112.409 371.106 112.409C370.505 112.409 369.985 112.558 369.546 112.857C369.112 113.151 368.777 113.534 368.543 114.007C368.309 114.48 368.191 114.987 368.191 115.528V116.398C368.191 117.139 368.319 117.768 368.575 118.283C368.835 118.795 369.195 119.185 369.655 119.453C370.115 119.717 370.65 119.849 371.26 119.849C371.656 119.849 372.014 119.794 372.333 119.683C372.657 119.568 372.936 119.398 373.171 119.172C373.405 118.942 373.586 118.656 373.714 118.315L375.171 118.724C375.018 119.219 374.76 119.653 374.398 120.028C374.036 120.399 373.588 120.689 373.056 120.898C372.523 121.102 371.924 121.205 371.26 121.205ZM378.16 121V107.909H379.669V112.741H379.797C379.907 112.571 380.061 112.354 380.257 112.089C380.457 111.821 380.743 111.582 381.113 111.374C381.488 111.161 381.995 111.054 382.635 111.054C383.461 111.054 384.19 111.261 384.821 111.674C385.451 112.087 385.944 112.673 386.297 113.432C386.651 114.19 386.828 115.085 386.828 116.116C386.828 117.156 386.651 118.058 386.297 118.82C385.944 119.579 385.454 120.167 384.827 120.585C384.201 120.998 383.478 121.205 382.66 121.205C382.03 121.205 381.525 121.1 381.145 120.891C380.766 120.678 380.474 120.437 380.27 120.169C380.065 119.896 379.907 119.67 379.797 119.491H379.618V121H378.16ZM379.643 116.091C379.643 116.832 379.752 117.487 379.969 118.053C380.186 118.616 380.504 119.057 380.922 119.376C381.339 119.692 381.851 119.849 382.456 119.849C383.086 119.849 383.613 119.683 384.034 119.351C384.461 119.014 384.78 118.562 384.993 117.996C385.211 117.425 385.319 116.79 385.319 116.091C385.319 115.401 385.213 114.778 385 114.224C384.791 113.666 384.473 113.225 384.047 112.901C383.625 112.573 383.095 112.409 382.456 112.409C381.842 112.409 381.326 112.565 380.909 112.876C380.491 113.183 380.176 113.613 379.963 114.167C379.75 114.717 379.643 115.358 379.643 116.091ZM395.659 116.986V111.182H397.167V121H395.659V119.338H395.557C395.326 119.837 394.968 120.261 394.483 120.61C393.997 120.955 393.383 121.128 392.642 121.128C392.028 121.128 391.483 120.994 391.005 120.725C390.528 120.452 390.153 120.043 389.88 119.498C389.608 118.948 389.471 118.256 389.471 117.42V111.182H390.98V117.318C390.98 118.034 391.18 118.605 391.581 119.031C391.986 119.457 392.501 119.67 393.128 119.67C393.503 119.67 393.884 119.575 394.272 119.383C394.664 119.191 394.992 118.897 395.256 118.501C395.525 118.104 395.659 117.599 395.659 116.986ZM400.266 121V111.182H401.775V121H400.266ZM401.033 109.545C400.739 109.545 400.486 109.445 400.273 109.245C400.064 109.045 399.96 108.804 399.96 108.523C399.96 108.241 400.064 108.001 400.273 107.8C400.486 107.6 400.739 107.5 401.033 107.5C401.327 107.5 401.579 107.6 401.788 107.8C402.001 108.001 402.107 108.241 402.107 108.523C402.107 108.804 402.001 109.045 401.788 109.245C401.579 109.445 401.327 109.545 401.033 109.545ZM406.382 107.909V121H404.874V107.909H406.382ZM413.751 111.182V112.46H408.663V111.182H413.751ZM410.146 108.83H411.655V118.188C411.655 118.614 411.716 118.933 411.84 119.146C411.968 119.355 412.13 119.496 412.326 119.568C412.526 119.636 412.737 119.67 412.959 119.67C413.125 119.67 413.261 119.662 413.368 119.645C413.474 119.624 413.559 119.607 413.623 119.594L413.93 120.949C413.828 120.987 413.685 121.026 413.502 121.064C413.319 121.107 413.086 121.128 412.805 121.128C412.379 121.128 411.961 121.036 411.552 120.853C411.147 120.67 410.811 120.391 410.542 120.016C410.278 119.641 410.146 119.168 410.146 118.597V108.83ZM426.127 111.182V112.46H420.834V111.182H426.127ZM422.42 121V109.827C422.42 109.264 422.552 108.795 422.816 108.42C423.08 108.045 423.423 107.764 423.845 107.577C424.267 107.389 424.712 107.295 425.181 107.295C425.552 107.295 425.854 107.325 426.089 107.385C426.323 107.445 426.498 107.5 426.613 107.551L426.178 108.855C426.101 108.83 425.995 108.798 425.859 108.759C425.726 108.721 425.552 108.702 425.334 108.702C424.836 108.702 424.476 108.827 424.254 109.079C424.037 109.33 423.928 109.699 423.928 110.185V121H422.42ZM428.577 121V111.182H430.035V112.665H430.137C430.316 112.179 430.64 111.785 431.108 111.482C431.577 111.18 432.106 111.028 432.694 111.028C432.804 111.028 432.943 111.031 433.109 111.035C433.275 111.039 433.401 111.045 433.486 111.054V112.588C433.435 112.575 433.318 112.556 433.135 112.531C432.956 112.501 432.766 112.486 432.566 112.486C432.089 112.486 431.662 112.586 431.287 112.786C430.917 112.982 430.623 113.255 430.405 113.604C430.192 113.95 430.086 114.344 430.086 114.787V121H428.577ZM439.3 121.205C438.414 121.205 437.636 120.994 436.967 120.572C436.302 120.15 435.783 119.56 435.408 118.801C435.037 118.043 434.851 117.156 434.851 116.142C434.851 115.119 435.037 114.227 435.408 113.464C435.783 112.701 436.302 112.109 436.967 111.687C437.636 111.265 438.414 111.054 439.3 111.054C440.187 111.054 440.962 111.265 441.627 111.687C442.296 112.109 442.816 112.701 443.187 113.464C443.562 114.227 443.749 115.119 443.749 116.142C443.749 117.156 443.562 118.043 443.187 118.801C442.816 119.56 442.296 120.15 441.627 120.572C440.962 120.994 440.187 121.205 439.3 121.205ZM439.3 119.849C439.974 119.849 440.528 119.677 440.962 119.332C441.397 118.987 441.719 118.533 441.927 117.97C442.136 117.408 442.241 116.798 442.241 116.142C442.241 115.486 442.136 114.874 441.927 114.308C441.719 113.741 441.397 113.283 440.962 112.933C440.528 112.584 439.974 112.409 439.3 112.409C438.627 112.409 438.073 112.584 437.638 112.933C437.204 113.283 436.882 113.741 436.673 114.308C436.464 114.874 436.36 115.486 436.36 116.142C436.36 116.798 436.464 117.408 436.673 117.97C436.882 118.533 437.204 118.987 437.638 119.332C438.073 119.677 438.627 119.849 439.3 119.849ZM446.388 121V111.182H447.845V112.716H447.973C448.178 112.192 448.508 111.785 448.964 111.495C449.42 111.201 449.967 111.054 450.607 111.054C451.254 111.054 451.793 111.201 452.224 111.495C452.658 111.785 452.997 112.192 453.24 112.716H453.342C453.594 112.209 453.971 111.806 454.474 111.508C454.977 111.205 455.58 111.054 456.283 111.054C457.161 111.054 457.879 111.329 458.437 111.879C458.995 112.424 459.274 113.274 459.274 114.429V121H457.766V114.429C457.766 113.705 457.568 113.187 457.171 112.876C456.775 112.565 456.308 112.409 455.771 112.409C455.081 112.409 454.546 112.618 454.167 113.036C453.788 113.449 453.598 113.973 453.598 114.608V121H452.064V114.276C452.064 113.717 451.883 113.268 451.521 112.927C451.158 112.582 450.692 112.409 450.121 112.409C449.729 112.409 449.362 112.513 449.021 112.722C448.685 112.931 448.412 113.221 448.203 113.592C447.999 113.958 447.896 114.382 447.896 114.864V121H446.388ZM472.037 111.182V112.46H466.949V111.182H472.037ZM468.432 108.83H469.94V118.188C469.94 118.614 470.002 118.933 470.126 119.146C470.253 119.355 470.415 119.496 470.611 119.568C470.812 119.636 471.023 119.67 471.244 119.67C471.41 119.67 471.547 119.662 471.653 119.645C471.76 119.624 471.845 119.607 471.909 119.594L472.216 120.949C472.113 120.987 471.971 121.026 471.787 121.064C471.604 121.107 471.372 121.128 471.091 121.128C470.665 121.128 470.247 121.036 469.838 120.853C469.433 120.67 469.096 120.391 468.828 120.016C468.564 119.641 468.432 119.168 468.432 118.597V108.83ZM476.361 115.094V121H474.853V107.909H476.361V112.716H476.489C476.719 112.209 477.065 111.806 477.525 111.508C477.989 111.205 478.607 111.054 479.378 111.054C480.047 111.054 480.633 111.188 481.136 111.457C481.639 111.721 482.029 112.128 482.306 112.678C482.587 113.223 482.728 113.918 482.728 114.761V121H481.219V114.864C481.219 114.084 481.017 113.481 480.612 113.055C480.212 112.624 479.655 112.409 478.944 112.409C478.449 112.409 478.006 112.513 477.614 112.722C477.226 112.931 476.92 113.236 476.694 113.636C476.472 114.037 476.361 114.523 476.361 115.094ZM489.94 121.205C488.994 121.205 488.178 120.996 487.492 120.578C486.81 120.156 486.284 119.568 485.913 118.814C485.547 118.055 485.363 117.173 485.363 116.168C485.363 115.162 485.547 114.276 485.913 113.509C486.284 112.737 486.799 112.136 487.46 111.706C488.125 111.271 488.9 111.054 489.787 111.054C490.298 111.054 490.803 111.139 491.302 111.31C491.8 111.48 492.254 111.757 492.663 112.141C493.072 112.52 493.398 113.023 493.641 113.649C493.884 114.276 494.005 115.047 494.005 115.963V116.602H486.437V115.298H492.471C492.471 114.744 492.361 114.25 492.139 113.815C491.922 113.381 491.611 113.038 491.206 112.786C490.805 112.535 490.332 112.409 489.787 112.409C489.186 112.409 488.666 112.558 488.227 112.857C487.792 113.151 487.458 113.534 487.224 114.007C486.989 114.48 486.872 114.987 486.872 115.528V116.398C486.872 117.139 487 117.768 487.255 118.283C487.515 118.795 487.875 119.185 488.336 119.453C488.796 119.717 489.331 119.849 489.94 119.849C490.336 119.849 490.694 119.794 491.014 119.683C491.338 119.568 491.617 119.398 491.851 119.172C492.086 118.942 492.267 118.656 492.395 118.315L493.852 118.724C493.699 119.219 493.441 119.653 493.079 120.028C492.716 120.399 492.269 120.689 491.736 120.898C491.204 121.102 490.605 121.205 489.94 121.205ZM508.989 113.381L507.634 113.764C507.549 113.538 507.423 113.319 507.257 113.106C507.095 112.888 506.873 112.71 506.592 112.569C506.311 112.428 505.951 112.358 505.512 112.358C504.911 112.358 504.41 112.496 504.01 112.773C503.614 113.046 503.415 113.393 503.415 113.815C503.415 114.19 503.552 114.487 503.824 114.704C504.097 114.921 504.523 115.102 505.103 115.247L506.56 115.605C507.438 115.818 508.092 116.144 508.523 116.583C508.953 117.018 509.168 117.578 509.168 118.264C509.168 118.827 509.006 119.33 508.682 119.773C508.363 120.216 507.915 120.565 507.34 120.821C506.765 121.077 506.096 121.205 505.333 121.205C504.332 121.205 503.503 120.987 502.847 120.553C502.19 120.118 501.775 119.483 501.6 118.648L503.032 118.29C503.168 118.818 503.426 119.214 503.805 119.479C504.189 119.743 504.69 119.875 505.307 119.875C506.011 119.875 506.569 119.726 506.982 119.428C507.4 119.125 507.609 118.763 507.609 118.341C507.609 118 507.489 117.714 507.251 117.484C507.012 117.25 506.646 117.075 506.151 116.96L504.515 116.577C503.616 116.364 502.955 116.033 502.533 115.586C502.116 115.134 501.907 114.57 501.907 113.892C501.907 113.338 502.062 112.848 502.373 112.422C502.689 111.996 503.117 111.661 503.658 111.418C504.204 111.175 504.822 111.054 505.512 111.054C506.484 111.054 507.246 111.267 507.8 111.693C508.359 112.119 508.755 112.682 508.989 113.381ZM515.764 121.205C514.877 121.205 514.1 120.994 513.431 120.572C512.766 120.15 512.246 119.56 511.871 118.801C511.5 118.043 511.315 117.156 511.315 116.142C511.315 115.119 511.5 114.227 511.871 113.464C512.246 112.701 512.766 112.109 513.431 111.687C514.1 111.265 514.877 111.054 515.764 111.054C516.65 111.054 517.426 111.265 518.09 111.687C518.759 112.109 519.279 112.701 519.65 113.464C520.025 114.227 520.213 115.119 520.213 116.142C520.213 117.156 520.025 118.043 519.65 118.801C519.279 119.56 518.759 120.15 518.09 120.572C517.426 120.994 516.65 121.205 515.764 121.205ZM515.764 119.849C516.437 119.849 516.991 119.677 517.426 119.332C517.86 118.987 518.182 118.533 518.391 117.97C518.6 117.408 518.704 116.798 518.704 116.142C518.704 115.486 518.6 114.874 518.391 114.308C518.182 113.741 517.86 113.283 517.426 112.933C516.991 112.584 516.437 112.409 515.764 112.409C515.09 112.409 514.536 112.584 514.102 112.933C513.667 113.283 513.345 113.741 513.137 114.308C512.928 114.874 512.823 115.486 512.823 116.142C512.823 116.798 512.928 117.408 513.137 117.97C513.345 118.533 513.667 118.987 514.102 119.332C514.536 119.677 515.09 119.849 515.764 119.849ZM529.039 116.986V111.182H530.547V121H529.039V119.338H528.936C528.706 119.837 528.348 120.261 527.863 120.61C527.377 120.955 526.763 121.128 526.022 121.128C525.408 121.128 524.863 120.994 524.385 120.725C523.908 120.452 523.533 120.043 523.26 119.498C522.988 118.948 522.851 118.256 522.851 117.42V111.182H524.36V117.318C524.36 118.034 524.56 118.605 524.961 119.031C525.365 119.457 525.881 119.67 526.507 119.67C526.882 119.67 527.264 119.575 527.652 119.383C528.044 119.191 528.372 118.897 528.636 118.501C528.905 118.104 529.039 117.599 529.039 116.986ZM535.155 115.094V121H533.646V111.182H535.104V112.716H535.231C535.462 112.217 535.811 111.817 536.28 111.514C536.749 111.207 537.354 111.054 538.095 111.054C538.76 111.054 539.342 111.19 539.84 111.463C540.339 111.732 540.726 112.141 541.003 112.69C541.28 113.236 541.419 113.926 541.419 114.761V121H539.91V114.864C539.91 114.092 539.71 113.491 539.31 113.061C538.909 112.626 538.359 112.409 537.66 112.409C537.179 112.409 536.749 112.513 536.369 112.722C535.994 112.931 535.698 113.236 535.481 113.636C535.263 114.037 535.155 114.523 535.155 115.094ZM548.219 121.205C547.401 121.205 546.678 120.998 546.052 120.585C545.426 120.167 544.936 119.579 544.582 118.82C544.228 118.058 544.051 117.156 544.051 116.116C544.051 115.085 544.228 114.19 544.582 113.432C544.936 112.673 545.428 112.087 546.058 111.674C546.689 111.261 547.418 111.054 548.244 111.054C548.884 111.054 549.389 111.161 549.759 111.374C550.134 111.582 550.42 111.821 550.616 112.089C550.816 112.354 550.972 112.571 551.083 112.741H551.21V107.909H552.719V121H551.262V119.491H551.083C550.972 119.67 550.814 119.896 550.61 120.169C550.405 120.437 550.113 120.678 549.734 120.891C549.355 121.1 548.85 121.205 548.219 121.205ZM548.423 119.849C549.029 119.849 549.54 119.692 549.958 119.376C550.375 119.057 550.693 118.616 550.91 118.053C551.127 117.487 551.236 116.832 551.236 116.091C551.236 115.358 551.129 114.717 550.916 114.167C550.703 113.613 550.388 113.183 549.97 112.876C549.553 112.565 549.037 112.409 548.423 112.409C547.784 112.409 547.252 112.573 546.825 112.901C546.404 113.225 546.086 113.666 545.873 114.224C545.664 114.778 545.56 115.401 545.56 116.091C545.56 116.79 545.666 117.425 545.879 117.996C546.097 118.562 546.416 119.014 546.838 119.351C547.264 119.683 547.793 119.849 548.423 119.849ZM567.613 116.986V111.182H569.122V121H567.613V119.338H567.511C567.281 119.837 566.923 120.261 566.437 120.61C565.951 120.955 565.338 121.128 564.596 121.128C563.983 121.128 563.437 120.994 562.96 120.725C562.483 120.452 562.108 120.043 561.835 119.498C561.562 118.948 561.426 118.256 561.426 117.42V111.182H562.934V117.318C562.934 118.034 563.135 118.605 563.535 119.031C563.94 119.457 564.456 119.67 565.082 119.67C565.457 119.67 565.838 119.575 566.226 119.383C566.618 119.191 566.946 118.897 567.211 118.501C567.479 118.104 567.613 117.599 567.613 116.986ZM572.221 124.682V111.182H573.678V112.741H573.857C573.968 112.571 574.121 112.354 574.317 112.089C574.518 111.821 574.803 111.582 575.174 111.374C575.549 111.161 576.056 111.054 576.695 111.054C577.522 111.054 578.251 111.261 578.881 111.674C579.512 112.087 580.004 112.673 580.358 113.432C580.711 114.19 580.888 115.085 580.888 116.116C580.888 117.156 580.711 118.058 580.358 118.82C580.004 119.579 579.514 120.167 578.888 120.585C578.261 120.998 577.539 121.205 576.721 121.205C576.09 121.205 575.585 121.1 575.206 120.891C574.827 120.678 574.535 120.437 574.33 120.169C574.126 119.896 573.968 119.67 573.857 119.491H573.729V124.682H572.221ZM573.704 116.091C573.704 116.832 573.812 117.487 574.03 118.053C574.247 118.616 574.564 119.057 574.982 119.376C575.4 119.692 575.911 119.849 576.516 119.849C577.147 119.849 577.673 119.683 578.095 119.351C578.521 119.014 578.841 118.562 579.054 117.996C579.271 117.425 579.38 116.79 579.38 116.091C579.38 115.401 579.273 114.778 579.06 114.224C578.851 113.666 578.534 113.225 578.108 112.901C577.686 112.573 577.155 112.409 576.516 112.409C575.903 112.409 575.387 112.565 574.969 112.876C574.552 113.183 574.236 113.613 574.023 114.167C573.81 114.717 573.704 115.358 573.704 116.091ZM584.625 121.102C584.31 121.102 584.039 120.989 583.813 120.763C583.587 120.538 583.474 120.267 583.474 119.952C583.474 119.636 583.587 119.366 583.813 119.14C584.039 118.914 584.31 118.801 584.625 118.801C584.94 118.801 585.211 118.914 585.437 119.14C585.663 119.366 585.775 119.636 585.775 119.952C585.775 120.161 585.722 120.352 585.616 120.527C585.513 120.702 585.375 120.842 585.2 120.949C585.03 121.051 584.838 121.102 584.625 121.102Z" fill="#F5F5F7"/>
<path d="M425.315 153.89V142.254H426.724V152.64H432.133V153.89H425.315ZM437.418 154.072C436.578 154.072 435.852 153.886 435.242 153.515C434.636 153.14 434.168 152.617 433.839 151.947C433.513 151.273 433.35 150.489 433.35 149.595C433.35 148.701 433.513 147.913 433.839 147.231C434.168 146.545 434.627 146.011 435.214 145.629C435.805 145.242 436.494 145.049 437.282 145.049C437.737 145.049 438.186 145.125 438.629 145.276C439.072 145.428 439.475 145.674 439.839 146.015C440.203 146.352 440.492 146.799 440.708 147.356C440.924 147.913 441.032 148.598 441.032 149.413V149.981H434.305V148.822H439.668C439.668 148.33 439.57 147.89 439.373 147.504C439.18 147.117 438.903 146.812 438.543 146.589C438.187 146.366 437.767 146.254 437.282 146.254C436.748 146.254 436.286 146.386 435.896 146.652C435.509 146.913 435.212 147.254 435.004 147.674C434.795 148.095 434.691 148.545 434.691 149.027V149.799C434.691 150.458 434.805 151.017 435.032 151.475C435.263 151.93 435.583 152.277 435.992 152.515C436.401 152.75 436.877 152.867 437.418 152.867C437.771 152.867 438.089 152.818 438.373 152.72C438.661 152.617 438.909 152.466 439.117 152.265C439.326 152.061 439.487 151.807 439.6 151.504L440.896 151.867C440.759 152.307 440.53 152.693 440.208 153.027C439.886 153.356 439.489 153.614 439.015 153.799C438.542 153.981 438.009 154.072 437.418 154.072ZM445.266 154.095C444.713 154.095 444.211 153.991 443.76 153.782C443.31 153.57 442.952 153.265 442.687 152.867C442.421 152.466 442.289 151.981 442.289 151.413C442.289 150.913 442.387 150.508 442.584 150.197C442.781 149.883 443.044 149.636 443.374 149.458C443.704 149.28 444.067 149.148 444.465 149.061C444.866 148.97 445.27 148.898 445.675 148.845C446.205 148.777 446.635 148.725 446.965 148.691C447.298 148.653 447.541 148.591 447.692 148.504C447.848 148.417 447.925 148.265 447.925 148.049V148.004C447.925 147.443 447.772 147.008 447.465 146.697C447.162 146.386 446.702 146.231 446.084 146.231C445.444 146.231 444.942 146.371 444.579 146.652C444.215 146.932 443.959 147.231 443.812 147.549L442.539 147.095C442.766 146.564 443.069 146.152 443.448 145.856C443.83 145.557 444.247 145.348 444.698 145.231C445.152 145.11 445.599 145.049 446.039 145.049C446.319 145.049 446.641 145.083 447.005 145.151C447.372 145.216 447.726 145.35 448.067 145.555C448.412 145.759 448.698 146.068 448.925 146.481C449.152 146.894 449.266 147.447 449.266 148.14V153.89H447.925V152.708H447.857C447.766 152.898 447.615 153.1 447.402 153.316C447.19 153.532 446.908 153.716 446.556 153.867C446.204 154.019 445.774 154.095 445.266 154.095ZM445.471 152.89C446.001 152.89 446.448 152.786 446.812 152.578C447.179 152.369 447.455 152.1 447.641 151.771C447.83 151.441 447.925 151.095 447.925 150.731V149.504C447.868 149.572 447.743 149.634 447.55 149.691C447.361 149.744 447.141 149.792 446.891 149.833C446.645 149.871 446.404 149.905 446.169 149.936C445.938 149.962 445.751 149.985 445.607 150.004C445.258 150.049 444.933 150.123 444.63 150.225C444.33 150.324 444.088 150.473 443.902 150.674C443.721 150.871 443.63 151.14 443.63 151.481C443.63 151.947 443.802 152.299 444.147 152.538C444.495 152.773 444.937 152.89 445.471 152.89ZM451.34 153.89V145.163H452.635V146.481H452.726C452.885 146.049 453.173 145.699 453.59 145.43C454.006 145.161 454.476 145.026 454.999 145.026C455.097 145.026 455.22 145.028 455.368 145.032C455.516 145.036 455.627 145.042 455.703 145.049V146.413C455.658 146.402 455.554 146.384 455.391 146.362C455.232 146.335 455.063 146.322 454.885 146.322C454.461 146.322 454.082 146.411 453.749 146.589C453.419 146.763 453.158 147.006 452.965 147.316C452.775 147.623 452.68 147.973 452.68 148.367V153.89H451.34ZM458.26 148.64V153.89H456.919V145.163H458.214V146.527H458.328C458.532 146.083 458.843 145.727 459.26 145.458C459.676 145.186 460.214 145.049 460.873 145.049C461.464 145.049 461.981 145.17 462.424 145.413C462.867 145.652 463.212 146.015 463.458 146.504C463.705 146.989 463.828 147.602 463.828 148.345V153.89H462.487V148.436C462.487 147.75 462.309 147.216 461.953 146.833C461.597 146.447 461.108 146.254 460.487 146.254C460.059 146.254 459.676 146.347 459.339 146.532C459.006 146.718 458.742 146.989 458.549 147.345C458.356 147.701 458.26 148.133 458.26 148.64ZM470.03 153.89V145.163H471.325V146.527H471.439C471.621 146.061 471.914 145.699 472.32 145.441C472.725 145.18 473.212 145.049 473.78 145.049C474.356 145.049 474.835 145.18 475.218 145.441C475.604 145.699 475.905 146.061 476.121 146.527H476.212C476.435 146.076 476.771 145.718 477.218 145.453C477.664 145.184 478.2 145.049 478.825 145.049C479.606 145.049 480.244 145.294 480.74 145.782C481.236 146.267 481.485 147.023 481.485 148.049V153.89H480.144V148.049C480.144 147.405 479.968 146.945 479.615 146.669C479.263 146.392 478.848 146.254 478.371 146.254C477.757 146.254 477.282 146.439 476.945 146.811C476.608 147.178 476.439 147.644 476.439 148.208V153.89H475.075V147.913C475.075 147.417 474.914 147.017 474.593 146.714C474.271 146.407 473.856 146.254 473.348 146.254C473 146.254 472.674 146.347 472.371 146.532C472.072 146.718 471.829 146.975 471.644 147.305C471.462 147.631 471.371 148.008 471.371 148.436V153.89H470.03ZM487.108 154.072C486.32 154.072 485.629 153.884 485.034 153.509C484.443 153.134 483.981 152.61 483.647 151.936C483.318 151.261 483.153 150.473 483.153 149.572C483.153 148.663 483.318 147.869 483.647 147.191C483.981 146.513 484.443 145.987 485.034 145.612C485.629 145.237 486.32 145.049 487.108 145.049C487.896 145.049 488.585 145.237 489.176 145.612C489.771 145.987 490.233 146.513 490.562 147.191C490.896 147.869 491.062 148.663 491.062 149.572C491.062 150.473 490.896 151.261 490.562 151.936C490.233 152.61 489.771 153.134 489.176 153.509C488.585 153.884 487.896 154.072 487.108 154.072ZM487.108 152.867C487.706 152.867 488.199 152.714 488.585 152.407C488.971 152.1 489.257 151.697 489.443 151.197C489.629 150.697 489.721 150.155 489.721 149.572C489.721 148.989 489.629 148.445 489.443 147.941C489.257 147.437 488.971 147.03 488.585 146.72C488.199 146.409 487.706 146.254 487.108 146.254C486.509 146.254 486.017 146.409 485.63 146.72C485.244 147.03 484.958 147.437 484.772 147.941C484.587 148.445 484.494 148.989 484.494 149.572C484.494 150.155 484.587 150.697 484.772 151.197C484.958 151.697 485.244 152.1 485.63 152.407C486.017 152.714 486.509 152.867 487.108 152.867ZM492.735 153.89V145.163H494.031V146.481H494.122C494.281 146.049 494.568 145.699 494.985 145.43C495.402 145.161 495.872 145.026 496.394 145.026C496.493 145.026 496.616 145.028 496.764 145.032C496.911 145.036 497.023 145.042 497.099 145.049V146.413C497.053 146.402 496.949 146.384 496.786 146.362C496.627 146.335 496.459 146.322 496.281 146.322C495.856 146.322 495.478 146.411 495.144 146.589C494.815 146.763 494.553 147.006 494.36 147.316C494.171 147.623 494.076 147.973 494.076 148.367V153.89H492.735ZM501.708 154.072C500.867 154.072 500.141 153.886 499.532 153.515C498.926 153.14 498.458 152.617 498.128 151.947C497.802 151.273 497.64 150.489 497.64 149.595C497.64 148.701 497.802 147.913 498.128 147.231C498.458 146.545 498.916 146.011 499.503 145.629C500.094 145.242 500.783 145.049 501.571 145.049C502.026 145.049 502.475 145.125 502.918 145.276C503.361 145.428 503.765 145.674 504.128 146.015C504.492 146.352 504.782 146.799 504.998 147.356C505.213 147.913 505.321 148.598 505.321 149.413V149.981H498.594V148.822H503.958C503.958 148.33 503.859 147.89 503.662 147.504C503.469 147.117 503.193 146.812 502.833 146.589C502.477 146.366 502.056 146.254 501.571 146.254C501.037 146.254 500.575 146.386 500.185 146.652C499.799 146.913 499.501 147.254 499.293 147.674C499.085 148.095 498.98 148.545 498.98 149.027V149.799C498.98 150.458 499.094 151.017 499.321 151.475C499.552 151.93 499.873 152.277 500.282 152.515C500.691 152.75 501.166 152.867 501.708 152.867C502.06 152.867 502.378 152.818 502.662 152.72C502.95 152.617 503.198 152.466 503.407 152.265C503.615 152.061 503.776 151.807 503.89 151.504L505.185 151.867C505.049 152.307 504.819 152.693 504.498 153.027C504.176 153.356 503.778 153.614 503.304 153.799C502.831 153.981 502.299 154.072 501.708 154.072Z" fill="#2997FF"/>
<g clip-path="url(#clip0_2_85)">
<path d="M513.946 154.766C513.776 154.766 513.631 154.707 513.511 154.589C513.39 154.471 513.33 154.328 513.33 154.158C513.33 153.988 513.393 153.841 513.519 153.715L516.835 150.406L513.519 147.098C513.393 146.972 513.33 146.824 513.33 146.655C513.33 146.485 513.39 146.342 513.511 146.224C513.631 146.106 513.776 146.047 513.946 146.047C514.104 146.047 514.247 146.105 514.373 146.22L518.116 149.947C518.247 150.067 518.313 150.22 518.313 150.406C518.313 150.582 518.247 150.735 518.116 150.866L514.373 154.593C514.258 154.708 514.115 154.766 513.946 154.766Z" fill="#2997FF"/>
</g>
<defs>
<clipPath id="clip0_2_85">
<rect width="7.13" height="21" fill="white" transform="matrix(1 0 0 -1 513.33 160.89)"/>
</clipPath>
</defs>
</svg>
