<svg width="1920" height="177" viewBox="0 0 1920 177" fill="none" xmlns="http://www.w3.org/2000/svg">
<path d="M843.941 84V56.1818H850.497V84H843.941ZM847.237 52.2337C846.199 52.2337 845.305 51.8896 844.557 51.2013C843.808 50.5011 843.434 49.6619 843.434 48.6839C843.434 47.6939 843.808 46.8548 844.557 46.1665C845.305 45.4663 846.199 45.1161 847.237 45.1161C848.287 45.1161 849.181 45.4663 849.917 46.1665C850.666 46.8548 851.04 47.6939 851.04 48.6839C851.04 49.6619 850.666 50.5011 849.917 51.2013C849.181 51.8896 848.287 52.2337 847.237 52.2337ZM857.249 84V46.9091H871.158C874.007 46.9091 876.398 47.4403 878.329 48.5028C880.273 49.5653 881.74 51.0263 882.73 52.8857C883.733 54.733 884.234 56.8338 884.234 59.1882C884.234 61.5668 883.733 63.6797 882.73 65.527C881.728 67.3743 880.249 68.8292 878.293 69.8917C876.337 70.9421 873.929 71.4673 871.067 71.4673H861.849V65.9435H870.162C871.828 65.9435 873.192 65.6538 874.255 65.0742C875.317 64.4947 876.102 63.6978 876.609 62.6836C877.128 61.6694 877.388 60.5043 877.388 59.1882C877.388 57.8722 877.128 56.7131 876.609 55.7109C876.102 54.7088 875.311 53.93 874.236 53.3746C873.174 52.8072 871.804 52.5234 870.125 52.5234H863.968V84H857.249ZM896.056 67.7003V84H889.5V46.9091H895.911V60.9087H896.237C896.889 59.3391 897.897 58.1016 899.262 57.196C900.638 56.2784 902.389 55.8196 904.514 55.8196C906.446 55.8196 908.13 56.2241 909.567 57.033C911.004 57.842 912.114 59.0252 912.899 60.5827C913.696 62.1403 914.094 64.0419 914.094 66.2876V84H907.538V67.3018C907.538 65.4304 907.055 63.9755 906.09 62.9371C905.136 61.8867 903.795 61.3615 902.069 61.3615C900.91 61.3615 899.871 61.6151 898.954 62.1222C898.048 62.6172 897.336 63.3356 896.817 64.2773C896.31 65.2191 896.056 66.3601 896.056 67.7003ZM932.632 84.5433C929.915 84.5433 927.561 83.9457 925.568 82.7504C923.576 81.555 922.031 79.8828 920.932 77.7337C919.845 75.5845 919.302 73.0732 919.302 70.1996C919.302 67.326 919.845 64.8086 920.932 62.6474C922.031 60.4861 923.576 58.8079 925.568 57.6126C927.561 56.4173 929.915 55.8196 932.632 55.8196C935.348 55.8196 937.703 56.4173 939.695 57.6126C941.687 58.8079 943.226 60.4861 944.313 62.6474C945.412 64.8086 945.961 67.326 945.961 70.1996C945.961 73.0732 945.412 75.5845 944.313 77.7337C943.226 79.8828 941.687 81.555 939.695 82.7504C937.703 83.9457 935.348 84.5433 932.632 84.5433ZM932.668 79.2912C934.141 79.2912 935.372 78.8867 936.362 78.0778C937.352 77.2567 938.089 76.158 938.572 74.7816C939.067 73.4052 939.314 71.8718 939.314 70.1815C939.314 68.479 939.067 66.9396 938.572 65.5632C938.089 64.1747 937.352 63.07 936.362 62.2489C935.372 61.4279 934.141 61.0174 932.668 61.0174C931.159 61.0174 929.903 61.4279 928.901 62.2489C927.911 63.07 927.168 64.1747 926.673 65.5632C926.19 66.9396 925.949 68.479 925.949 70.1815C925.949 71.8718 926.19 73.4052 926.673 74.7816C927.168 76.158 927.911 77.2567 928.901 78.0778C929.903 78.8867 931.159 79.2912 932.668 79.2912ZM957.802 67.7003V84H951.246V56.1818H957.512V60.9087H957.838C958.478 59.3512 959.498 58.1136 960.899 57.196C962.311 56.2784 964.056 55.8196 966.133 55.8196C968.053 55.8196 969.725 56.2301 971.149 57.0511C972.586 57.8722 973.697 59.0614 974.482 60.619C975.279 62.1765 975.671 64.0661 975.659 66.2876V84H969.103V67.3018C969.103 65.4425 968.62 63.9876 967.654 62.9371C966.7 61.8867 965.378 61.3615 963.688 61.3615C962.541 61.3615 961.521 61.6151 960.627 62.1222C959.746 62.6172 959.051 63.3356 958.544 64.2773C958.049 65.2191 957.802 66.3601 957.802 67.7003ZM994.359 84.5433C991.57 84.5433 989.161 83.9638 987.133 82.8047C985.117 81.6335 983.565 79.9794 982.478 77.8423C981.392 75.6932 980.848 73.1637 980.848 70.2539C980.848 67.3924 981.392 64.881 982.478 62.7198C983.577 60.5465 985.111 58.8562 987.079 57.6488C989.047 56.4293 991.359 55.8196 994.015 55.8196C995.73 55.8196 997.347 56.0973 998.869 56.6527C1000.4 57.196 1001.75 58.0412 1002.93 59.1882C1004.11 60.3352 1005.04 61.7962 1005.71 63.571C1006.39 65.3338 1006.73 67.4347 1006.73 69.8736V71.8839H983.927V67.4648H1000.44C1000.43 66.2092 1000.16 65.0923 999.629 64.1143C999.098 63.1243 998.356 62.3455 997.402 61.7781C996.46 61.2106 995.361 60.9268 994.106 60.9268C992.765 60.9268 991.588 61.2528 990.574 61.9048C989.56 62.5447 988.769 63.3899 988.201 64.4403C987.646 65.4787 987.362 66.6197 987.35 67.8633V71.7209C987.35 73.3388 987.646 74.7273 988.238 75.8864C988.829 77.0334 989.656 77.9148 990.719 78.5305C991.781 79.1342 993.025 79.4361 994.45 79.4361C995.404 79.4361 996.267 79.3033 997.04 79.0376C997.812 78.7599 998.482 78.3555 999.05 77.8242C999.617 77.293 1000.05 76.6349 1000.34 75.8501L1006.46 76.5384C1006.07 78.1562 1005.33 79.5689 1004.25 80.7763C1003.17 81.9716 1001.8 82.9013 1000.12 83.5653C998.44 84.2173 996.52 84.5433 994.359 84.5433ZM1039.38 46.9091V84H1032.66V53.4471H1032.44L1023.77 58.989V52.8313L1032.99 46.9091H1039.38ZM1047.85 77.1179V71.7752L1063.59 46.9091H1068.04V54.5156H1065.32L1054.73 71.3043V71.5941H1076.7V77.1179H1047.85ZM1065.54 84V75.4879L1065.61 73.0973V46.9091H1071.95V84H1065.54Z" fill="#1D1D1F"/>
<path d="M875.861 124V106.545H881.963C883.179 106.545 884.182 106.756 884.972 107.176C885.761 107.591 886.349 108.151 886.736 108.855C887.122 109.554 887.315 110.33 887.315 111.182C887.315 111.932 887.182 112.551 886.915 113.04C886.653 113.528 886.307 113.915 885.875 114.199C885.449 114.483 884.986 114.693 884.486 114.83V115C885.02 115.034 885.557 115.222 886.097 115.562C886.636 115.903 887.088 116.392 887.452 117.028C887.815 117.665 887.997 118.443 887.997 119.364C887.997 120.239 887.798 121.026 887.4 121.724C887.003 122.423 886.375 122.977 885.517 123.386C884.659 123.795 883.543 124 882.168 124H875.861ZM877.974 122.125H882.168C883.548 122.125 884.528 121.858 885.108 121.324C885.693 120.784 885.986 120.131 885.986 119.364C885.986 118.773 885.835 118.227 885.534 117.727C885.233 117.222 884.804 116.818 884.247 116.517C883.69 116.21 883.031 116.057 882.27 116.057H877.974V122.125ZM877.974 114.216H881.895C882.531 114.216 883.105 114.091 883.616 113.841C884.133 113.591 884.543 113.239 884.844 112.784C885.15 112.33 885.304 111.795 885.304 111.182C885.304 110.415 885.037 109.764 884.503 109.23C883.969 108.69 883.122 108.42 881.963 108.42H877.974V114.216ZM891.309 124V110.909H893.321V124H891.309ZM892.332 108.727C891.94 108.727 891.602 108.594 891.318 108.327C891.039 108.06 890.9 107.739 890.9 107.364C890.9 106.989 891.039 106.668 891.318 106.401C891.602 106.134 891.94 106 892.332 106C892.724 106 893.059 106.134 893.338 106.401C893.622 106.668 893.764 106.989 893.764 107.364C893.764 107.739 893.622 108.06 893.338 108.327C893.059 108.594 892.724 108.727 892.332 108.727ZM902.401 129.182C901.429 129.182 900.594 129.057 899.895 128.807C899.196 128.562 898.614 128.239 898.148 127.835C897.688 127.438 897.321 127.011 897.048 126.557L898.651 125.432C898.833 125.67 899.063 125.943 899.341 126.25C899.62 126.562 900 126.832 900.483 127.06C900.972 127.293 901.611 127.409 902.401 127.409C903.458 127.409 904.33 127.153 905.017 126.642C905.705 126.131 906.048 125.33 906.048 124.239V121.58H905.878C905.73 121.818 905.52 122.114 905.247 122.466C904.98 122.812 904.594 123.122 904.088 123.395C903.588 123.662 902.912 123.795 902.06 123.795C901.003 123.795 900.054 123.545 899.213 123.045C898.378 122.545 897.716 121.818 897.227 120.864C896.745 119.909 896.503 118.75 896.503 117.386C896.503 116.045 896.739 114.878 897.21 113.884C897.682 112.884 898.338 112.111 899.179 111.565C900.02 111.014 900.992 110.739 902.094 110.739C902.946 110.739 903.622 110.881 904.122 111.165C904.628 111.443 905.014 111.761 905.281 112.119C905.554 112.472 905.764 112.761 905.912 112.989H906.117V110.909H908.06V124.375C908.06 125.5 907.804 126.415 907.293 127.119C906.787 127.83 906.105 128.349 905.247 128.679C904.395 129.014 903.446 129.182 902.401 129.182ZM902.333 121.989C903.139 121.989 903.821 121.804 904.378 121.435C904.935 121.065 905.358 120.534 905.648 119.841C905.938 119.148 906.083 118.318 906.083 117.352C906.083 116.409 905.941 115.577 905.656 114.855C905.372 114.134 904.952 113.568 904.395 113.159C903.838 112.75 903.151 112.545 902.333 112.545C901.48 112.545 900.77 112.761 900.202 113.193C899.639 113.625 899.216 114.205 898.932 114.932C898.654 115.659 898.514 116.466 898.514 117.352C898.514 118.261 898.656 119.065 898.941 119.764C899.23 120.457 899.656 121.003 900.219 121.401C900.787 121.793 901.492 121.989 902.333 121.989ZM922.568 124.307C921.738 124.307 920.986 124.151 920.309 123.838C919.633 123.52 919.096 123.062 918.699 122.466C918.301 121.864 918.102 121.136 918.102 120.284C918.102 119.534 918.25 118.926 918.545 118.46C918.841 117.989 919.236 117.619 919.73 117.352C920.224 117.085 920.77 116.886 921.366 116.756C921.969 116.619 922.574 116.511 923.182 116.432C923.977 116.33 924.622 116.253 925.116 116.202C925.616 116.145 925.98 116.051 926.207 115.92C926.44 115.79 926.557 115.562 926.557 115.239V115.17C926.557 114.33 926.326 113.676 925.866 113.21C925.412 112.744 924.721 112.511 923.795 112.511C922.835 112.511 922.082 112.722 921.537 113.142C920.991 113.562 920.608 114.011 920.386 114.489L918.477 113.807C918.818 113.011 919.272 112.392 919.841 111.949C920.415 111.5 921.04 111.187 921.716 111.011C922.397 110.83 923.068 110.739 923.727 110.739C924.147 110.739 924.63 110.79 925.176 110.892C925.727 110.989 926.258 111.19 926.77 111.497C927.287 111.804 927.716 112.267 928.057 112.886C928.397 113.506 928.568 114.335 928.568 115.375V124H926.557V122.227H926.454C926.318 122.511 926.091 122.815 925.772 123.139C925.454 123.463 925.031 123.739 924.503 123.966C923.974 124.193 923.329 124.307 922.568 124.307ZM922.875 122.5C923.67 122.5 924.341 122.344 924.886 122.031C925.437 121.719 925.852 121.315 926.13 120.821C926.415 120.327 926.557 119.807 926.557 119.261V117.42C926.471 117.523 926.284 117.616 925.994 117.702C925.71 117.781 925.38 117.852 925.005 117.915C924.636 117.972 924.275 118.023 923.923 118.068C923.576 118.108 923.295 118.142 923.079 118.17C922.557 118.239 922.068 118.349 921.613 118.503C921.165 118.651 920.801 118.875 920.522 119.176C920.25 119.472 920.113 119.875 920.113 120.386C920.113 121.085 920.372 121.614 920.889 121.972C921.412 122.324 922.074 122.5 922.875 122.5ZM934.362 116.125V124H932.351V110.909H934.294V112.955H934.465C934.772 112.29 935.237 111.756 935.862 111.352C936.487 110.943 937.294 110.739 938.283 110.739C939.169 110.739 939.945 110.92 940.61 111.284C941.274 111.642 941.791 112.188 942.161 112.92C942.53 113.648 942.715 114.568 942.715 115.682V124H940.703V115.818C940.703 114.79 940.436 113.989 939.902 113.415C939.368 112.835 938.635 112.545 937.703 112.545C937.061 112.545 936.487 112.685 935.982 112.963C935.482 113.241 935.087 113.648 934.797 114.182C934.507 114.716 934.362 115.364 934.362 116.125ZM951.445 124.273C950.354 124.273 949.391 123.997 948.556 123.446C947.721 122.889 947.068 122.105 946.596 121.094C946.124 120.077 945.889 118.875 945.889 117.489C945.889 116.114 946.124 114.92 946.596 113.909C947.068 112.898 947.724 112.116 948.565 111.565C949.406 111.014 950.377 110.739 951.479 110.739C952.332 110.739 953.005 110.881 953.499 111.165C953.999 111.443 954.38 111.761 954.641 112.119C954.908 112.472 955.116 112.761 955.264 112.989H955.434V106.545H957.445V124H955.502V121.989H955.264C955.116 122.227 954.906 122.528 954.633 122.892C954.36 123.25 953.971 123.571 953.465 123.855C952.96 124.134 952.286 124.273 951.445 124.273ZM951.718 122.466C952.525 122.466 953.207 122.256 953.764 121.835C954.32 121.409 954.744 120.821 955.033 120.071C955.323 119.315 955.468 118.443 955.468 117.455C955.468 116.477 955.326 115.622 955.042 114.889C954.758 114.151 954.337 113.577 953.781 113.168C953.224 112.753 952.536 112.545 951.718 112.545C950.866 112.545 950.156 112.764 949.587 113.202C949.025 113.634 948.602 114.222 948.318 114.966C948.039 115.705 947.9 116.534 947.9 117.455C947.9 118.386 948.042 119.233 948.326 119.994C948.616 120.75 949.042 121.352 949.604 121.801C950.173 122.244 950.877 122.466 951.718 122.466ZM968.655 124V106.545H970.667V112.989H970.837C970.985 112.761 971.189 112.472 971.451 112.119C971.718 111.761 972.098 111.443 972.593 111.165C973.093 110.881 973.769 110.739 974.621 110.739C975.723 110.739 976.695 111.014 977.536 111.565C978.377 112.116 979.033 112.898 979.505 113.909C979.976 114.92 980.212 116.114 980.212 117.489C980.212 118.875 979.976 120.077 979.505 121.094C979.033 122.105 978.38 122.889 977.544 123.446C976.709 123.997 975.746 124.273 974.655 124.273C973.814 124.273 973.141 124.134 972.635 123.855C972.13 123.571 971.74 123.25 971.468 122.892C971.195 122.528 970.985 122.227 970.837 121.989H970.598V124H968.655ZM970.632 117.455C970.632 118.443 970.777 119.315 971.067 120.071C971.357 120.821 971.78 121.409 972.337 121.835C972.894 122.256 973.576 122.466 974.382 122.466C975.223 122.466 975.925 122.244 976.488 121.801C977.056 121.352 977.482 120.75 977.766 119.994C978.056 119.233 978.201 118.386 978.201 117.455C978.201 116.534 978.059 115.705 977.774 114.966C977.496 114.222 977.073 113.634 976.505 113.202C975.942 112.764 975.235 112.545 974.382 112.545C973.564 112.545 972.877 112.753 972.32 113.168C971.763 113.577 971.343 114.151 971.059 114.889C970.774 115.622 970.632 116.477 970.632 117.455ZM983.401 124V110.909H985.412V124H983.401ZM984.423 108.727C984.031 108.727 983.693 108.594 983.409 108.327C983.131 108.06 982.992 107.739 982.992 107.364C982.992 106.989 983.131 106.668 983.409 106.401C983.693 106.134 984.031 106 984.423 106C984.815 106 985.151 106.134 985.429 106.401C985.713 106.668 985.855 106.989 985.855 107.364C985.855 107.739 985.713 108.06 985.429 108.327C985.151 108.594 984.815 108.727 984.423 108.727ZM994.492 129.182C993.52 129.182 992.685 129.057 991.986 128.807C991.288 128.562 990.705 128.239 990.239 127.835C989.779 127.438 989.413 127.011 989.14 126.557L990.742 125.432C990.924 125.67 991.154 125.943 991.432 126.25C991.711 126.562 992.092 126.832 992.574 127.06C993.063 127.293 993.702 127.409 994.492 127.409C995.549 127.409 996.421 127.153 997.109 126.642C997.796 126.131 998.14 125.33 998.14 124.239V121.58H997.969C997.822 121.818 997.611 122.114 997.339 122.466C997.072 122.812 996.685 123.122 996.18 123.395C995.68 123.662 995.003 123.795 994.151 123.795C993.094 123.795 992.145 123.545 991.305 123.045C990.469 122.545 989.807 121.818 989.319 120.864C988.836 119.909 988.594 118.75 988.594 117.386C988.594 116.045 988.83 114.878 989.302 113.884C989.773 112.884 990.43 112.111 991.27 111.565C992.111 111.014 993.083 110.739 994.185 110.739C995.038 110.739 995.714 110.881 996.214 111.165C996.719 111.443 997.106 111.761 997.373 112.119C997.645 112.472 997.856 112.761 998.003 112.989H998.208V110.909H1000.15V124.375C1000.15 125.5 999.895 126.415 999.384 127.119C998.878 127.83 998.197 128.349 997.339 128.679C996.486 129.014 995.538 129.182 994.492 129.182ZM994.424 121.989C995.231 121.989 995.913 121.804 996.469 121.435C997.026 121.065 997.449 120.534 997.739 119.841C998.029 119.148 998.174 118.318 998.174 117.352C998.174 116.409 998.032 115.577 997.748 114.855C997.464 114.134 997.043 113.568 996.486 113.159C995.93 112.75 995.242 112.545 994.424 112.545C993.572 112.545 992.861 112.761 992.293 113.193C991.731 113.625 991.307 114.205 991.023 114.932C990.745 115.659 990.606 116.466 990.606 117.352C990.606 118.261 990.748 119.065 991.032 119.764C991.322 120.457 991.748 121.003 992.31 121.401C992.878 121.793 993.583 121.989 994.424 121.989ZM1009.23 129.182C1008.26 129.182 1007.42 129.057 1006.72 128.807C1006.02 128.562 1005.44 128.239 1004.98 127.835C1004.52 127.438 1004.15 127.011 1003.88 126.557L1005.48 125.432C1005.66 125.67 1005.89 125.943 1006.17 126.25C1006.45 126.562 1006.83 126.832 1007.31 127.06C1007.8 127.293 1008.44 127.409 1009.23 127.409C1010.29 127.409 1011.16 127.153 1011.85 126.642C1012.53 126.131 1012.88 125.33 1012.88 124.239V121.58H1012.71C1012.56 121.818 1012.35 122.114 1012.08 122.466C1011.81 122.812 1011.42 123.122 1010.92 123.395C1010.42 123.662 1009.74 123.795 1008.89 123.795C1007.83 123.795 1006.88 123.545 1006.04 123.045C1005.21 122.545 1004.54 121.818 1004.06 120.864C1003.57 119.909 1003.33 118.75 1003.33 117.386C1003.33 116.045 1003.57 114.878 1004.04 113.884C1004.51 112.884 1005.17 112.111 1006.01 111.565C1006.85 111.014 1007.82 110.739 1008.92 110.739C1009.77 110.739 1010.45 110.881 1010.95 111.165C1011.46 111.443 1011.84 111.761 1012.11 112.119C1012.38 112.472 1012.59 112.761 1012.74 112.989H1012.94V110.909H1014.89V124.375C1014.89 125.5 1014.63 126.415 1014.12 127.119C1013.62 127.83 1012.93 128.349 1012.08 128.679C1011.22 129.014 1010.27 129.182 1009.23 129.182ZM1009.16 121.989C1009.97 121.989 1010.65 121.804 1011.21 121.435C1011.76 121.065 1012.19 120.534 1012.48 119.841C1012.77 119.148 1012.91 118.318 1012.91 117.352C1012.91 116.409 1012.77 115.577 1012.48 114.855C1012.2 114.134 1011.78 113.568 1011.22 113.159C1010.67 112.75 1009.98 112.545 1009.16 112.545C1008.31 112.545 1007.6 112.761 1007.03 113.193C1006.47 113.625 1006.04 114.205 1005.76 114.932C1005.48 115.659 1005.34 116.466 1005.34 117.352C1005.34 118.261 1005.48 119.065 1005.77 119.764C1006.06 120.457 1006.48 121.003 1007.05 121.401C1007.62 121.793 1008.32 121.989 1009.16 121.989ZM1024.17 124.273C1022.91 124.273 1021.82 123.994 1020.91 123.438C1020 122.875 1019.3 122.091 1018.8 121.085C1018.31 120.074 1018.07 118.898 1018.07 117.557C1018.07 116.216 1018.31 115.034 1018.8 114.011C1019.3 112.983 1019.98 112.182 1020.86 111.608C1021.75 111.028 1022.78 110.739 1023.97 110.739C1024.65 110.739 1025.32 110.852 1025.99 111.08C1026.65 111.307 1027.26 111.676 1027.8 112.188C1028.35 112.693 1028.78 113.364 1029.11 114.199C1029.43 115.034 1029.59 116.062 1029.59 117.284V118.136H1019.5V116.398H1027.55C1027.55 115.659 1027.4 115 1027.1 114.42C1026.81 113.841 1026.4 113.384 1025.86 113.048C1025.32 112.713 1024.69 112.545 1023.97 112.545C1023.16 112.545 1022.47 112.744 1021.89 113.142C1021.31 113.534 1020.86 114.045 1020.55 114.676C1020.24 115.307 1020.08 115.983 1020.08 116.705V117.864C1020.08 118.852 1020.25 119.69 1020.59 120.378C1020.94 121.06 1021.42 121.58 1022.03 121.938C1022.65 122.29 1023.36 122.466 1024.17 122.466C1024.7 122.466 1025.18 122.392 1025.6 122.244C1026.03 122.091 1026.41 121.864 1026.72 121.562C1027.03 121.256 1027.27 120.875 1027.44 120.42L1029.39 120.966C1029.18 121.625 1028.84 122.205 1028.36 122.705C1027.87 123.199 1027.28 123.585 1026.57 123.864C1025.86 124.136 1025.06 124.273 1024.17 124.273ZM1032.76 124V110.909H1034.71V112.886H1034.84C1035.08 112.239 1035.51 111.713 1036.14 111.31C1036.76 110.906 1037.47 110.705 1038.25 110.705C1038.4 110.705 1038.58 110.707 1038.81 110.713C1039.03 110.719 1039.19 110.727 1039.31 110.739V112.784C1039.24 112.767 1039.08 112.741 1038.84 112.707C1038.6 112.668 1038.35 112.648 1038.08 112.648C1037.44 112.648 1036.88 112.781 1036.38 113.048C1035.88 113.31 1035.49 113.673 1035.2 114.139C1034.92 114.599 1034.77 115.125 1034.77 115.716V124H1032.76ZM1041.77 124.136C1041.35 124.136 1040.99 123.986 1040.69 123.685C1040.39 123.384 1040.24 123.023 1040.24 122.602C1040.24 122.182 1040.39 121.821 1040.69 121.52C1040.99 121.219 1041.35 121.068 1041.77 121.068C1042.19 121.068 1042.55 121.219 1042.85 121.52C1043.15 121.821 1043.3 122.182 1043.3 122.602C1043.3 122.881 1043.23 123.136 1043.09 123.369C1042.95 123.602 1042.77 123.79 1042.54 123.932C1042.31 124.068 1042.05 124.136 1041.77 124.136Z" fill="#1D1D1F"/>
<path d="M904.539 166.64V153.549H906.124V165.234H912.21V166.64H904.539ZM918.807 166.844C917.861 166.844 917.045 166.636 916.359 166.218C915.677 165.796 915.151 165.208 914.78 164.454C914.414 163.695 914.23 162.813 914.23 161.808C914.23 160.802 914.414 159.915 914.78 159.148C915.151 158.377 915.667 157.776 916.327 157.346C916.992 156.911 917.767 156.694 918.654 156.694C919.165 156.694 919.67 156.779 920.169 156.95C920.667 157.12 921.121 157.397 921.53 157.781C921.939 158.16 922.265 158.663 922.508 159.289C922.751 159.915 922.873 160.687 922.873 161.603V162.242H915.304V160.938H921.338C921.338 160.384 921.228 159.89 921.006 159.455C920.789 159.021 920.478 158.678 920.073 158.426C919.672 158.175 919.199 158.049 918.654 158.049C918.053 158.049 917.533 158.198 917.094 158.496C916.659 158.79 916.325 159.174 916.091 159.647C915.856 160.12 915.739 160.627 915.739 161.168V162.038C915.739 162.779 915.867 163.408 916.123 163.923C916.382 164.435 916.743 164.825 917.203 165.093C917.663 165.357 918.198 165.489 918.807 165.489C919.203 165.489 919.561 165.434 919.881 165.323C920.205 165.208 920.484 165.038 920.718 164.812C920.953 164.582 921.134 164.296 921.262 163.955L922.719 164.364C922.566 164.859 922.308 165.293 921.946 165.668C921.583 166.039 921.136 166.329 920.603 166.538C920.071 166.742 919.472 166.844 918.807 166.844ZM928.287 166.87C927.665 166.87 927.101 166.753 926.594 166.518C926.086 166.28 925.684 165.937 925.385 165.489C925.087 165.038 924.938 164.492 924.938 163.853C924.938 163.29 925.049 162.834 925.27 162.485C925.492 162.131 925.788 161.854 926.159 161.654C926.53 161.454 926.939 161.305 927.386 161.207C927.838 161.104 928.292 161.023 928.748 160.964C929.344 160.887 929.828 160.83 930.199 160.791C930.574 160.749 930.846 160.678 931.017 160.58C931.192 160.482 931.279 160.312 931.279 160.069V160.018C931.279 159.387 931.106 158.897 930.761 158.548C930.42 158.198 929.903 158.023 929.208 158.023C928.488 158.023 927.923 158.181 927.514 158.496C927.105 158.812 926.817 159.148 926.651 159.506L925.219 158.995C925.475 158.398 925.816 157.934 926.242 157.602C926.672 157.265 927.141 157.031 927.648 156.898C928.16 156.762 928.662 156.694 929.157 156.694C929.472 156.694 929.834 156.732 930.243 156.809C930.657 156.881 931.055 157.033 931.439 157.263C931.827 157.493 932.148 157.84 932.404 158.305C932.66 158.769 932.787 159.391 932.787 160.171V166.64H931.279V165.31H931.202C931.1 165.523 930.93 165.751 930.691 165.994C930.452 166.237 930.135 166.444 929.738 166.614C929.342 166.785 928.859 166.87 928.287 166.87ZM928.518 165.515C929.114 165.515 929.617 165.398 930.026 165.163C930.439 164.929 930.751 164.626 930.959 164.256C931.172 163.885 931.279 163.495 931.279 163.086V161.705C931.215 161.782 931.074 161.852 930.857 161.916C930.644 161.976 930.397 162.029 930.116 162.076C929.839 162.119 929.568 162.157 929.304 162.191C929.044 162.221 928.833 162.246 928.671 162.268C928.279 162.319 927.912 162.402 927.572 162.517C927.235 162.628 926.962 162.796 926.753 163.022C926.549 163.244 926.447 163.546 926.447 163.93C926.447 164.454 926.64 164.85 927.028 165.119C927.42 165.383 927.917 165.515 928.518 165.515ZM935.772 166.64V156.822H937.229V158.305H937.332C937.51 157.819 937.834 157.425 938.303 157.122C938.772 156.82 939.3 156.668 939.888 156.668C939.999 156.668 940.138 156.67 940.304 156.675C940.47 156.679 940.596 156.685 940.681 156.694V158.228C940.63 158.215 940.513 158.196 940.329 158.17C940.15 158.141 939.961 158.126 939.76 158.126C939.283 158.126 938.857 158.226 938.482 158.426C938.111 158.622 937.817 158.895 937.6 159.244C937.387 159.589 937.28 159.984 937.28 160.427V166.64H935.772ZM944.209 160.734V166.64H942.7V156.822H944.158V158.356H944.285C944.515 157.857 944.865 157.457 945.334 157.154C945.802 156.847 946.408 156.694 947.149 156.694C947.814 156.694 948.395 156.83 948.894 157.103C949.393 157.371 949.78 157.781 950.057 158.33C950.334 158.876 950.473 159.566 950.473 160.401V166.64H948.964V160.504C948.964 159.732 948.764 159.131 948.363 158.701C947.963 158.266 947.413 158.049 946.714 158.049C946.233 158.049 945.802 158.153 945.423 158.362C945.048 158.571 944.752 158.876 944.535 159.276C944.317 159.677 944.209 160.163 944.209 160.734ZM958.754 166.64V156.822H960.211V158.356H960.339C960.544 157.832 960.874 157.425 961.33 157.135C961.786 156.841 962.333 156.694 962.973 156.694C963.62 156.694 964.159 156.841 964.59 157.135C965.025 157.425 965.363 157.832 965.606 158.356H965.708C965.96 157.849 966.337 157.446 966.84 157.148C967.343 156.845 967.946 156.694 968.649 156.694C969.527 156.694 970.245 156.969 970.803 157.518C971.361 158.064 971.64 158.914 971.64 160.069V166.64H970.132V160.069C970.132 159.344 969.934 158.827 969.537 158.516C969.141 158.205 968.674 158.049 968.137 158.049C967.447 158.049 966.912 158.258 966.533 158.675C966.154 159.089 965.964 159.613 965.964 160.248V166.64H964.43V159.915C964.43 159.357 964.249 158.908 963.887 158.567C963.525 158.222 963.058 158.049 962.487 158.049C962.095 158.049 961.728 158.153 961.387 158.362C961.051 158.571 960.778 158.861 960.569 159.232C960.365 159.598 960.262 160.022 960.262 160.504V166.64H958.754ZM978.618 166.844C977.732 166.844 976.954 166.634 976.285 166.212C975.62 165.79 975.1 165.2 974.725 164.441C974.355 163.683 974.169 162.796 974.169 161.782C974.169 160.759 974.355 159.866 974.725 159.104C975.1 158.341 975.62 157.749 976.285 157.327C976.954 156.905 977.732 156.694 978.618 156.694C979.504 156.694 980.28 156.905 980.945 157.327C981.614 157.749 982.134 158.341 982.504 159.104C982.879 159.866 983.067 160.759 983.067 161.782C983.067 162.796 982.879 163.683 982.504 164.441C982.134 165.2 981.614 165.79 980.945 166.212C980.28 166.634 979.504 166.844 978.618 166.844ZM978.618 165.489C979.291 165.489 979.845 165.317 980.28 164.972C980.715 164.626 981.036 164.173 981.245 163.61C981.454 163.048 981.558 162.438 981.558 161.782C981.558 161.126 981.454 160.514 981.245 159.947C981.036 159.381 980.715 158.923 980.28 158.573C979.845 158.224 979.291 158.049 978.618 158.049C977.945 158.049 977.391 158.224 976.956 158.573C976.521 158.923 976.2 159.381 975.991 159.947C975.782 160.514 975.678 161.126 975.678 161.782C975.678 162.438 975.782 163.048 975.991 163.61C976.2 164.173 976.521 164.626 976.956 164.972C977.391 165.317 977.945 165.489 978.618 165.489ZM985.601 166.64V156.822H987.058V158.305H987.16C987.339 157.819 987.663 157.425 988.132 157.122C988.601 156.82 989.129 156.668 989.717 156.668C989.828 156.668 989.966 156.67 990.133 156.675C990.299 156.679 990.425 156.685 990.51 156.694V158.228C990.459 158.215 990.341 158.196 990.158 158.17C989.979 158.141 989.79 158.126 989.589 158.126C989.112 158.126 988.686 158.226 988.311 158.426C987.94 158.622 987.646 158.895 987.429 159.244C987.216 159.589 987.109 159.984 987.109 160.427V166.64H985.601ZM996.347 166.844C995.401 166.844 994.585 166.636 993.898 166.218C993.217 165.796 992.69 165.208 992.32 164.454C991.953 163.695 991.77 162.813 991.77 161.808C991.77 160.802 991.953 159.915 992.32 159.148C992.69 158.377 993.206 157.776 993.866 157.346C994.531 156.911 995.307 156.694 996.193 156.694C996.705 156.694 997.21 156.779 997.708 156.95C998.207 157.12 998.661 157.397 999.07 157.781C999.479 158.16 999.805 158.663 1000.05 159.289C1000.29 159.915 1000.41 160.687 1000.41 161.603V162.242H992.844V160.938H998.878C998.878 160.384 998.767 159.89 998.545 159.455C998.328 159.021 998.017 158.678 997.612 158.426C997.212 158.175 996.739 158.049 996.193 158.049C995.592 158.049 995.072 158.198 994.634 158.496C994.199 158.79 993.864 159.174 993.63 159.647C993.396 160.12 993.278 160.627 993.278 161.168V162.038C993.278 162.779 993.406 163.408 993.662 163.923C993.922 164.435 994.282 164.825 994.742 165.093C995.202 165.357 995.737 165.489 996.347 165.489C996.743 165.489 997.101 165.434 997.42 165.323C997.744 165.208 998.023 165.038 998.258 164.812C998.492 164.582 998.673 164.296 998.801 163.955L1000.26 164.364C1000.11 164.859 999.847 165.293 999.485 165.668C999.123 166.039 998.675 166.329 998.143 166.538C997.61 166.742 997.011 166.844 996.347 166.844Z" fill="#0066CC"/>
<g clip-path="url(#clip0_2_33)">
<path d="M1009.6 167.642C1009.39 167.642 1009.21 167.568 1009.06 167.42C1008.91 167.272 1008.83 167.091 1008.83 166.878C1008.83 166.664 1008.91 166.479 1009.07 166.32L1013.24 162.161L1009.07 158.001C1008.91 157.842 1008.83 157.657 1008.83 157.443C1008.83 157.23 1008.91 157.049 1009.06 156.901C1009.21 156.753 1009.39 156.679 1009.6 156.679C1009.8 156.679 1009.98 156.752 1010.14 156.896L1014.85 161.582C1015.01 161.734 1015.1 161.927 1015.1 162.161C1015.1 162.381 1015.01 162.573 1014.85 162.739L1010.14 167.425C1010 167.569 1009.82 167.642 1009.6 167.642Z" fill="#0066CC"/>
</g>
<defs>
<clipPath id="clip0_2_33">
<rect width="9.51" height="29" fill="white" transform="matrix(1 0 0 -1 1008.83 176.64)"/>
</clipPath>
</defs>
</svg>
