<svg width="942" height="196" viewBox="0 0 942 196" fill="none" xmlns="http://www.w3.org/2000/svg">
<path d="M370.107 146H368.698C368.615 145.595 368.469 145.239 368.26 144.932C368.056 144.625 367.806 144.367 367.51 144.159C367.219 143.947 366.895 143.788 366.539 143.682C366.183 143.576 365.812 143.523 365.425 143.523C364.721 143.523 364.082 143.701 363.51 144.057C362.942 144.413 362.49 144.938 362.152 145.631C361.819 146.324 361.652 147.174 361.652 148.182C361.652 149.189 361.819 150.04 362.152 150.733C362.49 151.426 362.942 151.951 363.51 152.307C364.082 152.663 364.721 152.841 365.425 152.841C365.812 152.841 366.183 152.788 366.539 152.682C366.895 152.576 367.219 152.419 367.51 152.21C367.806 151.998 368.056 151.739 368.26 151.432C368.469 151.121 368.615 150.765 368.698 150.364H370.107C370.001 150.958 369.808 151.491 369.527 151.96C369.247 152.43 368.899 152.83 368.482 153.159C368.065 153.485 367.598 153.733 367.079 153.903C366.563 154.074 366.012 154.159 365.425 154.159C364.433 154.159 363.55 153.917 362.777 153.432C362.005 152.947 361.397 152.258 360.954 151.364C360.51 150.47 360.289 149.409 360.289 148.182C360.289 146.955 360.51 145.894 360.954 145C361.397 144.106 362.005 143.417 362.777 142.932C363.55 142.447 364.433 142.205 365.425 142.205C366.012 142.205 366.563 142.29 367.079 142.46C367.598 142.631 368.065 142.881 368.482 143.21C368.899 143.536 369.247 143.934 369.527 144.403C369.808 144.869 370.001 145.402 370.107 146ZM373.169 148.75V154H371.828V142.364H373.169V146.636H373.283C373.487 146.186 373.794 145.828 374.203 145.562C374.616 145.294 375.165 145.159 375.851 145.159C376.446 145.159 376.966 145.278 377.413 145.517C377.86 145.752 378.207 146.114 378.453 146.602C378.703 147.087 378.828 147.705 378.828 148.455V154H377.487V148.545C377.487 147.852 377.307 147.316 376.948 146.938C376.591 146.555 376.097 146.364 375.465 146.364C375.025 146.364 374.631 146.456 374.283 146.642C373.938 146.828 373.665 147.098 373.465 147.455C373.268 147.811 373.169 148.242 373.169 148.75ZM384.566 154.182C383.726 154.182 383 153.996 382.39 153.625C381.784 153.25 381.316 152.727 380.987 152.057C380.661 151.383 380.498 150.598 380.498 149.705C380.498 148.811 380.661 148.023 380.987 147.341C381.316 146.655 381.775 146.121 382.362 145.739C382.953 145.352 383.642 145.159 384.43 145.159C384.885 145.159 385.333 145.235 385.777 145.386C386.22 145.538 386.623 145.784 386.987 146.125C387.351 146.462 387.64 146.909 387.856 147.466C388.072 148.023 388.18 148.708 388.18 149.523V150.091H381.453V148.932H386.816C386.816 148.439 386.718 148 386.521 147.614C386.328 147.227 386.051 146.922 385.691 146.699C385.335 146.475 384.915 146.364 384.43 146.364C383.896 146.364 383.434 146.496 383.044 146.761C382.657 147.023 382.36 147.364 382.152 147.784C381.943 148.205 381.839 148.655 381.839 149.136V149.909C381.839 150.568 381.953 151.127 382.18 151.585C382.411 152.04 382.731 152.386 383.14 152.625C383.549 152.86 384.025 152.977 384.566 152.977C384.919 152.977 385.237 152.928 385.521 152.83C385.809 152.727 386.057 152.576 386.265 152.375C386.474 152.17 386.635 151.917 386.748 151.614L388.044 151.977C387.907 152.417 387.678 152.803 387.356 153.136C387.034 153.466 386.637 153.723 386.163 153.909C385.69 154.091 385.157 154.182 384.566 154.182ZM393.391 154.182C392.573 154.182 391.869 153.989 391.278 153.602C390.687 153.216 390.232 152.684 389.914 152.006C389.596 151.328 389.437 150.553 389.437 149.682C389.437 148.795 389.6 148.013 389.925 147.335C390.255 146.653 390.713 146.121 391.3 145.739C391.891 145.352 392.581 145.159 393.369 145.159C393.982 145.159 394.535 145.273 395.028 145.5C395.52 145.727 395.923 146.045 396.238 146.455C396.552 146.864 396.747 147.341 396.823 147.886H395.482C395.38 147.489 395.153 147.136 394.8 146.83C394.452 146.519 393.982 146.364 393.391 146.364C392.869 146.364 392.41 146.5 392.016 146.773C391.626 147.042 391.321 147.422 391.102 147.915C390.886 148.403 390.778 148.977 390.778 149.636C390.778 150.311 390.884 150.898 391.096 151.398C391.312 151.898 391.615 152.286 392.005 152.562C392.399 152.839 392.861 152.977 393.391 152.977C393.74 152.977 394.056 152.917 394.34 152.795C394.624 152.674 394.865 152.5 395.062 152.273C395.259 152.045 395.399 151.773 395.482 151.455H396.823C396.747 151.97 396.56 152.434 396.261 152.847C395.965 153.256 395.573 153.581 395.084 153.824C394.6 154.062 394.035 154.182 393.391 154.182ZM399.659 150.818L399.637 149.159H399.909L403.728 145.273H405.387L401.318 149.386H401.205L399.659 150.818ZM398.409 154V142.364H399.75V154H398.409ZM403.955 154L400.546 149.682L401.5 148.75L405.659 154H403.955ZM411.046 154V142.364H412.387V146.659H412.501C412.599 146.508 412.736 146.314 412.91 146.08C413.088 145.841 413.342 145.629 413.671 145.443C414.005 145.254 414.455 145.159 415.024 145.159C415.758 145.159 416.406 145.343 416.967 145.71C417.527 146.078 417.965 146.598 418.279 147.273C418.594 147.947 418.751 148.742 418.751 149.659C418.751 150.583 418.594 151.384 418.279 152.062C417.965 152.737 417.529 153.259 416.972 153.631C416.416 153.998 415.774 154.182 415.046 154.182C414.486 154.182 414.037 154.089 413.7 153.903C413.363 153.714 413.103 153.5 412.921 153.261C412.739 153.019 412.599 152.818 412.501 152.659H412.342V154H411.046ZM412.364 149.636C412.364 150.295 412.461 150.877 412.654 151.381C412.847 151.881 413.13 152.273 413.501 152.557C413.872 152.837 414.327 152.977 414.864 152.977C415.425 152.977 415.893 152.83 416.268 152.534C416.647 152.235 416.931 151.833 417.12 151.33C417.313 150.822 417.41 150.258 417.41 149.636C417.41 149.023 417.315 148.47 417.126 147.977C416.94 147.481 416.658 147.089 416.279 146.801C415.904 146.509 415.433 146.364 414.864 146.364C414.319 146.364 413.861 146.502 413.489 146.778C413.118 147.051 412.838 147.434 412.649 147.926C412.459 148.415 412.364 148.985 412.364 149.636ZM422.996 154.205C422.443 154.205 421.941 154.1 421.49 153.892C421.04 153.68 420.682 153.375 420.417 152.977C420.151 152.576 420.019 152.091 420.019 151.523C420.019 151.023 420.117 150.617 420.314 150.307C420.511 149.992 420.775 149.746 421.104 149.568C421.434 149.39 421.797 149.258 422.195 149.17C422.597 149.08 423 149.008 423.405 148.955C423.936 148.886 424.365 148.835 424.695 148.801C425.028 148.763 425.271 148.701 425.422 148.614C425.578 148.527 425.655 148.375 425.655 148.159V148.114C425.655 147.553 425.502 147.117 425.195 146.807C424.892 146.496 424.432 146.341 423.814 146.341C423.174 146.341 422.672 146.481 422.309 146.761C421.945 147.042 421.689 147.341 421.542 147.659L420.269 147.205C420.496 146.674 420.799 146.261 421.178 145.966C421.561 145.667 421.977 145.458 422.428 145.341C422.883 145.22 423.329 145.159 423.769 145.159C424.049 145.159 424.371 145.193 424.735 145.261C425.102 145.326 425.456 145.46 425.797 145.665C426.142 145.869 426.428 146.178 426.655 146.591C426.883 147.004 426.996 147.557 426.996 148.25V154H425.655V152.818H425.587C425.496 153.008 425.345 153.21 425.133 153.426C424.92 153.642 424.638 153.826 424.286 153.977C423.934 154.129 423.504 154.205 422.996 154.205ZM423.201 153C423.731 153 424.178 152.896 424.542 152.688C424.909 152.479 425.186 152.21 425.371 151.881C425.561 151.551 425.655 151.205 425.655 150.841V149.614C425.598 149.682 425.473 149.744 425.28 149.801C425.091 149.854 424.871 149.902 424.621 149.943C424.375 149.981 424.134 150.015 423.9 150.045C423.668 150.072 423.481 150.095 423.337 150.114C422.989 150.159 422.663 150.233 422.36 150.335C422.061 150.434 421.818 150.583 421.633 150.784C421.451 150.981 421.36 151.25 421.36 151.591C421.36 152.057 421.532 152.409 421.877 152.648C422.225 152.883 422.667 153 423.201 153ZM432.615 154.182C431.797 154.182 431.092 153.989 430.501 153.602C429.91 153.216 429.456 152.684 429.138 152.006C428.82 151.328 428.66 150.553 428.66 149.682C428.66 148.795 428.823 148.013 429.149 147.335C429.479 146.653 429.937 146.121 430.524 145.739C431.115 145.352 431.804 145.159 432.592 145.159C433.206 145.159 433.759 145.273 434.251 145.5C434.744 145.727 435.147 146.045 435.462 146.455C435.776 146.864 435.971 147.341 436.047 147.886H434.706C434.604 147.489 434.376 147.136 434.024 146.83C433.676 146.519 433.206 146.364 432.615 146.364C432.092 146.364 431.634 146.5 431.24 146.773C430.85 147.042 430.545 147.422 430.325 147.915C430.109 148.403 430.001 148.977 430.001 149.636C430.001 150.311 430.107 150.898 430.32 151.398C430.535 151.898 430.839 152.286 431.229 152.562C431.623 152.839 432.085 152.977 432.615 152.977C432.964 152.977 433.28 152.917 433.564 152.795C433.848 152.674 434.089 152.5 434.285 152.273C434.482 152.045 434.623 151.773 434.706 151.455H436.047C435.971 151.97 435.784 152.434 435.484 152.847C435.189 153.256 434.797 153.581 434.308 153.824C433.823 154.062 433.259 154.182 432.615 154.182ZM438.883 150.818L438.86 149.159H439.133L442.951 145.273H444.61L440.542 149.386H440.429L438.883 150.818ZM437.633 154V142.364H438.974V154H437.633ZM443.179 154L439.769 149.682L440.724 148.75L444.883 154H443.179ZM451.429 142.364V154H450.088V142.364H451.429ZM456.079 154.205C455.526 154.205 455.024 154.1 454.574 153.892C454.123 153.68 453.765 153.375 453.5 152.977C453.235 152.576 453.102 152.091 453.102 151.523C453.102 151.023 453.2 150.617 453.397 150.307C453.594 149.992 453.858 149.746 454.187 149.568C454.517 149.39 454.88 149.258 455.278 149.17C455.68 149.08 456.083 149.008 456.488 148.955C457.019 148.886 457.449 148.835 457.778 148.801C458.111 148.763 458.354 148.701 458.505 148.614C458.661 148.527 458.738 148.375 458.738 148.159V148.114C458.738 147.553 458.585 147.117 458.278 146.807C457.975 146.496 457.515 146.341 456.897 146.341C456.257 146.341 455.755 146.481 455.392 146.761C455.028 147.042 454.772 147.341 454.625 147.659L453.352 147.205C453.579 146.674 453.882 146.261 454.261 145.966C454.644 145.667 455.06 145.458 455.511 145.341C455.966 145.22 456.413 145.159 456.852 145.159C457.132 145.159 457.454 145.193 457.818 145.261C458.185 145.326 458.539 145.46 458.88 145.665C459.225 145.869 459.511 146.178 459.738 146.591C459.966 147.004 460.079 147.557 460.079 148.25V154H458.738V152.818H458.67C458.579 153.008 458.428 153.21 458.216 153.426C458.004 153.642 457.721 153.826 457.369 153.977C457.017 154.129 456.587 154.205 456.079 154.205ZM456.284 153C456.814 153 457.261 152.896 457.625 152.688C457.992 152.479 458.269 152.21 458.454 151.881C458.644 151.551 458.738 151.205 458.738 150.841V149.614C458.682 149.682 458.557 149.744 458.363 149.801C458.174 149.854 457.954 149.902 457.704 149.943C457.458 149.981 457.218 150.015 456.983 150.045C456.752 150.072 456.564 150.095 456.42 150.114C456.072 150.159 455.746 150.233 455.443 150.335C455.144 150.434 454.901 150.583 454.716 150.784C454.534 150.981 454.443 151.25 454.443 151.591C454.443 152.057 454.615 152.409 454.96 152.648C455.308 152.883 455.75 153 456.284 153ZM465.948 145.273V146.409H461.425V145.273H465.948ZM462.744 143.182H464.085V151.5C464.085 151.879 464.139 152.163 464.249 152.352C464.363 152.538 464.507 152.663 464.681 152.727C464.859 152.788 465.047 152.818 465.244 152.818C465.391 152.818 465.513 152.811 465.607 152.795C465.702 152.777 465.778 152.761 465.835 152.75L466.107 153.955C466.016 153.989 465.889 154.023 465.727 154.057C465.564 154.095 465.357 154.114 465.107 154.114C464.728 154.114 464.357 154.032 463.994 153.869C463.634 153.706 463.335 153.458 463.096 153.125C462.861 152.792 462.744 152.371 462.744 151.864V143.182ZM471.157 154.182C470.316 154.182 469.59 153.996 468.98 153.625C468.374 153.25 467.907 152.727 467.577 152.057C467.251 151.383 467.088 150.598 467.088 149.705C467.088 148.811 467.251 148.023 467.577 147.341C467.907 146.655 468.365 146.121 468.952 145.739C469.543 145.352 470.232 145.159 471.02 145.159C471.475 145.159 471.924 145.235 472.367 145.386C472.81 145.538 473.213 145.784 473.577 146.125C473.941 146.462 474.23 146.909 474.446 147.466C474.662 148.023 474.77 148.708 474.77 149.523V150.091H468.043V148.932H473.407C473.407 148.439 473.308 148 473.111 147.614C472.918 147.227 472.641 146.922 472.282 146.699C471.925 146.475 471.505 146.364 471.02 146.364C470.486 146.364 470.024 146.496 469.634 146.761C469.247 147.023 468.95 147.364 468.742 147.784C468.533 148.205 468.429 148.655 468.429 149.136V149.909C468.429 150.568 468.543 151.127 468.77 151.585C469.001 152.04 469.321 152.386 469.73 152.625C470.14 152.86 470.615 152.977 471.157 152.977C471.509 152.977 471.827 152.928 472.111 152.83C472.399 152.727 472.647 152.576 472.855 152.375C473.064 152.17 473.225 151.917 473.338 151.614L474.634 151.977C474.497 152.417 474.268 152.803 473.946 153.136C473.624 153.466 473.227 153.723 472.753 153.909C472.28 154.091 471.747 154.182 471.157 154.182ZM476.436 154V145.273H477.731V146.591H477.822C477.981 146.159 478.269 145.809 478.686 145.54C479.103 145.271 479.572 145.136 480.095 145.136C480.194 145.136 480.317 145.138 480.464 145.142C480.612 145.146 480.724 145.152 480.8 145.159V146.523C480.754 146.511 480.65 146.494 480.487 146.472C480.328 146.445 480.159 146.432 479.981 146.432C479.557 146.432 479.178 146.521 478.845 146.699C478.516 146.873 478.254 147.116 478.061 147.426C477.872 147.733 477.777 148.083 477.777 148.477V154H476.436ZM490.027 145.273V146.409H485.323V145.273H490.027ZM486.732 154V144.068C486.732 143.568 486.849 143.152 487.084 142.818C487.319 142.485 487.624 142.235 487.999 142.068C488.374 141.902 488.77 141.818 489.187 141.818C489.516 141.818 489.785 141.845 489.993 141.898C490.202 141.951 490.357 142 490.459 142.045L490.073 143.205C490.005 143.182 489.91 143.153 489.789 143.119C489.671 143.085 489.516 143.068 489.323 143.068C488.88 143.068 488.56 143.18 488.363 143.403C488.169 143.627 488.073 143.955 488.073 144.386V154H486.732ZM494.719 154.182C493.931 154.182 493.24 153.994 492.645 153.619C492.054 153.244 491.592 152.72 491.259 152.045C490.929 151.371 490.764 150.583 490.764 149.682C490.764 148.773 490.929 147.979 491.259 147.301C491.592 146.623 492.054 146.097 492.645 145.722C493.24 145.347 493.931 145.159 494.719 145.159C495.507 145.159 496.196 145.347 496.787 145.722C497.382 146.097 497.844 146.623 498.173 147.301C498.507 147.979 498.673 148.773 498.673 149.682C498.673 150.583 498.507 151.371 498.173 152.045C497.844 152.72 497.382 153.244 496.787 153.619C496.196 153.994 495.507 154.182 494.719 154.182ZM494.719 152.977C495.317 152.977 495.81 152.824 496.196 152.517C496.582 152.21 496.868 151.807 497.054 151.307C497.24 150.807 497.332 150.265 497.332 149.682C497.332 149.098 497.24 148.555 497.054 148.051C496.868 147.547 496.582 147.14 496.196 146.83C495.81 146.519 495.317 146.364 494.719 146.364C494.12 146.364 493.628 146.519 493.242 146.83C492.855 147.14 492.569 147.547 492.384 148.051C492.198 148.555 492.105 149.098 492.105 149.682C492.105 150.265 492.198 150.807 492.384 151.307C492.569 151.807 492.855 152.21 493.242 152.517C493.628 152.824 494.12 152.977 494.719 152.977ZM500.346 154V145.273H501.642V146.591H501.733C501.892 146.159 502.18 145.809 502.596 145.54C503.013 145.271 503.483 145.136 504.005 145.136C504.104 145.136 504.227 145.138 504.375 145.142C504.522 145.146 504.634 145.152 504.71 145.159V146.523C504.664 146.511 504.56 146.494 504.397 146.472C504.238 146.445 504.07 146.432 503.892 146.432C503.467 146.432 503.089 146.521 502.755 146.699C502.426 146.873 502.164 147.116 501.971 147.426C501.782 147.733 501.687 148.083 501.687 148.477V154H500.346ZM512.62 154.205C512.066 154.205 511.565 154.1 511.114 153.892C510.663 153.68 510.305 153.375 510.04 152.977C509.775 152.576 509.642 152.091 509.642 151.523C509.642 151.023 509.741 150.617 509.938 150.307C510.135 149.992 510.398 149.746 510.727 149.568C511.057 149.39 511.421 149.258 511.818 149.17C512.22 149.08 512.623 149.008 513.029 148.955C513.559 148.886 513.989 148.835 514.318 148.801C514.652 148.763 514.894 148.701 515.046 148.614C515.201 148.527 515.279 148.375 515.279 148.159V148.114C515.279 147.553 515.125 147.117 514.818 146.807C514.515 146.496 514.055 146.341 513.438 146.341C512.798 146.341 512.296 146.481 511.932 146.761C511.568 147.042 511.313 147.341 511.165 147.659L509.892 147.205C510.12 146.674 510.423 146.261 510.801 145.966C511.184 145.667 511.601 145.458 512.051 145.341C512.506 145.22 512.953 145.159 513.392 145.159C513.673 145.159 513.995 145.193 514.358 145.261C514.726 145.326 515.08 145.46 515.421 145.665C515.765 145.869 516.051 146.178 516.279 146.591C516.506 147.004 516.62 147.557 516.62 148.25V154H515.279V152.818H515.21C515.12 153.008 514.968 153.21 514.756 153.426C514.544 153.642 514.262 153.826 513.909 153.977C513.557 154.129 513.127 154.205 512.62 154.205ZM512.824 153C513.354 153 513.801 152.896 514.165 152.688C514.532 152.479 514.809 152.21 514.995 151.881C515.184 151.551 515.279 151.205 515.279 150.841V149.614C515.222 149.682 515.097 149.744 514.904 149.801C514.714 149.854 514.495 149.902 514.245 149.943C513.998 149.981 513.758 150.015 513.523 150.045C513.292 150.072 513.104 150.095 512.96 150.114C512.612 150.159 512.286 150.233 511.983 150.335C511.684 150.434 511.441 150.583 511.256 150.784C511.074 150.981 510.983 151.25 510.983 151.591C510.983 152.057 511.156 152.409 511.5 152.648C511.849 152.883 512.29 153 512.824 153ZM525.517 145.273L522.29 154H520.926L517.699 145.273H519.153L521.562 152.227H521.653L524.062 145.273H525.517ZM529.215 154.205C528.662 154.205 528.16 154.1 527.71 153.892C527.259 153.68 526.901 153.375 526.636 152.977C526.371 152.576 526.238 152.091 526.238 151.523C526.238 151.023 526.336 150.617 526.533 150.307C526.73 149.992 526.994 149.746 527.323 149.568C527.653 149.39 528.016 149.258 528.414 149.17C528.816 149.08 529.219 149.008 529.624 148.955C530.155 148.886 530.585 148.835 530.914 148.801C531.247 148.763 531.49 148.701 531.641 148.614C531.797 148.527 531.874 148.375 531.874 148.159V148.114C531.874 147.553 531.721 147.117 531.414 146.807C531.111 146.496 530.651 146.341 530.033 146.341C529.393 146.341 528.891 146.481 528.528 146.761C528.164 147.042 527.908 147.341 527.761 147.659L526.488 147.205C526.715 146.674 527.018 146.261 527.397 145.966C527.78 145.667 528.196 145.458 528.647 145.341C529.102 145.22 529.549 145.159 529.988 145.159C530.268 145.159 530.59 145.193 530.954 145.261C531.321 145.326 531.675 145.46 532.016 145.665C532.361 145.869 532.647 146.178 532.874 146.591C533.102 147.004 533.215 147.557 533.215 148.25V154H531.874V152.818H531.806C531.715 153.008 531.564 153.21 531.352 153.426C531.139 153.642 530.857 153.826 530.505 153.977C530.153 154.129 529.723 154.205 529.215 154.205ZM529.42 153C529.95 153 530.397 152.896 530.761 152.688C531.128 152.479 531.405 152.21 531.59 151.881C531.78 151.551 531.874 151.205 531.874 150.841V149.614C531.818 149.682 531.693 149.744 531.499 149.801C531.31 149.854 531.09 149.902 530.84 149.943C530.594 149.981 530.354 150.015 530.119 150.045C529.888 150.072 529.7 150.095 529.556 150.114C529.208 150.159 528.882 150.233 528.579 150.335C528.28 150.434 528.037 150.583 527.852 150.784C527.67 150.981 527.579 151.25 527.579 151.591C527.579 152.057 527.751 152.409 528.096 152.648C528.444 152.883 528.886 153 529.42 153ZM535.289 154V145.273H536.63V154H535.289ZM535.971 143.818C535.709 143.818 535.484 143.729 535.294 143.551C535.109 143.373 535.016 143.159 535.016 142.909C535.016 142.659 535.109 142.445 535.294 142.267C535.484 142.089 535.709 142 535.971 142C536.232 142 536.455 142.089 536.641 142.267C536.83 142.445 536.925 142.659 536.925 142.909C536.925 143.159 536.83 143.373 536.641 143.551C536.455 143.729 536.232 143.818 535.971 143.818ZM540.052 142.364V154H538.712V142.364H540.052ZM544.703 154.205C544.15 154.205 543.648 154.1 543.197 153.892C542.746 153.68 542.388 153.375 542.123 152.977C541.858 152.576 541.725 152.091 541.725 151.523C541.725 151.023 541.824 150.617 542.021 150.307C542.218 149.992 542.481 149.746 542.811 149.568C543.14 149.39 543.504 149.258 543.902 149.17C544.303 149.08 544.706 149.008 545.112 148.955C545.642 148.886 546.072 148.835 546.402 148.801C546.735 148.763 546.977 148.701 547.129 148.614C547.284 148.527 547.362 148.375 547.362 148.159V148.114C547.362 147.553 547.208 147.117 546.902 146.807C546.598 146.496 546.138 146.341 545.521 146.341C544.881 146.341 544.379 146.481 544.015 146.761C543.652 147.042 543.396 147.341 543.248 147.659L541.975 147.205C542.203 146.674 542.506 146.261 542.884 145.966C543.267 145.667 543.684 145.458 544.134 145.341C544.589 145.22 545.036 145.159 545.475 145.159C545.756 145.159 546.078 145.193 546.441 145.261C546.809 145.326 547.163 145.46 547.504 145.665C547.848 145.869 548.134 146.178 548.362 146.591C548.589 147.004 548.703 147.557 548.703 148.25V154H547.362V152.818H547.294C547.203 153.008 547.051 153.21 546.839 153.426C546.627 153.642 546.345 153.826 545.992 153.977C545.64 154.129 545.21 154.205 544.703 154.205ZM544.907 153C545.437 153 545.884 152.896 546.248 152.688C546.616 152.479 546.892 152.21 547.078 151.881C547.267 151.551 547.362 151.205 547.362 150.841V149.614C547.305 149.682 547.18 149.744 546.987 149.801C546.797 149.854 546.578 149.902 546.328 149.943C546.081 149.981 545.841 150.015 545.606 150.045C545.375 150.072 545.187 150.095 545.044 150.114C544.695 150.159 544.369 150.233 544.066 150.335C543.767 150.434 543.525 150.583 543.339 150.784C543.157 150.981 543.066 151.25 543.066 151.591C543.066 152.057 543.239 152.409 543.583 152.648C543.932 152.883 544.373 153 544.907 153ZM550.958 154V142.364H552.299V146.659H552.412C552.511 146.508 552.647 146.314 552.822 146.08C553 145.841 553.253 145.629 553.583 145.443C553.916 145.254 554.367 145.159 554.935 145.159C555.67 145.159 556.318 145.343 556.878 145.71C557.439 146.078 557.876 146.598 558.191 147.273C558.505 147.947 558.662 148.742 558.662 149.659C558.662 150.583 558.505 151.384 558.191 152.062C557.876 152.737 557.441 153.259 556.884 153.631C556.327 153.998 555.685 154.182 554.958 154.182C554.397 154.182 553.948 154.089 553.611 153.903C553.274 153.714 553.015 153.5 552.833 153.261C552.651 153.019 552.511 152.818 552.412 152.659H552.253V154H550.958ZM552.276 149.636C552.276 150.295 552.373 150.877 552.566 151.381C552.759 151.881 553.041 152.273 553.412 152.557C553.784 152.837 554.238 152.977 554.776 152.977C555.337 152.977 555.804 152.83 556.179 152.534C556.558 152.235 556.842 151.833 557.032 151.33C557.225 150.822 557.322 150.258 557.322 149.636C557.322 149.023 557.227 148.47 557.037 147.977C556.852 147.481 556.57 147.089 556.191 146.801C555.816 146.509 555.344 146.364 554.776 146.364C554.231 146.364 553.772 146.502 553.401 146.778C553.03 147.051 552.75 147.434 552.56 147.926C552.371 148.415 552.276 148.985 552.276 149.636ZM560.34 154V145.273H561.68V154H560.34ZM561.021 143.818C560.76 143.818 560.535 143.729 560.345 143.551C560.16 143.373 560.067 143.159 560.067 142.909C560.067 142.659 560.16 142.445 560.345 142.267C560.535 142.089 560.76 142 561.021 142C561.283 142 561.506 142.089 561.692 142.267C561.881 142.445 561.976 142.659 561.976 142.909C561.976 143.159 561.881 143.373 561.692 143.551C561.506 143.729 561.283 143.818 561.021 143.818ZM565.103 142.364V154H563.762V142.364H565.103ZM567.185 154V145.273H568.526V154H567.185ZM567.867 143.818C567.606 143.818 567.38 143.729 567.191 143.551C567.005 143.373 566.913 143.159 566.913 142.909C566.913 142.659 567.005 142.445 567.191 142.267C567.38 142.089 567.606 142 567.867 142C568.129 142 568.352 142.089 568.538 142.267C568.727 142.445 568.822 142.659 568.822 142.909C568.822 143.159 568.727 143.373 568.538 143.551C568.352 143.729 568.129 143.818 567.867 143.818ZM574.404 145.273V146.409H569.881V145.273H574.404ZM571.199 143.182H572.54V151.5C572.54 151.879 572.595 152.163 572.705 152.352C572.818 152.538 572.962 152.663 573.137 152.727C573.315 152.788 573.502 152.818 573.699 152.818C573.847 152.818 573.968 152.811 574.063 152.795C574.157 152.777 574.233 152.761 574.29 152.75L574.563 153.955C574.472 153.989 574.345 154.023 574.182 154.057C574.019 154.095 573.813 154.114 573.563 154.114C573.184 154.114 572.813 154.032 572.449 153.869C572.089 153.706 571.79 153.458 571.551 153.125C571.317 152.792 571.199 152.371 571.199 151.864V143.182ZM576.91 157.273C576.683 157.273 576.48 157.254 576.302 157.216C576.124 157.182 576.001 157.148 575.933 157.114L576.274 155.932C576.6 156.015 576.888 156.045 577.138 156.023C577.388 156 577.609 155.888 577.802 155.688C577.999 155.491 578.179 155.17 578.342 154.727L578.592 154.045L575.365 145.273H576.819L579.229 152.227H579.319L581.729 145.273H583.183L579.479 155.273C579.312 155.723 579.105 156.097 578.859 156.392C578.613 156.691 578.327 156.913 578.001 157.057C577.679 157.201 577.316 157.273 576.91 157.273Z" fill="#6E6E73"/>
<path d="M435.512 88V68.3636H440.14V88H435.512ZM437.839 65.5767C437.106 65.5767 436.476 65.3338 435.947 64.848C435.419 64.3537 435.154 63.7614 435.154 63.071C435.154 62.3722 435.419 61.7798 435.947 61.294C436.476 60.7997 437.106 60.5526 437.839 60.5526C438.581 60.5526 439.211 60.7997 439.731 61.294C440.26 61.7798 440.524 62.3722 440.524 63.071C440.524 63.7614 440.26 64.3537 439.731 64.848C439.211 65.3338 438.581 65.5767 437.839 65.5767ZM445.104 88V61.8182H454.922C456.933 61.8182 458.621 62.1932 459.984 62.9432C461.357 63.6932 462.392 64.7244 463.091 66.0369C463.798 67.3409 464.152 68.8239 464.152 70.4858C464.152 72.1648 463.798 73.6562 463.091 74.9602C462.384 76.2642 461.34 77.2912 459.959 78.0412C458.578 78.7827 456.878 79.1534 454.858 79.1534H448.351V75.2543H454.219C455.395 75.2543 456.358 75.0497 457.108 74.6406C457.858 74.2315 458.412 73.669 458.77 72.9531C459.136 72.2372 459.32 71.4148 459.32 70.4858C459.32 69.5568 459.136 68.7386 458.77 68.0312C458.412 67.3239 457.854 66.7741 457.095 66.3821C456.345 65.9815 455.378 65.7812 454.193 65.7812H449.847V88H445.104ZM473.366 88.3963C472.122 88.3963 471.001 88.1747 470.004 87.7315C469.015 87.2798 468.231 86.6151 467.652 85.7372C467.081 84.8594 466.795 83.777 466.795 82.4901C466.795 81.3821 467 80.4659 467.409 79.7415C467.818 79.017 468.376 78.4375 469.083 78.0028C469.791 77.5682 470.588 77.2401 471.474 77.0185C472.369 76.7884 473.294 76.6222 474.248 76.5199C475.399 76.4006 476.332 76.294 477.048 76.2003C477.764 76.098 478.284 75.9446 478.608 75.7401C478.94 75.527 479.106 75.1989 479.106 74.7557V74.679C479.106 73.7159 478.821 72.9702 478.25 72.4418C477.679 71.9134 476.856 71.6491 475.782 71.6491C474.649 71.6491 473.75 71.8963 473.085 72.3906C472.429 72.8849 471.985 73.4687 471.755 74.142L467.434 73.5284C467.775 72.3352 468.338 71.3381 469.122 70.5369C469.906 69.7273 470.865 69.1222 471.998 68.7216C473.132 68.3125 474.385 68.108 475.757 68.108C476.703 68.108 477.645 68.2188 478.582 68.4403C479.52 68.6619 480.376 69.0284 481.152 69.5398C481.927 70.0426 482.549 70.7287 483.018 71.598C483.495 72.4673 483.734 73.554 483.734 74.858V88H479.285V85.3026H479.132C478.851 85.848 478.454 86.3594 477.943 86.8366C477.44 87.3054 476.805 87.6847 476.038 87.9744C475.279 88.2557 474.389 88.3963 473.366 88.3963ZM474.568 84.9957C475.497 84.9957 476.302 84.8125 476.984 84.446C477.666 84.071 478.19 83.5767 478.556 82.9631C478.931 82.3494 479.119 81.6804 479.119 80.956V78.642C478.974 78.7614 478.727 78.8722 478.378 78.9744C478.037 79.0767 477.653 79.1662 477.227 79.2429C476.801 79.3196 476.379 79.3878 475.961 79.4474C475.544 79.5071 475.181 79.5582 474.875 79.6009C474.184 79.6946 473.566 79.848 473.021 80.0611C472.476 80.2741 472.045 80.5724 471.73 80.956C471.414 81.331 471.257 81.8168 471.257 82.4134C471.257 83.2656 471.568 83.9091 472.19 84.3438C472.812 84.7784 473.605 84.9957 474.568 84.9957ZM495.674 88.3452C494.132 88.3452 492.751 87.9489 491.532 87.1562C490.314 86.3636 489.351 85.2131 488.643 83.7045C487.936 82.196 487.582 80.3636 487.582 78.2074C487.582 76.0256 487.94 74.1847 488.656 72.6847C489.38 71.1761 490.356 70.0384 491.583 69.2713C492.811 68.4957 494.179 68.108 495.687 68.108C496.838 68.108 497.784 68.304 498.525 68.696C499.267 69.0795 499.855 69.544 500.289 70.0895C500.724 70.6264 501.061 71.1335 501.299 71.6108H501.491V61.8182H506.132V88H501.581V84.9062H501.299C501.061 85.3835 500.716 85.8906 500.264 86.4276C499.812 86.956 499.216 87.4077 498.474 87.7827C497.733 88.1577 496.799 88.3452 495.674 88.3452ZM496.966 84.5483C497.946 84.5483 498.781 84.2841 499.471 83.7557C500.162 83.2187 500.686 82.473 501.044 81.5185C501.402 80.5639 501.581 79.4517 501.581 78.1818C501.581 76.9119 501.402 75.8082 501.044 74.8707C500.694 73.9332 500.174 73.2045 499.484 72.6847C498.802 72.1648 497.963 71.9048 496.966 71.9048C495.934 71.9048 495.074 72.1733 494.383 72.7102C493.693 73.2472 493.173 73.9886 492.824 74.9347C492.474 75.8807 492.299 76.9631 492.299 78.1818C492.299 79.4091 492.474 80.5043 492.824 81.4673C493.181 82.4219 493.706 83.1761 494.396 83.7301C495.095 84.2756 495.951 84.5483 496.966 84.5483Z" fill="#1D1D1F"/>
<path d="M349.028 121V107.909H350.613V119.594H356.698V121H349.028ZM363.273 121.205C362.387 121.205 361.609 120.994 360.94 120.572C360.275 120.15 359.755 119.56 359.38 118.801C359.009 118.043 358.824 117.156 358.824 116.142C358.824 115.119 359.009 114.227 359.38 113.464C359.755 112.701 360.275 112.109 360.94 111.687C361.609 111.265 362.387 111.054 363.273 111.054C364.159 111.054 364.935 111.265 365.6 111.687C366.269 112.109 366.789 112.701 367.159 113.464C367.534 114.227 367.722 115.119 367.722 116.142C367.722 117.156 367.534 118.043 367.159 118.801C366.789 119.56 366.269 120.15 365.6 120.572C364.935 120.994 364.159 121.205 363.273 121.205ZM363.273 119.849C363.946 119.849 364.5 119.677 364.935 119.332C365.37 118.987 365.691 118.533 365.9 117.97C366.109 117.408 366.213 116.798 366.213 116.142C366.213 115.486 366.109 114.874 365.9 114.308C365.691 113.741 365.37 113.283 364.935 112.933C364.5 112.584 363.946 112.409 363.273 112.409C362.6 112.409 362.046 112.584 361.611 112.933C361.176 113.283 360.855 113.741 360.646 114.308C360.437 114.874 360.333 115.486 360.333 116.142C360.333 116.798 360.437 117.408 360.646 117.97C360.855 118.533 361.176 118.987 361.611 119.332C362.046 119.677 362.6 119.849 363.273 119.849ZM378.037 111.182L374.407 121H372.873L369.242 111.182H370.878L373.589 119.006H373.691L376.401 111.182H378.037ZM382.955 121.23C382.333 121.23 381.768 121.113 381.261 120.879C380.754 120.64 380.351 120.297 380.053 119.849C379.755 119.398 379.606 118.852 379.606 118.213C379.606 117.651 379.716 117.195 379.938 116.845C380.159 116.491 380.456 116.214 380.826 116.014C381.197 115.814 381.606 115.665 382.054 115.567C382.505 115.464 382.959 115.384 383.415 115.324C384.012 115.247 384.495 115.19 384.866 115.151C385.241 115.109 385.514 115.038 385.684 114.94C385.859 114.842 385.946 114.672 385.946 114.429V114.378C385.946 113.747 385.774 113.257 385.429 112.908C385.088 112.558 384.57 112.384 383.875 112.384C383.155 112.384 382.591 112.541 382.181 112.857C381.772 113.172 381.485 113.509 381.319 113.866L379.887 113.355C380.142 112.759 380.483 112.294 380.909 111.962C381.34 111.625 381.809 111.391 382.316 111.259C382.827 111.122 383.33 111.054 383.824 111.054C384.14 111.054 384.502 111.092 384.911 111.169C385.324 111.241 385.723 111.393 386.106 111.623C386.494 111.853 386.816 112.2 387.071 112.665C387.327 113.129 387.455 113.751 387.455 114.531V121H385.946V119.67H385.87C385.767 119.884 385.597 120.112 385.358 120.354C385.12 120.597 384.802 120.804 384.406 120.974C384.01 121.145 383.526 121.23 382.955 121.23ZM383.185 119.875C383.782 119.875 384.284 119.758 384.694 119.523C385.107 119.289 385.418 118.987 385.627 118.616C385.84 118.245 385.946 117.855 385.946 117.446V116.065C385.882 116.142 385.742 116.212 385.525 116.276C385.311 116.336 385.064 116.389 384.783 116.436C384.506 116.479 384.235 116.517 383.971 116.551C383.711 116.581 383.5 116.607 383.338 116.628C382.946 116.679 382.58 116.762 382.239 116.877C381.902 116.988 381.63 117.156 381.421 117.382C381.216 117.604 381.114 117.906 381.114 118.29C381.114 118.814 381.308 119.21 381.696 119.479C382.088 119.743 382.584 119.875 383.185 119.875ZM390.749 121V107.909H392.257V112.741H392.385C392.496 112.571 392.649 112.354 392.845 112.089C393.046 111.821 393.331 111.582 393.702 111.374C394.077 111.161 394.584 111.054 395.223 111.054C396.05 111.054 396.779 111.261 397.409 111.674C398.04 112.087 398.532 112.673 398.886 113.432C399.24 114.19 399.416 115.085 399.416 116.116C399.416 117.156 399.24 118.058 398.886 118.82C398.532 119.579 398.042 120.167 397.416 120.585C396.789 120.998 396.067 121.205 395.249 121.205C394.618 121.205 394.113 121.1 393.734 120.891C393.355 120.678 393.063 120.437 392.858 120.169C392.654 119.896 392.496 119.67 392.385 119.491H392.206V121H390.749ZM392.232 116.091C392.232 116.832 392.34 117.487 392.558 118.053C392.775 118.616 393.093 119.057 393.51 119.376C393.928 119.692 394.439 119.849 395.044 119.849C395.675 119.849 396.201 119.683 396.623 119.351C397.049 119.014 397.369 118.562 397.582 117.996C397.799 117.425 397.908 116.79 397.908 116.091C397.908 115.401 397.801 114.778 397.588 114.224C397.38 113.666 397.062 113.225 396.636 112.901C396.214 112.573 395.684 112.409 395.044 112.409C394.431 112.409 393.915 112.565 393.497 112.876C393.08 113.183 392.764 113.613 392.551 114.167C392.338 114.717 392.232 115.358 392.232 116.091ZM403.569 107.909V121H402.06V107.909H403.569ZM410.784 121.205C409.838 121.205 409.022 120.996 408.336 120.578C407.654 120.156 407.128 119.568 406.757 118.814C406.39 118.055 406.207 117.173 406.207 116.168C406.207 115.162 406.39 114.276 406.757 113.509C407.128 112.737 407.643 112.136 408.304 111.706C408.969 111.271 409.744 111.054 410.631 111.054C411.142 111.054 411.647 111.139 412.145 111.31C412.644 111.48 413.098 111.757 413.507 112.141C413.916 112.52 414.242 113.023 414.485 113.649C414.728 114.276 414.849 115.047 414.849 115.963V116.602H407.281V115.298H413.315C413.315 114.744 413.204 114.25 412.983 113.815C412.765 113.381 412.454 113.038 412.05 112.786C411.649 112.535 411.176 112.409 410.631 112.409C410.03 112.409 409.51 112.558 409.071 112.857C408.636 113.151 408.302 113.534 408.067 114.007C407.833 114.48 407.716 114.987 407.716 115.528V116.398C407.716 117.139 407.844 117.768 408.099 118.283C408.359 118.795 408.719 119.185 409.18 119.453C409.64 119.717 410.175 119.849 410.784 119.849C411.18 119.849 411.538 119.794 411.858 119.683C412.182 119.568 412.461 119.398 412.695 119.172C412.93 118.942 413.111 118.656 413.239 118.315L414.696 118.724C414.542 119.219 414.285 119.653 413.922 120.028C413.56 120.399 413.113 120.689 412.58 120.898C412.047 121.102 411.449 121.205 410.784 121.205ZM418.579 121.102C418.264 121.102 417.994 120.989 417.768 120.763C417.542 120.538 417.429 120.267 417.429 119.952C417.429 119.636 417.542 119.366 417.768 119.14C417.994 118.914 418.264 118.801 418.579 118.801C418.895 118.801 419.165 118.914 419.391 119.14C419.617 119.366 419.73 119.636 419.73 119.952C419.73 120.161 419.677 120.352 419.57 120.527C419.468 120.702 419.329 120.842 419.155 120.949C418.984 121.051 418.793 121.102 418.579 121.102ZM432.416 121H428.376V107.909H432.595C433.865 107.909 434.951 108.171 435.855 108.695C436.758 109.215 437.451 109.963 437.932 110.939C438.414 111.911 438.655 113.074 438.655 114.429C438.655 115.793 438.412 116.967 437.926 117.951C437.44 118.931 436.733 119.685 435.804 120.214C434.875 120.738 433.745 121 432.416 121ZM429.961 119.594H432.314C433.396 119.594 434.293 119.385 435.005 118.967C435.716 118.55 436.247 117.955 436.596 117.184C436.946 116.413 437.12 115.494 437.12 114.429C437.12 113.372 436.948 112.462 436.603 111.7C436.258 110.933 435.742 110.344 435.056 109.935C434.37 109.522 433.515 109.315 432.493 109.315H429.961V119.594ZM441.445 121V111.182H442.902V112.665H443.005C443.184 112.179 443.508 111.785 443.976 111.482C444.445 111.18 444.973 111.028 445.562 111.028C445.672 111.028 445.811 111.031 445.977 111.035C446.143 111.039 446.269 111.045 446.354 111.054V112.588C446.303 112.575 446.186 112.556 446.003 112.531C445.824 112.501 445.634 112.486 445.434 112.486C444.956 112.486 444.53 112.586 444.155 112.786C443.785 112.982 443.491 113.255 443.273 113.604C443.06 113.95 442.954 114.344 442.954 114.787V121H441.445ZM451.368 121.23C450.745 121.23 450.181 121.113 449.674 120.879C449.167 120.64 448.764 120.297 448.466 119.849C448.167 119.398 448.018 118.852 448.018 118.213C448.018 117.651 448.129 117.195 448.35 116.845C448.572 116.491 448.868 116.214 449.239 116.014C449.61 115.814 450.019 115.665 450.466 115.567C450.918 115.464 451.372 115.384 451.828 115.324C452.424 115.247 452.908 115.19 453.279 115.151C453.654 115.109 453.926 115.038 454.097 114.94C454.272 114.842 454.359 114.672 454.359 114.429V114.378C454.359 113.747 454.186 113.257 453.841 112.908C453.5 112.558 452.983 112.384 452.288 112.384C451.568 112.384 451.003 112.541 450.594 112.857C450.185 113.172 449.897 113.509 449.731 113.866L448.299 113.355C448.555 112.759 448.896 112.294 449.322 111.962C449.752 111.625 450.221 111.391 450.728 111.259C451.24 111.122 451.743 111.054 452.237 111.054C452.552 111.054 452.914 111.092 453.324 111.169C453.737 111.241 454.135 111.393 454.519 111.623C454.907 111.853 455.228 112.2 455.484 112.665C455.74 113.129 455.868 113.751 455.868 114.531V121H454.359V119.67H454.282C454.18 119.884 454.01 120.112 453.771 120.354C453.532 120.597 453.215 120.804 452.819 120.974C452.422 121.145 451.939 121.23 451.368 121.23ZM451.598 119.875C452.194 119.875 452.697 119.758 453.106 119.523C453.52 119.289 453.831 118.987 454.039 118.616C454.252 118.245 454.359 117.855 454.359 117.446V116.065C454.295 116.142 454.154 116.212 453.937 116.276C453.724 116.336 453.477 116.389 453.196 116.436C452.919 116.479 452.648 116.517 452.384 116.551C452.124 116.581 451.913 116.607 451.751 116.628C451.359 116.679 450.993 116.762 450.652 116.877C450.315 116.988 450.042 117.156 449.833 117.382C449.629 117.604 449.527 117.906 449.527 118.29C449.527 118.814 449.721 119.21 450.108 119.479C450.5 119.743 450.997 119.875 451.598 119.875ZM461.181 121L458.19 111.182H459.775L461.897 118.699H462L464.096 111.182H465.707L467.778 118.673H467.88L470.002 111.182H471.588L468.596 121H467.113L464.965 113.457H464.812L462.664 121H461.181ZM476.807 121.23C476.185 121.23 475.62 121.113 475.113 120.879C474.606 120.64 474.203 120.297 473.905 119.849C473.607 119.398 473.458 118.852 473.458 118.213C473.458 117.651 473.568 117.195 473.79 116.845C474.012 116.491 474.308 116.214 474.679 116.014C475.049 115.814 475.458 115.665 475.906 115.567C476.358 115.464 476.811 115.384 477.267 115.324C477.864 115.247 478.348 115.19 478.718 115.151C479.093 115.109 479.366 115.038 479.537 114.94C479.711 114.842 479.799 114.672 479.799 114.429V114.378C479.799 113.747 479.626 113.257 479.281 112.908C478.94 112.558 478.422 112.384 477.728 112.384C477.007 112.384 476.443 112.541 476.034 112.857C475.625 113.172 475.337 113.509 475.171 113.866L473.739 113.355C473.995 112.759 474.336 112.294 474.762 111.962C475.192 111.625 475.661 111.391 476.168 111.259C476.679 111.122 477.182 111.054 477.676 111.054C477.992 111.054 478.354 111.092 478.763 111.169C479.176 111.241 479.575 111.393 479.958 111.623C480.346 111.853 480.668 112.2 480.924 112.665C481.179 113.129 481.307 113.751 481.307 114.531V121H479.799V119.67H479.722C479.62 119.884 479.449 120.112 479.211 120.354C478.972 120.597 478.654 120.804 478.258 120.974C477.862 121.145 477.378 121.23 476.807 121.23ZM477.037 119.875C477.634 119.875 478.137 119.758 478.546 119.523C478.959 119.289 479.27 118.987 479.479 118.616C479.692 118.245 479.799 117.855 479.799 117.446V116.065C479.735 116.142 479.594 116.212 479.377 116.276C479.164 116.336 478.916 116.389 478.635 116.436C478.358 116.479 478.088 116.517 477.823 116.551C477.564 116.581 477.353 116.607 477.191 116.628C476.799 116.679 476.432 116.762 476.091 116.877C475.755 116.988 475.482 117.156 475.273 117.382C475.068 117.604 474.966 117.906 474.966 118.29C474.966 118.814 475.16 119.21 475.548 119.479C475.94 119.743 476.436 119.875 477.037 119.875ZM484.601 121V107.909H486.11V112.741H486.237C486.348 112.571 486.502 112.354 486.698 112.089C486.898 111.821 487.183 111.582 487.554 111.374C487.929 111.161 488.436 111.054 489.075 111.054C489.902 111.054 490.631 111.261 491.262 111.674C491.892 112.087 492.384 112.673 492.738 113.432C493.092 114.19 493.269 115.085 493.269 116.116C493.269 117.156 493.092 118.058 492.738 118.82C492.384 119.579 491.894 120.167 491.268 120.585C490.642 120.998 489.919 121.205 489.101 121.205C488.47 121.205 487.965 121.1 487.586 120.891C487.207 120.678 486.915 120.437 486.71 120.169C486.506 119.896 486.348 119.67 486.237 119.491H486.058V121H484.601ZM486.084 116.091C486.084 116.832 486.193 117.487 486.41 118.053C486.627 118.616 486.945 119.057 487.362 119.376C487.78 119.692 488.291 119.849 488.896 119.849C489.527 119.849 490.053 119.683 490.475 119.351C490.901 119.014 491.221 118.562 491.434 117.996C491.651 117.425 491.76 116.79 491.76 116.091C491.76 115.401 491.654 114.778 491.441 114.224C491.232 113.666 490.914 113.225 490.488 112.901C490.066 112.573 489.536 112.409 488.896 112.409C488.283 112.409 487.767 112.565 487.35 112.876C486.932 113.183 486.617 113.613 486.404 114.167C486.191 114.717 486.084 115.358 486.084 116.091ZM497.421 107.909V121H495.912V107.909H497.421ZM504.636 121.205C503.69 121.205 502.874 120.996 502.188 120.578C501.506 120.156 500.98 119.568 500.609 118.814C500.243 118.055 500.059 117.173 500.059 116.168C500.059 115.162 500.243 114.276 500.609 113.509C500.98 112.737 501.496 112.136 502.156 111.706C502.821 111.271 503.596 111.054 504.483 111.054C504.994 111.054 505.499 111.139 505.998 111.31C506.496 111.48 506.95 111.757 507.359 112.141C507.768 112.52 508.094 113.023 508.337 113.649C508.58 114.276 508.701 115.047 508.701 115.963V116.602H501.133V115.298H507.167C507.167 114.744 507.057 114.25 506.835 113.815C506.618 113.381 506.307 113.038 505.902 112.786C505.501 112.535 505.028 112.409 504.483 112.409C503.882 112.409 503.362 112.558 502.923 112.857C502.488 113.151 502.154 113.534 501.92 114.007C501.685 114.48 501.568 114.987 501.568 115.528V116.398C501.568 117.139 501.696 117.768 501.951 118.283C502.211 118.795 502.572 119.185 503.032 119.453C503.492 119.717 504.027 119.849 504.636 119.849C505.032 119.849 505.39 119.794 505.71 119.683C506.034 119.568 506.313 119.398 506.547 119.172C506.782 118.942 506.963 118.656 507.091 118.315L508.548 118.724C508.395 119.219 508.137 119.653 507.775 120.028C507.412 120.399 506.965 120.689 506.432 120.898C505.9 121.102 505.301 121.205 504.636 121.205ZM512.432 121.102C512.116 121.102 511.846 120.989 511.62 120.763C511.394 120.538 511.281 120.267 511.281 119.952C511.281 119.636 511.394 119.366 511.62 119.14C511.846 118.914 512.116 118.801 512.432 118.801C512.747 118.801 513.018 118.914 513.243 119.14C513.469 119.366 513.582 119.636 513.582 119.952C513.582 120.161 513.529 120.352 513.422 120.527C513.32 120.702 513.182 120.842 513.007 120.949C512.836 121.051 512.645 121.102 512.432 121.102ZM522.228 107.909H524.12L528.569 118.776H528.723L533.171 107.909H535.064V121H533.581V111.054H533.453L529.362 121H527.93L523.839 111.054H523.711V121H522.228V107.909ZM541.263 121.23C540.64 121.23 540.076 121.113 539.569 120.879C539.062 120.64 538.659 120.297 538.361 119.849C538.062 119.398 537.913 118.852 537.913 118.213C537.913 117.651 538.024 117.195 538.246 116.845C538.467 116.491 538.763 116.214 539.134 116.014C539.505 115.814 539.914 115.665 540.361 115.567C540.813 115.464 541.267 115.384 541.723 115.324C542.319 115.247 542.803 115.19 543.174 115.151C543.549 115.109 543.822 115.038 543.992 114.94C544.167 114.842 544.254 114.672 544.254 114.429V114.378C544.254 113.747 544.082 113.257 543.736 112.908C543.395 112.558 542.878 112.384 542.183 112.384C541.463 112.384 540.898 112.541 540.489 112.857C540.08 113.172 539.792 113.509 539.626 113.866L538.194 113.355C538.45 112.759 538.791 112.294 539.217 111.962C539.648 111.625 540.116 111.391 540.623 111.259C541.135 111.122 541.638 111.054 542.132 111.054C542.447 111.054 542.81 111.092 543.219 111.169C543.632 111.241 544.03 111.393 544.414 111.623C544.802 111.853 545.123 112.2 545.379 112.665C545.635 113.129 545.763 113.751 545.763 114.531V121H544.254V119.67H544.177C544.075 119.884 543.905 120.112 543.666 120.354C543.427 120.597 543.11 120.804 542.714 120.974C542.317 121.145 541.834 121.23 541.263 121.23ZM541.493 119.875C542.089 119.875 542.592 119.758 543.001 119.523C543.415 119.289 543.726 118.987 543.935 118.616C544.148 118.245 544.254 117.855 544.254 117.446V116.065C544.19 116.142 544.05 116.212 543.832 116.276C543.619 116.336 543.372 116.389 543.091 116.436C542.814 116.479 542.543 116.517 542.279 116.551C542.019 116.581 541.808 116.607 541.646 116.628C541.254 116.679 540.888 116.762 540.547 116.877C540.21 116.988 539.937 117.156 539.729 117.382C539.524 117.604 539.422 117.906 539.422 118.29C539.422 118.814 539.616 119.21 540.003 119.479C540.395 119.743 540.892 119.875 541.493 119.875ZM552.815 124.886C552.086 124.886 551.46 124.793 550.936 124.605C550.412 124.422 549.975 124.179 549.625 123.876C549.28 123.578 549.005 123.259 548.801 122.918L550.003 122.074C550.139 122.253 550.312 122.457 550.52 122.688C550.729 122.922 551.015 123.124 551.377 123.295C551.743 123.469 552.223 123.557 552.815 123.557C553.608 123.557 554.262 123.365 554.777 122.982C555.293 122.598 555.551 121.997 555.551 121.179V119.185H555.423C555.312 119.364 555.155 119.585 554.95 119.849C554.75 120.109 554.46 120.342 554.081 120.546C553.706 120.746 553.199 120.847 552.559 120.847C551.767 120.847 551.055 120.659 550.424 120.284C549.798 119.909 549.302 119.364 548.935 118.648C548.573 117.932 548.392 117.062 548.392 116.04C548.392 115.034 548.569 114.158 548.922 113.413C549.276 112.663 549.768 112.083 550.399 111.674C551.03 111.261 551.758 111.054 552.585 111.054C553.224 111.054 553.731 111.161 554.106 111.374C554.486 111.582 554.775 111.821 554.976 112.089C555.18 112.354 555.338 112.571 555.449 112.741H555.602V111.182H557.059V121.281C557.059 122.125 556.868 122.811 556.484 123.339C556.105 123.872 555.593 124.262 554.95 124.509C554.311 124.761 553.599 124.886 552.815 124.886ZM552.764 119.491C553.369 119.491 553.88 119.353 554.298 119.076C554.716 118.799 555.033 118.401 555.25 117.881C555.468 117.361 555.576 116.739 555.576 116.014C555.576 115.307 555.47 114.683 555.257 114.141C555.044 113.6 554.728 113.176 554.311 112.869C553.893 112.562 553.378 112.409 552.764 112.409C552.125 112.409 551.592 112.571 551.166 112.895C550.744 113.219 550.427 113.653 550.214 114.199C550.005 114.744 549.9 115.349 549.9 116.014C549.9 116.696 550.007 117.299 550.22 117.823C550.437 118.343 550.757 118.752 551.179 119.05C551.605 119.344 552.133 119.491 552.764 119.491ZM560.157 121V111.182H561.665V121H560.157ZM560.924 109.545C560.63 109.545 560.376 109.445 560.163 109.245C559.954 109.045 559.85 108.804 559.85 108.523C559.85 108.241 559.954 108.001 560.163 107.8C560.376 107.6 560.63 107.5 560.924 107.5C561.218 107.5 561.469 107.6 561.678 107.8C561.891 108.001 561.998 108.241 561.998 108.523C561.998 108.804 561.891 109.045 561.678 109.245C561.469 109.445 561.218 109.545 560.924 109.545ZM568.753 121.205C567.832 121.205 567.04 120.987 566.375 120.553C565.71 120.118 565.199 119.519 564.841 118.756C564.483 117.994 564.304 117.122 564.304 116.142C564.304 115.145 564.487 114.265 564.854 113.502C565.224 112.735 565.74 112.136 566.401 111.706C567.065 111.271 567.841 111.054 568.727 111.054C569.418 111.054 570.04 111.182 570.594 111.438C571.148 111.693 571.602 112.051 571.955 112.511C572.309 112.972 572.528 113.509 572.614 114.122H571.105C570.99 113.675 570.734 113.278 570.338 112.933C569.946 112.584 569.418 112.409 568.753 112.409C568.165 112.409 567.649 112.562 567.206 112.869C566.767 113.172 566.424 113.6 566.177 114.154C565.934 114.704 565.813 115.349 565.813 116.091C565.813 116.849 565.932 117.51 566.17 118.072C566.413 118.635 566.754 119.072 567.193 119.383C567.636 119.694 568.156 119.849 568.753 119.849C569.145 119.849 569.501 119.781 569.82 119.645C570.14 119.509 570.411 119.312 570.632 119.057C570.854 118.801 571.011 118.494 571.105 118.136H572.614C572.528 118.716 572.318 119.238 571.981 119.702C571.648 120.163 571.207 120.529 570.658 120.802C570.112 121.07 569.477 121.205 568.753 121.205ZM578.044 121.23C577.422 121.23 576.857 121.113 576.35 120.879C575.843 120.64 575.44 120.297 575.142 119.849C574.844 119.398 574.695 118.852 574.695 118.213C574.695 117.651 574.805 117.195 575.027 116.845C575.249 116.491 575.545 116.214 575.916 116.014C576.286 115.814 576.695 115.665 577.143 115.567C577.595 115.464 578.048 115.384 578.504 115.324C579.101 115.247 579.585 115.19 579.955 115.151C580.33 115.109 580.603 115.038 580.774 114.94C580.948 114.842 581.036 114.672 581.036 114.429V114.378C581.036 113.747 580.863 113.257 580.518 112.908C580.177 112.558 579.659 112.384 578.965 112.384C578.244 112.384 577.68 112.541 577.271 112.857C576.862 113.172 576.574 113.509 576.408 113.866L574.976 113.355C575.232 112.759 575.573 112.294 575.999 111.962C576.429 111.625 576.898 111.391 577.405 111.259C577.916 111.122 578.419 111.054 578.913 111.054C579.229 111.054 579.591 111.092 580 111.169C580.413 111.241 580.812 111.393 581.195 111.623C581.583 111.853 581.905 112.2 582.161 112.665C582.416 113.129 582.544 113.751 582.544 114.531V121H581.036V119.67H580.959C580.857 119.884 580.686 120.112 580.448 120.354C580.209 120.597 579.891 120.804 579.495 120.974C579.099 121.145 578.615 121.23 578.044 121.23ZM578.274 119.875C578.871 119.875 579.374 119.758 579.783 119.523C580.196 119.289 580.507 118.987 580.716 118.616C580.929 118.245 581.036 117.855 581.036 117.446V116.065C580.972 116.142 580.831 116.212 580.614 116.276C580.401 116.336 580.154 116.389 579.872 116.436C579.595 116.479 579.325 116.517 579.06 116.551C578.801 116.581 578.59 116.607 578.428 116.628C578.036 116.679 577.669 116.762 577.328 116.877C576.992 116.988 576.719 117.156 576.51 117.382C576.305 117.604 576.203 117.906 576.203 118.29C576.203 118.814 576.397 119.21 576.785 119.479C577.177 119.743 577.673 119.875 578.274 119.875ZM587.142 107.909V121H585.634V107.909H587.142ZM591.34 121.102C591.025 121.102 590.754 120.989 590.529 120.763C590.303 120.538 590.19 120.267 590.19 119.952C590.19 119.636 590.303 119.366 590.529 119.14C590.754 118.914 591.025 118.801 591.34 118.801C591.656 118.801 591.926 118.914 592.152 119.14C592.378 119.366 592.491 119.636 592.491 119.952C592.491 120.161 592.438 120.352 592.331 120.527C592.229 120.702 592.09 120.842 591.916 120.949C591.745 121.051 591.553 121.102 591.34 121.102Z" fill="#1D1D1F"/>
<path d="M425.315 189V177.364H426.724V187.75H432.133V189H425.315ZM437.418 189.182C436.578 189.182 435.852 188.996 435.242 188.625C434.636 188.25 434.168 187.727 433.839 187.057C433.513 186.383 433.35 185.598 433.35 184.705C433.35 183.811 433.513 183.023 433.839 182.341C434.168 181.655 434.627 181.121 435.214 180.739C435.805 180.352 436.494 180.159 437.282 180.159C437.737 180.159 438.186 180.235 438.629 180.386C439.072 180.538 439.475 180.784 439.839 181.125C440.203 181.462 440.492 181.909 440.708 182.466C440.924 183.023 441.032 183.708 441.032 184.523V185.091H434.305V183.932H439.668C439.668 183.439 439.57 183 439.373 182.614C439.18 182.227 438.903 181.922 438.543 181.699C438.187 181.475 437.767 181.364 437.282 181.364C436.748 181.364 436.286 181.496 435.896 181.761C435.509 182.023 435.212 182.364 435.004 182.784C434.795 183.205 434.691 183.655 434.691 184.136V184.909C434.691 185.568 434.805 186.127 435.032 186.585C435.263 187.04 435.583 187.386 435.992 187.625C436.401 187.86 436.877 187.977 437.418 187.977C437.771 187.977 438.089 187.928 438.373 187.83C438.661 187.727 438.909 187.576 439.117 187.375C439.326 187.17 439.487 186.917 439.6 186.614L440.896 186.977C440.759 187.417 440.53 187.803 440.208 188.136C439.886 188.466 439.489 188.723 439.015 188.909C438.542 189.091 438.009 189.182 437.418 189.182ZM445.266 189.205C444.713 189.205 444.211 189.1 443.76 188.892C443.31 188.68 442.952 188.375 442.687 187.977C442.421 187.576 442.289 187.091 442.289 186.523C442.289 186.023 442.387 185.617 442.584 185.307C442.781 184.992 443.044 184.746 443.374 184.568C443.704 184.39 444.067 184.258 444.465 184.17C444.866 184.08 445.27 184.008 445.675 183.955C446.205 183.886 446.635 183.835 446.965 183.801C447.298 183.763 447.541 183.701 447.692 183.614C447.848 183.527 447.925 183.375 447.925 183.159V183.114C447.925 182.553 447.772 182.117 447.465 181.807C447.162 181.496 446.702 181.341 446.084 181.341C445.444 181.341 444.942 181.481 444.579 181.761C444.215 182.042 443.959 182.341 443.812 182.659L442.539 182.205C442.766 181.674 443.069 181.261 443.448 180.966C443.83 180.667 444.247 180.458 444.698 180.341C445.152 180.22 445.599 180.159 446.039 180.159C446.319 180.159 446.641 180.193 447.005 180.261C447.372 180.326 447.726 180.46 448.067 180.665C448.412 180.869 448.698 181.178 448.925 181.591C449.152 182.004 449.266 182.557 449.266 183.25V189H447.925V187.818H447.857C447.766 188.008 447.615 188.21 447.402 188.426C447.19 188.642 446.908 188.826 446.556 188.977C446.204 189.129 445.774 189.205 445.266 189.205ZM445.471 188C446.001 188 446.448 187.896 446.812 187.688C447.179 187.479 447.455 187.21 447.641 186.881C447.83 186.551 447.925 186.205 447.925 185.841V184.614C447.868 184.682 447.743 184.744 447.55 184.801C447.361 184.854 447.141 184.902 446.891 184.943C446.645 184.981 446.404 185.015 446.169 185.045C445.938 185.072 445.751 185.095 445.607 185.114C445.258 185.159 444.933 185.233 444.63 185.335C444.33 185.434 444.088 185.583 443.902 185.784C443.721 185.981 443.63 186.25 443.63 186.591C443.63 187.057 443.802 187.409 444.147 187.648C444.495 187.883 444.937 188 445.471 188ZM451.34 189V180.273H452.635V181.591H452.726C452.885 181.159 453.173 180.809 453.59 180.54C454.006 180.271 454.476 180.136 454.999 180.136C455.097 180.136 455.22 180.138 455.368 180.142C455.516 180.146 455.627 180.152 455.703 180.159V181.523C455.658 181.511 455.554 181.494 455.391 181.472C455.232 181.445 455.063 181.432 454.885 181.432C454.461 181.432 454.082 181.521 453.749 181.699C453.419 181.873 453.158 182.116 452.965 182.426C452.775 182.733 452.68 183.083 452.68 183.477V189H451.34ZM458.26 183.75V189H456.919V180.273H458.214V181.636H458.328C458.532 181.193 458.843 180.837 459.26 180.568C459.676 180.295 460.214 180.159 460.873 180.159C461.464 180.159 461.981 180.28 462.424 180.523C462.867 180.761 463.212 181.125 463.458 181.614C463.705 182.098 463.828 182.712 463.828 183.455V189H462.487V183.545C462.487 182.86 462.309 182.326 461.953 181.943C461.597 181.557 461.108 181.364 460.487 181.364C460.059 181.364 459.676 181.456 459.339 181.642C459.006 181.828 458.742 182.098 458.549 182.455C458.356 182.811 458.26 183.242 458.26 183.75ZM470.03 189V180.273H471.325V181.636H471.439C471.621 181.17 471.914 180.809 472.32 180.551C472.725 180.29 473.212 180.159 473.78 180.159C474.356 180.159 474.835 180.29 475.218 180.551C475.604 180.809 475.905 181.17 476.121 181.636H476.212C476.435 181.186 476.771 180.828 477.218 180.562C477.664 180.294 478.2 180.159 478.825 180.159C479.606 180.159 480.244 180.403 480.74 180.892C481.236 181.377 481.485 182.133 481.485 183.159V189H480.144V183.159C480.144 182.515 479.968 182.055 479.615 181.778C479.263 181.502 478.848 181.364 478.371 181.364C477.757 181.364 477.282 181.549 476.945 181.92C476.608 182.288 476.439 182.754 476.439 183.318V189H475.075V183.023C475.075 182.527 474.914 182.127 474.593 181.824C474.271 181.517 473.856 181.364 473.348 181.364C473 181.364 472.674 181.456 472.371 181.642C472.072 181.828 471.829 182.085 471.644 182.415C471.462 182.741 471.371 183.117 471.371 183.545V189H470.03ZM487.108 189.182C486.32 189.182 485.629 188.994 485.034 188.619C484.443 188.244 483.981 187.72 483.647 187.045C483.318 186.371 483.153 185.583 483.153 184.682C483.153 183.773 483.318 182.979 483.647 182.301C483.981 181.623 484.443 181.097 485.034 180.722C485.629 180.347 486.32 180.159 487.108 180.159C487.896 180.159 488.585 180.347 489.176 180.722C489.771 181.097 490.233 181.623 490.562 182.301C490.896 182.979 491.062 183.773 491.062 184.682C491.062 185.583 490.896 186.371 490.562 187.045C490.233 187.72 489.771 188.244 489.176 188.619C488.585 188.994 487.896 189.182 487.108 189.182ZM487.108 187.977C487.706 187.977 488.199 187.824 488.585 187.517C488.971 187.21 489.257 186.807 489.443 186.307C489.629 185.807 489.721 185.265 489.721 184.682C489.721 184.098 489.629 183.555 489.443 183.051C489.257 182.547 488.971 182.14 488.585 181.83C488.199 181.519 487.706 181.364 487.108 181.364C486.509 181.364 486.017 181.519 485.63 181.83C485.244 182.14 484.958 182.547 484.772 183.051C484.587 183.555 484.494 184.098 484.494 184.682C484.494 185.265 484.587 185.807 484.772 186.307C484.958 186.807 485.244 187.21 485.63 187.517C486.017 187.824 486.509 187.977 487.108 187.977ZM492.735 189V180.273H494.031V181.591H494.122C494.281 181.159 494.568 180.809 494.985 180.54C495.402 180.271 495.872 180.136 496.394 180.136C496.493 180.136 496.616 180.138 496.764 180.142C496.911 180.146 497.023 180.152 497.099 180.159V181.523C497.053 181.511 496.949 181.494 496.786 181.472C496.627 181.445 496.459 181.432 496.281 181.432C495.856 181.432 495.478 181.521 495.144 181.699C494.815 181.873 494.553 182.116 494.36 182.426C494.171 182.733 494.076 183.083 494.076 183.477V189H492.735ZM501.708 189.182C500.867 189.182 500.141 188.996 499.532 188.625C498.926 188.25 498.458 187.727 498.128 187.057C497.802 186.383 497.64 185.598 497.64 184.705C497.64 183.811 497.802 183.023 498.128 182.341C498.458 181.655 498.916 181.121 499.503 180.739C500.094 180.352 500.783 180.159 501.571 180.159C502.026 180.159 502.475 180.235 502.918 180.386C503.361 180.538 503.765 180.784 504.128 181.125C504.492 181.462 504.782 181.909 504.998 182.466C505.213 183.023 505.321 183.708 505.321 184.523V185.091H498.594V183.932H503.958C503.958 183.439 503.859 183 503.662 182.614C503.469 182.227 503.193 181.922 502.833 181.699C502.477 181.475 502.056 181.364 501.571 181.364C501.037 181.364 500.575 181.496 500.185 181.761C499.799 182.023 499.501 182.364 499.293 182.784C499.085 183.205 498.98 183.655 498.98 184.136V184.909C498.98 185.568 499.094 186.127 499.321 186.585C499.552 187.04 499.873 187.386 500.282 187.625C500.691 187.86 501.166 187.977 501.708 187.977C502.06 187.977 502.378 187.928 502.662 187.83C502.95 187.727 503.198 187.576 503.407 187.375C503.615 187.17 503.776 186.917 503.89 186.614L505.185 186.977C505.049 187.417 504.819 187.803 504.498 188.136C504.176 188.466 503.778 188.723 503.304 188.909C502.831 189.091 502.299 189.182 501.708 189.182Z" fill="#0066CC"/>
<g clip-path="url(#clip0_2_96)">
<path d="M513.946 189.875C513.776 189.875 513.631 189.817 513.511 189.699C513.39 189.581 513.33 189.438 513.33 189.268C513.33 189.098 513.393 188.951 513.519 188.825L516.835 185.516L513.519 182.208C513.393 182.082 513.33 181.934 513.33 181.765C513.33 181.595 513.39 181.451 513.511 181.334C513.631 181.216 513.776 181.157 513.946 181.157C514.104 181.157 514.247 181.215 514.373 181.33L518.116 185.057C518.247 185.177 518.313 185.33 518.313 185.516C518.313 185.691 518.247 185.845 518.116 185.976L514.373 189.703C514.258 189.818 514.115 189.875 513.946 189.875Z" fill="#0066CC"/>
</g>
<defs>
<clipPath id="clip0_2_96">
<rect width="7.13" height="21" fill="white" transform="matrix(1 0 0 -1 513.33 196)"/>
</clipPath>
</defs>
</svg>
