<svg width="70" height="77" viewBox="0 0 70 77" fill="none" xmlns="http://www.w3.org/2000/svg">
<g clip-path="url(#clip0_2_1466)">
<path d="M35.1011 2.05591H35.0591C34.7333 2.05696 34.4211 2.18692 34.1909 2.41739C33.9606 2.64786 33.8309 2.96011 33.8301 3.28591V44.5619C33.8698 45.063 33.9399 45.5613 34.0401 46.0539C34.1581 46.6359 34.4111 47.8359 34.4111 47.8359L34.8361 49.7999C34.848 49.8559 34.8788 49.9061 34.9233 49.9421C34.9678 49.9781 35.0233 49.9978 35.0806 49.9978C35.1378 49.9978 35.1933 49.9781 35.2378 49.9421C35.2823 49.9061 35.3131 49.8559 35.3251 49.7999L35.7441 47.8409C35.7441 47.8409 35.9971 46.6409 36.1151 46.0589C36.2148 45.5635 36.2846 45.0626 36.3241 44.5589V3.28591C36.3233 2.96114 36.1944 2.6498 35.9654 2.4195C35.7364 2.1892 35.4258 2.05854 35.1011 2.05591Z" fill="#1D1D1F"/>
</g>
<path d="M2.20954 73H1.10158L4.30613 64.2727H5.39704L8.60158 73H7.49363L4.88567 65.6534H4.81749L2.20954 73ZM2.61863 69.5909H7.08454V70.5284H2.61863V69.5909ZM9.7046 75.4545V66.4545H10.6762V67.4943H10.7955C10.8694 67.3807 10.9716 67.2358 11.1023 67.0597C11.2358 66.8807 11.4262 66.7216 11.6733 66.5824C11.9233 66.4403 12.2614 66.3693 12.6875 66.3693C13.2387 66.3693 13.7245 66.5071 14.1449 66.7827C14.5654 67.0582 14.8935 67.4489 15.1293 67.9545C15.3651 68.4602 15.483 69.0568 15.483 69.7443C15.483 70.4375 15.3651 71.0384 15.1293 71.5469C14.8935 72.0526 14.5668 72.4446 14.1492 72.723C13.7316 72.9986 13.25 73.1364 12.7046 73.1364C12.2841 73.1364 11.9475 73.0668 11.6947 72.9276C11.4418 72.7855 11.2472 72.625 11.1108 72.446C10.9745 72.2642 10.8694 72.1136 10.7955 71.9943H10.7103V75.4545H9.7046ZM10.6932 69.7273C10.6932 70.2216 10.7657 70.6577 10.9106 71.0355C11.0554 71.4105 11.2671 71.7045 11.5455 71.9176C11.8239 72.1278 12.1648 72.233 12.5682 72.233C12.9887 72.233 13.3395 72.1222 13.6208 71.9006C13.9049 71.6761 14.1179 71.375 14.26 70.9972C14.4049 70.6165 14.4773 70.1932 14.4773 69.7273C14.4773 69.267 14.4063 68.8523 14.2643 68.483C14.125 68.1108 13.9134 67.8168 13.6293 67.6009C13.3481 67.3821 12.9944 67.2727 12.5682 67.2727C12.1591 67.2727 11.8154 67.3764 11.537 67.5838C11.2586 67.7884 11.0483 68.0753 10.9063 68.4446C10.7643 68.8111 10.6932 69.2386 10.6932 69.7273ZM16.8971 75.4545V66.4545H17.8687V67.4943H17.988C18.0619 67.3807 18.1641 67.2358 18.2948 67.0597C18.4283 66.8807 18.6187 66.7216 18.8658 66.5824C19.1158 66.4403 19.4539 66.3693 19.88 66.3693C20.4312 66.3693 20.917 66.5071 21.3374 66.7827C21.7579 67.0582 22.086 67.4489 22.3218 67.9545C22.5576 68.4602 22.6755 69.0568 22.6755 69.7443C22.6755 70.4375 22.5576 71.0384 22.3218 71.5469C22.086 72.0526 21.7593 72.4446 21.3417 72.723C20.9241 72.9986 20.4425 73.1364 19.8971 73.1364C19.4766 73.1364 19.14 73.0668 18.8872 72.9276C18.6343 72.7855 18.4397 72.625 18.3033 72.446C18.167 72.2642 18.0619 72.1136 17.988 71.9943H17.9028V75.4545H16.8971ZM17.8857 69.7273C17.8857 70.2216 17.9582 70.6577 18.1031 71.0355C18.2479 71.4105 18.4596 71.7045 18.738 71.9176C19.0164 72.1278 19.3573 72.233 19.7607 72.233C20.1812 72.233 20.532 72.1222 20.8133 71.9006C21.0974 71.6761 21.3104 71.375 21.4525 70.9972C21.5974 70.6165 21.6698 70.1932 21.6698 69.7273C21.6698 69.267 21.5988 68.8523 21.4568 68.483C21.3176 68.1108 21.1059 67.8168 20.8218 67.6009C20.5406 67.3821 20.1869 67.2727 19.7607 67.2727C19.3516 67.2727 19.0079 67.3764 18.7295 67.5838C18.4511 67.7884 18.2408 68.0753 18.0988 68.4446C17.9568 68.8111 17.8857 69.2386 17.8857 69.7273ZM25.0953 64.2727V73H24.0896V64.2727H25.0953ZM29.5616 73.1364C28.9309 73.1364 28.3869 72.9972 27.9295 72.7188C27.4749 72.4375 27.1241 72.0455 26.8769 71.5426C26.6326 71.0369 26.5104 70.4489 26.5104 69.7784C26.5104 69.108 26.6326 68.517 26.8769 68.0057C27.1241 67.4915 27.4678 67.0909 27.9082 66.804C28.3513 66.5142 28.8684 66.3693 29.4593 66.3693C29.8002 66.3693 30.1369 66.4261 30.4692 66.5398C30.8016 66.6534 31.1042 66.8381 31.3769 67.0938C31.6496 67.3466 31.867 67.6818 32.0289 68.0994C32.1908 68.517 32.2718 69.0312 32.2718 69.642V70.0682H27.2263V69.1989H31.2491C31.2491 68.8295 31.1752 68.5 31.0275 68.2102C30.8826 67.9205 30.6752 67.6918 30.4053 67.5241C30.1383 67.3565 29.8229 67.2727 29.4593 67.2727C29.0587 67.2727 28.7121 67.3722 28.4195 67.571C28.1298 67.767 27.9067 68.0227 27.7505 68.3381C27.5942 68.6534 27.5161 68.9915 27.5161 69.3523V69.9318C27.5161 70.4261 27.6013 70.8452 27.7718 71.1889C27.9451 71.5298 28.1851 71.7898 28.492 71.9688C28.7988 72.1449 29.1553 72.233 29.5616 72.233C29.8258 72.233 30.0644 72.196 30.2775 72.1222C30.4934 72.0455 30.6795 71.9318 30.8357 71.7812C30.992 71.6278 31.1127 71.4375 31.1979 71.2102L32.1695 71.483C32.0673 71.8125 31.8954 72.1023 31.6539 72.3523C31.4124 72.5994 31.1141 72.7926 30.759 72.9318C30.4039 73.0682 30.0048 73.1364 29.5616 73.1364ZM37.073 73V64.2727H40.0219C40.7065 64.2727 41.2662 64.3963 41.7008 64.6435C42.1383 64.8878 42.4622 65.2188 42.6724 65.6364C42.8826 66.054 42.9878 66.5199 42.9878 67.0341C42.9878 67.5483 42.8826 68.0156 42.6724 68.4361C42.465 68.8565 42.144 69.1918 41.7094 69.4418C41.2747 69.6889 40.7179 69.8125 40.0389 69.8125H37.9253V68.875H40.0048C40.4736 68.875 40.85 68.794 41.1341 68.6321C41.4182 68.4702 41.6241 68.2514 41.752 67.9759C41.8826 67.6974 41.948 67.3835 41.948 67.0341C41.948 66.6847 41.8826 66.3722 41.752 66.0966C41.6241 65.821 41.4167 65.6051 41.1298 65.4489C40.8429 65.2898 40.4622 65.2102 39.9878 65.2102H38.1298V73H37.073ZM47.1078 73.1364C46.4771 73.1364 45.9331 72.9972 45.4757 72.7188C45.0212 72.4375 44.6703 72.0455 44.4232 71.5426C44.1788 71.0369 44.0567 70.4489 44.0567 69.7784C44.0567 69.108 44.1788 68.517 44.4232 68.0057C44.6703 67.4915 45.0141 67.0909 45.4544 66.804C45.8976 66.5142 46.4146 66.3693 47.0055 66.3693C47.3465 66.3693 47.6831 66.4261 48.0155 66.5398C48.3479 66.6534 48.6504 66.8381 48.9232 67.0938C49.1959 67.3466 49.4132 67.6818 49.5751 68.0994C49.7371 68.517 49.818 69.0312 49.818 69.642V70.0682H44.7726V69.1989H48.7953C48.7953 68.8295 48.7215 68.5 48.5737 68.2102C48.4288 67.9205 48.2215 67.6918 47.9516 67.5241C47.6845 67.3565 47.3692 67.2727 47.0055 67.2727C46.605 67.2727 46.2584 67.3722 45.9658 67.571C45.676 67.767 45.453 68.0227 45.2967 68.3381C45.1405 68.6534 45.0624 68.9915 45.0624 69.3523V69.9318C45.0624 70.4261 45.1476 70.8452 45.318 71.1889C45.4913 71.5298 45.7314 71.7898 46.0382 71.9688C46.345 72.1449 46.7016 72.233 47.1078 72.233C47.372 72.233 47.6107 72.196 47.8237 72.1222C48.0396 72.0455 48.2257 71.9318 48.382 71.7812C48.5382 71.6278 48.659 71.4375 48.7442 71.2102L49.7158 71.483C49.6135 71.8125 49.4416 72.1023 49.2001 72.3523C48.9587 72.5994 48.6604 72.7926 48.3053 72.9318C47.9501 73.0682 47.551 73.1364 47.1078 73.1364ZM52.2336 69.0625V73H51.2279V66.4545H52.1995V67.4773H52.2847C52.4381 67.1449 52.6711 66.8778 52.9836 66.6761C53.2961 66.4716 53.6995 66.3693 54.1938 66.3693C54.637 66.3693 55.0248 66.4602 55.3571 66.642C55.6895 66.821 55.948 67.0938 56.1327 67.4602C56.3174 67.8239 56.4097 68.2841 56.4097 68.8409V73H55.404V68.9091C55.404 68.3949 55.2705 67.9943 55.0034 67.7074C54.7364 67.4176 54.3699 67.2727 53.904 67.2727C53.583 67.2727 53.2961 67.3423 53.0432 67.4815C52.7932 67.6207 52.5958 67.8239 52.4509 68.0909C52.306 68.358 52.2336 68.6818 52.2336 69.0625ZM60.7865 73.1364C60.1729 73.1364 59.6445 72.9915 59.2013 72.7017C58.7581 72.4119 58.4172 72.0128 58.1785 71.5043C57.9399 70.9957 57.8206 70.4148 57.8206 69.7614C57.8206 69.0966 57.9427 68.5099 58.1871 68.0014C58.4342 67.4901 58.778 67.0909 59.2183 66.804C59.6615 66.5142 60.1785 66.3693 60.7695 66.3693C61.2297 66.3693 61.6445 66.4545 62.0138 66.625C62.3831 66.7955 62.6856 67.0341 62.9214 67.3409C63.1572 67.6477 63.3035 68.0057 63.3604 68.4148H62.3547C62.278 68.1165 62.1075 67.8523 61.8433 67.6222C61.582 67.3892 61.2297 67.2727 60.7865 67.2727C60.3945 67.2727 60.0507 67.375 59.7552 67.5795C59.4626 67.7812 59.2339 68.0668 59.0692 68.4361C58.9072 68.8026 58.8263 69.233 58.8263 69.7273C58.8263 70.233 58.9058 70.6733 59.0649 71.0483C59.2268 71.4233 59.4541 71.7145 59.7467 71.9219C60.0422 72.1293 60.3888 72.233 60.7865 72.233C61.0479 72.233 61.2851 72.1875 61.4981 72.0966C61.7112 72.0057 61.8916 71.875 62.0393 71.7045C62.1871 71.5341 62.2922 71.3295 62.3547 71.0909H63.3604C63.3035 71.4773 63.1629 71.8253 62.9385 72.1349C62.7169 72.4418 62.4229 72.6861 62.0564 72.8679C61.6927 73.0469 61.2695 73.1364 60.7865 73.1364ZM64.7105 73V66.4545H65.7162V73H64.7105ZM65.2219 65.3636C65.0259 65.3636 64.8568 65.2969 64.7148 65.1634C64.5756 65.0298 64.506 64.8693 64.506 64.6818C64.506 64.4943 64.5756 64.3338 64.7148 64.2003C64.8568 64.0668 65.0259 64 65.2219 64C65.4179 64 65.5855 64.0668 65.7247 64.2003C65.8668 64.3338 65.9378 64.4943 65.9378 64.6818C65.9378 64.8693 65.8668 65.0298 65.7247 65.1634C65.5855 65.2969 65.4179 65.3636 65.2219 65.3636ZM68.4439 64.2727V73H67.4382V64.2727H68.4439Z" fill="#1D1D1F"/>
<defs>
<clipPath id="clip0_2_1466">
<rect width="3" height="54" fill="white" transform="translate(33.5801)"/>
</clipPath>
</defs>
</svg>
