<svg width="51" height="77" viewBox="0 0 51 77" fill="none" xmlns="http://www.w3.org/2000/svg">
<g clip-path="url(#clip0_2_1454)">
<path fill-rule="evenodd" clip-rule="evenodd" d="M16.03 17C14.7597 17 13.73 18.0308 13.73 19.3023V47.6976C13.73 48.9692 14.7597 50 16.03 50H34.43C35.7003 50 36.73 48.9692 36.73 47.6977V19.3023C36.73 18.0308 35.7003 17 34.43 17H16.03ZM34.73 47.2564C34.73 47.6671 34.4028 48 33.9992 48H16.4608C16.0572 48 15.73 47.6671 15.73 47.2564V19.7436C15.73 19.3329 16.0572 19 16.4608 19H33.9993C34.4028 19 34.73 19.3329 34.73 19.7436V47.2564Z" fill="#1D1D1F"/>
</g>
<path d="M3.08742 73V67H4.0093V73H3.08742ZM3.55617 66C3.37648 66 3.22154 65.9388 3.09133 65.8164C2.96372 65.694 2.89992 65.5469 2.89992 65.375C2.89992 65.2031 2.96372 65.056 3.09133 64.9336C3.22154 64.8112 3.37648 64.75 3.55617 64.75C3.73586 64.75 3.8895 64.8112 4.01711 64.9336C4.14732 65.056 4.21242 65.2031 4.21242 65.375C4.21242 65.5469 4.14732 65.694 4.01711 65.8164C3.8895 65.9388 3.73586 66 3.55617 66ZM5.70277 73V65H8.4059C9.0335 65 9.54652 65.1133 9.94496 65.3398C10.346 65.5638 10.6429 65.8672 10.8356 66.25C11.0283 66.6328 11.1246 67.0599 11.1246 67.5312C11.1246 68.0026 11.0283 68.431 10.8356 68.8164C10.6455 69.2018 10.3512 69.5091 9.95277 69.7383C9.55434 69.9648 9.04392 70.0781 8.42152 70.0781H6.48402V69.2188H8.39027C8.81996 69.2188 9.16501 69.1445 9.42543 68.9961C9.68585 68.8477 9.87465 68.6471 9.99184 68.3945C10.1116 68.1393 10.1715 67.8516 10.1715 67.5312C10.1715 67.2109 10.1116 66.9245 9.99184 66.6719C9.87465 66.4193 9.68454 66.2214 9.42152 66.0781C9.1585 65.9323 8.80954 65.8594 8.37465 65.8594H6.67152V73H5.70277ZM14.2058 73.1406C13.8256 73.1406 13.4806 73.069 13.1707 72.9258C12.8608 72.7799 12.6147 72.5703 12.4324 72.2969C12.2501 72.0208 12.1589 71.6875 12.1589 71.2969C12.1589 70.9531 12.2267 70.6745 12.3621 70.4609C12.4975 70.2448 12.6785 70.0755 12.905 69.9531C13.1316 69.8307 13.3816 69.7396 13.655 69.6797C13.9311 69.6172 14.2084 69.5677 14.4871 69.5313C14.8517 69.4844 15.1472 69.4492 15.3738 69.4258C15.603 69.3997 15.7696 69.3568 15.8738 69.2969C15.9806 69.237 16.0339 69.1328 16.0339 68.9844V68.9531C16.0339 68.5677 15.9285 68.2682 15.7175 68.0547C15.5092 67.8411 15.1928 67.7344 14.7683 67.7344C14.3282 67.7344 13.9832 67.8307 13.7332 68.0234C13.4832 68.2161 13.3074 68.4219 13.2058 68.6406L12.3308 68.3281C12.4871 67.9635 12.6954 67.6797 12.9558 67.4766C13.2188 67.2708 13.5053 67.1276 13.8152 67.0469C14.1277 66.9635 14.435 66.9219 14.7371 66.9219C14.9298 66.9219 15.1511 66.9453 15.4011 66.9922C15.6537 67.0365 15.8972 67.1289 16.1316 67.2695C16.3686 67.4102 16.5652 67.6224 16.7214 67.9062C16.8777 68.1901 16.9558 68.5703 16.9558 69.0469V73H16.0339V72.1875H15.9871C15.9246 72.3177 15.8204 72.457 15.6746 72.6055C15.5287 72.7539 15.3347 72.8802 15.0925 72.9844C14.8504 73.0885 14.5548 73.1406 14.2058 73.1406ZM14.3464 72.3125C14.711 72.3125 15.0183 72.2409 15.2683 72.0977C15.5209 71.9544 15.711 71.7695 15.8386 71.543C15.9688 71.3164 16.0339 71.0781 16.0339 70.8281V69.9844C15.9949 70.0312 15.9089 70.0742 15.7761 70.1133C15.6459 70.1497 15.4949 70.1823 15.323 70.2109C15.1537 70.237 14.9884 70.2604 14.8269 70.2812C14.6681 70.2995 14.5392 70.3151 14.4402 70.3281C14.2006 70.3594 13.9767 70.4102 13.7683 70.4805C13.5626 70.5482 13.3959 70.651 13.2683 70.7891C13.1433 70.9245 13.0808 71.1094 13.0808 71.3437C13.0808 71.6641 13.1993 71.9062 13.4363 72.0703C13.6759 72.2318 13.9793 72.3125 14.3464 72.3125ZM20.7841 73.125C20.2841 73.125 19.8427 72.9987 19.4598 72.7461C19.077 72.4909 18.7776 72.1315 18.5614 71.668C18.3453 71.2018 18.2372 70.651 18.2372 70.0156C18.2372 69.3854 18.3453 68.8385 18.5614 68.375C18.7776 67.9115 19.0783 67.5534 19.4637 67.3008C19.8492 67.0482 20.2945 66.9219 20.7997 66.9219C21.1903 66.9219 21.4989 66.987 21.7255 67.1172C21.9546 67.2448 22.1291 67.3906 22.2489 67.5547C22.3713 67.7161 22.4664 67.849 22.5341 67.9531H22.6122V65H23.5341V73H22.6434V72.0781H22.5341C22.4664 72.1875 22.37 72.3255 22.245 72.4922C22.12 72.6562 21.9416 72.8034 21.7098 72.9336C21.4781 73.0612 21.1695 73.125 20.7841 73.125ZM20.9091 72.2969C21.2789 72.2969 21.5914 72.2005 21.8466 72.0078C22.1018 71.8125 22.2958 71.543 22.4286 71.1992C22.5614 70.8529 22.6278 70.4531 22.6278 70C22.6278 69.5521 22.5627 69.1602 22.4325 68.8242C22.3023 68.4857 22.1096 68.2227 21.8544 68.0352C21.5992 67.8451 21.2841 67.75 20.9091 67.75C20.5184 67.75 20.1929 67.8503 19.9325 68.0508C19.6747 68.2487 19.4807 68.5182 19.3505 68.8594C19.2229 69.1979 19.1591 69.5781 19.1591 70C19.1591 70.4271 19.2242 70.8151 19.3544 71.1641C19.4872 71.5104 19.6825 71.7865 19.9403 71.9922C20.2007 72.1953 20.5236 72.2969 20.9091 72.2969ZM28.2042 73V67H29.0948V67.9375H29.173C29.298 67.6172 29.4998 67.3685 29.7784 67.1914C30.0571 67.0117 30.3917 66.9219 30.7823 66.9219C31.1782 66.9219 31.5076 67.0117 31.7706 67.1914C32.0362 67.3685 32.2433 67.6172 32.3917 67.9375H32.4542C32.6079 67.6276 32.8383 67.3815 33.1456 67.1992C33.4529 67.0143 33.8214 66.9219 34.2511 66.9219C34.7876 66.9219 35.2264 67.0898 35.5675 67.4258C35.9086 67.7591 36.0792 68.2786 36.0792 68.9844V73H35.1573V68.9844C35.1573 68.5417 35.0362 68.2253 34.7941 68.0352C34.5519 67.8451 34.2667 67.75 33.9386 67.75C33.5167 67.75 33.1899 67.8776 32.9581 68.1328C32.7264 68.3854 32.6105 68.7057 32.6105 69.0937V73H31.673V68.8906C31.673 68.5495 31.5623 68.2747 31.3409 68.0664C31.1196 67.8555 30.8344 67.75 30.4855 67.75C30.2459 67.75 30.0219 67.8138 29.8136 67.9414C29.6079 68.069 29.4412 68.2461 29.3136 68.4727C29.1886 68.6966 29.1261 68.9557 29.1261 69.25V73H28.2042ZM37.6448 73V67H38.5666V73H37.6448ZM38.1135 66C37.9338 66 37.7789 65.9388 37.6487 65.8164C37.5211 65.694 37.4573 65.5469 37.4573 65.375C37.4573 65.2031 37.5211 65.056 37.6487 64.9336C37.7789 64.8112 37.9338 64.75 38.1135 64.75C38.2932 64.75 38.4468 64.8112 38.5745 64.9336C38.7047 65.056 38.7698 65.2031 38.7698 65.375C38.7698 65.5469 38.7047 65.694 38.5745 65.8164C38.4468 65.9388 38.2932 66 38.1135 66ZM41.057 69.3906V73H40.1351V67H41.0257V67.9375H41.1039C41.2445 67.6328 41.458 67.388 41.7445 67.2031C42.031 67.0156 42.4007 66.9219 42.8539 66.9219C43.2601 66.9219 43.6156 67.0052 43.9203 67.1719C44.225 67.3359 44.4619 67.5859 44.6312 67.9219C44.8005 68.2552 44.8851 68.6771 44.8851 69.1875V73H43.9632V69.25C43.9632 68.7786 43.8408 68.4115 43.5961 68.1484C43.3513 67.8828 43.0153 67.75 42.5882 67.75C42.294 67.75 42.0309 67.8138 41.7992 67.9414C41.57 68.069 41.389 68.2552 41.2562 68.5C41.1234 68.7448 41.057 69.0417 41.057 69.3906ZM46.4497 73V67H47.3716V73H46.4497ZM46.9184 66C46.7388 66 46.5838 65.9388 46.4536 65.8164C46.326 65.694 46.2622 65.5469 46.2622 65.375C46.2622 65.2031 46.326 65.056 46.4536 64.9336C46.5838 64.8112 46.7388 64.75 46.9184 64.75C47.0981 64.75 47.2518 64.8112 47.3794 64.9336C47.5096 65.056 47.5747 65.2031 47.5747 65.375C47.5747 65.5469 47.5096 65.694 47.3794 65.8164C47.2518 65.9388 47.0981 66 46.9184 66Z" fill="#1D1D1F"/>
<defs>
<clipPath id="clip0_2_1454">
<rect width="23" height="54" fill="white" transform="translate(13.73)"/>
</clipPath>
</defs>
</svg>
