<svg width="43" height="77" viewBox="0 0 43 77" fill="none" xmlns="http://www.w3.org/2000/svg">
<path d="M33 8C33.7956 8 34.5587 8.31607 35.1213 8.87868C35.6839 9.44129 36 10.2044 36 11V48C36 48.7957 35.6839 49.5587 35.1213 50.1213C34.5587 50.6839 33.7956 51 33 51H9C8.20435 51 7.44129 50.6839 6.87868 50.1213C6.31607 49.5587 6 48.7957 6 48V11C6 10.2044 6.31607 9.44129 6.87868 8.87868C7.44129 8.31607 8.20435 8 9 8H33ZM34 11C34.0088 10.8664 33.989 10.7324 33.9419 10.6071C33.8948 10.4818 33.8214 10.368 33.7267 10.2733C33.632 10.1786 33.5182 10.1052 33.3929 10.0581C33.2676 10.011 33.1336 9.99116 33 10H9C8.86639 9.99116 8.73244 10.011 8.6071 10.0581C8.48177 10.1052 8.36795 10.1786 8.27327 10.2733C8.17859 10.368 8.10523 10.4818 8.0581 10.6071C8.01097 10.7324 7.99116 10.8664 8 11V48C7.99116 48.1336 8.01097 48.2676 8.0581 48.3929C8.10523 48.5182 8.17859 48.632 8.27327 48.7267C8.36795 48.8214 8.48177 48.8948 8.6071 48.9419C8.73244 48.989 8.86639 49.0088 9 49H33C33.1336 49.0088 33.2676 48.989 33.3929 48.9419C33.5182 48.8948 33.632 48.8214 33.7267 48.7267C33.8214 48.632 33.8948 48.5182 33.9419 48.3929C33.989 48.2676 34.0088 48.1336 34 48V11Z" fill="#1D1D1F"/>
<path d="M2.30477 73V67H3.22664V73H2.30477ZM2.77352 66C2.59383 66 2.43888 65.9388 2.30867 65.8164C2.18107 65.694 2.11727 65.5469 2.11727 65.375C2.11727 65.2031 2.18107 65.056 2.30867 64.9336C2.43888 64.8112 2.59383 64.75 2.77352 64.75C2.9532 64.75 3.10685 64.8112 3.23445 64.9336C3.36466 65.056 3.42977 65.2031 3.42977 65.375C3.42977 65.5469 3.36466 65.694 3.23445 65.8164C3.10685 65.9388 2.9532 66 2.77352 66ZM4.92012 73V65H7.62324C8.25085 65 8.76387 65.1133 9.1623 65.3398C9.56335 65.5638 9.86022 65.8672 10.0529 66.25C10.2456 66.6328 10.342 67.0599 10.342 67.5312C10.342 68.0026 10.2456 68.431 10.0529 68.8164C9.86283 69.2018 9.56856 69.5091 9.17012 69.7383C8.77168 69.9648 8.26126 70.0781 7.63887 70.0781H5.70137V69.2188H7.60762C8.0373 69.2188 8.38236 69.1445 8.64277 68.9961C8.90319 68.8477 9.09199 68.6471 9.20918 68.3945C9.32897 68.1393 9.38887 67.8516 9.38887 67.5312C9.38887 67.2109 9.32897 66.9245 9.20918 66.6719C9.09199 66.4193 8.90189 66.2214 8.63887 66.0781C8.37585 65.9323 8.02689 65.8594 7.59199 65.8594H5.88887V73H4.92012ZM13.4232 73.1406C13.043 73.1406 12.6979 73.069 12.388 72.9258C12.0781 72.7799 11.832 72.5703 11.6497 72.2969C11.4674 72.0208 11.3763 71.6875 11.3763 71.2969C11.3763 70.9531 11.444 70.6745 11.5794 70.4609C11.7148 70.2448 11.8958 70.0755 12.1224 69.9531C12.3489 69.8307 12.5989 69.7396 12.8724 69.6797C13.1484 69.6172 13.4258 69.5677 13.7044 69.5313C14.069 69.4844 14.3646 69.4492 14.5911 69.4258C14.8203 69.3997 14.987 69.3568 15.0911 69.2969C15.1979 69.237 15.2513 69.1328 15.2513 68.9844V68.9531C15.2513 68.5677 15.1458 68.2682 14.9349 68.0547C14.7265 67.8411 14.4101 67.7344 13.9857 67.7344C13.5456 67.7344 13.2005 67.8307 12.9505 68.0234C12.7005 68.2161 12.5247 68.4219 12.4232 68.6406L11.5482 68.3281C11.7044 67.9635 11.9127 67.6797 12.1732 67.4766C12.4362 67.2708 12.7226 67.1276 13.0325 67.0469C13.345 66.9635 13.6523 66.9219 13.9544 66.9219C14.1471 66.9219 14.3685 66.9453 14.6185 66.9922C14.8711 67.0365 15.1146 67.1289 15.3489 67.2695C15.5859 67.4102 15.7825 67.6224 15.9388 67.9062C16.095 68.1901 16.1732 68.5703 16.1732 69.0469V73H15.2513V72.1875H15.2044C15.1419 72.3177 15.0377 72.457 14.8919 72.6055C14.7461 72.7539 14.5521 72.8802 14.3099 72.9844C14.0677 73.0885 13.7721 73.1406 13.4232 73.1406ZM13.5638 72.3125C13.9284 72.3125 14.2357 72.2409 14.4857 72.0977C14.7383 71.9544 14.9284 71.7695 15.056 71.543C15.1862 71.3164 15.2513 71.0781 15.2513 70.8281V69.9844C15.2122 70.0312 15.1263 70.0742 14.9935 70.1133C14.8633 70.1497 14.7122 70.1823 14.5404 70.2109C14.3711 70.237 14.2057 70.2604 14.0443 70.2812C13.8854 70.2995 13.7565 70.3151 13.6575 70.3281C13.418 70.3594 13.194 70.4102 12.9857 70.4805C12.7799 70.5482 12.6133 70.651 12.4857 70.7891C12.3607 70.9245 12.2982 71.1094 12.2982 71.3437C12.2982 71.6641 12.4167 71.9062 12.6536 72.0703C12.8932 72.2318 13.1966 72.3125 13.5638 72.3125ZM20.0014 73.125C19.5014 73.125 19.06 72.9987 18.6772 72.7461C18.2944 72.4909 17.9949 72.1315 17.7788 71.668C17.5626 71.2018 17.4545 70.651 17.4545 70.0156C17.4545 69.3854 17.5626 68.8385 17.7788 68.375C17.9949 67.9115 18.2957 67.5534 18.6811 67.3008C19.0665 67.0482 19.5118 66.9219 20.017 66.9219C20.4077 66.9219 20.7163 66.987 20.9428 67.1172C21.172 67.2448 21.3465 67.3906 21.4663 67.5547C21.5886 67.7161 21.6837 67.849 21.7514 67.9531H21.8295V65H22.7514V73H21.8608V72.0781H21.7514C21.6837 72.1875 21.5873 72.3255 21.4623 72.4922C21.3373 72.6562 21.159 72.8034 20.9272 72.9336C20.6954 73.0612 20.3868 73.125 20.0014 73.125ZM20.1264 72.2969C20.4962 72.2969 20.8087 72.2005 21.0639 72.0078C21.3191 71.8125 21.5131 71.543 21.6459 71.1992C21.7788 70.8529 21.8452 70.4531 21.8452 70C21.8452 69.5521 21.7801 69.1602 21.6498 68.8242C21.5196 68.4857 21.3269 68.2227 21.0717 68.0352C20.8165 67.8451 20.5014 67.75 20.1264 67.75C19.7358 67.75 19.4103 67.8503 19.1498 68.0508C18.892 68.2487 18.698 68.5182 18.5678 68.8594C18.4402 69.1979 18.3764 69.5781 18.3764 70C18.3764 70.4271 18.4415 70.8151 18.5717 71.1641C18.7045 71.5104 18.8998 71.7865 19.1577 71.9922C19.4181 72.1953 19.741 72.2969 20.1264 72.2969ZM27.8747 73H26.8591L29.7966 65H30.7966L33.7341 73H32.7184L30.3278 66.2656H30.2653L27.8747 73ZM28.2497 69.875H32.3434V70.7344H28.2497V69.875ZM34.7996 73V67H35.7215V73H34.7996ZM35.2684 66C35.0887 66 34.9337 65.9388 34.8035 65.8164C34.6759 65.694 34.6121 65.5469 34.6121 65.375C34.6121 65.2031 34.6759 65.056 34.8035 64.9336C34.9337 64.8112 35.0887 64.75 35.2684 64.75C35.448 64.75 35.6017 64.8112 35.7293 64.9336C35.8595 65.056 35.9246 65.2031 35.9246 65.375C35.9246 65.5469 35.8595 65.694 35.7293 65.8164C35.6017 65.9388 35.448 66 35.2684 66ZM37.29 73V67H38.1806V67.9062H38.2431C38.3525 67.6094 38.5504 67.3685 38.8368 67.1836C39.1233 66.9987 39.4462 66.9062 39.8056 66.9062C39.8733 66.9062 39.9579 66.9076 40.0595 66.9102C40.1611 66.9128 40.2379 66.9167 40.29 66.9219V67.8594C40.2587 67.8516 40.1871 67.8398 40.0751 67.8242C39.9657 67.806 39.8499 67.7969 39.7275 67.7969C39.4358 67.7969 39.1754 67.8581 38.9462 67.9805C38.7197 68.1003 38.54 68.2669 38.4072 68.4805C38.2769 68.6914 38.2118 68.9323 38.2118 69.2031V73H37.29Z" fill="#1D1D1F"/>
</svg>
