<svg width="69" height="89" viewBox="0 0 69 89" fill="none" xmlns="http://www.w3.org/2000/svg">
<g clip-path="url(#clip0_2_1471)">
<path d="M15.6396 49.6201C16.1919 49.6201 16.6396 49.1724 16.6396 48.6201C16.6396 48.0678 16.1919 47.6201 15.6396 47.6201C15.0874 47.6201 14.6396 48.0678 14.6396 48.6201C14.6396 49.1724 15.0874 49.6201 15.6396 49.6201Z" fill="#1D1D1F"/>
<path d="M65.1396 49.3699H17.6396C17.5733 49.3699 17.5097 49.3963 17.4628 49.4432C17.4159 49.4901 17.3896 49.5536 17.3896 49.6199V49.9999C16.4366 50.0443 15.4959 50.2331 14.5996 50.5599C14.0696 50.6899 13.6896 50.5599 13.4996 50.3299C13.3974 50.143 13.3507 49.9308 13.3649 49.7183C13.379 49.5057 13.4535 49.3017 13.5796 49.1299C14.0765 48.3643 14.5144 47.562 14.8896 46.7299L15.2796 46.8699C15.3119 46.8772 15.3453 46.8777 15.3778 46.8713C15.4102 46.865 15.4411 46.8521 15.4683 46.8333C15.4955 46.8145 15.5186 46.7903 15.536 46.7622C15.5534 46.7341 15.5649 46.7027 15.5696 46.6699L20.5696 32.8499L28.2196 45.9999C28.253 46.0567 28.3074 46.098 28.3711 46.1148C28.4348 46.1317 28.5025 46.1227 28.5596 46.0899L29.4296 45.5899C29.4864 45.5566 29.5276 45.5021 29.5445 45.4384C29.5613 45.3748 29.5524 45.307 29.5196 45.2499L5.26959 3.25995C5.23754 3.21262 5.19077 3.17717 5.13654 3.15909C5.08231 3.14102 5.02364 3.14132 4.96959 3.15995L4.09959 3.65995L3.96959 3.72995L3.66959 3.89995C3.64046 3.91547 3.61485 3.93684 3.59435 3.96272C3.57386 3.98859 3.55892 4.01841 3.55047 4.05033C3.54202 4.08224 3.54025 4.11555 3.54526 4.14817C3.55027 4.1808 3.56196 4.21204 3.57959 4.23995L19.4396 31.7099L14.1896 46.2099C14.1697 46.2724 14.1741 46.34 14.2019 46.3993C14.2297 46.4587 14.2789 46.5053 14.3396 46.5299L14.6496 46.6399C14.285 47.4587 13.857 48.2478 13.3696 48.9999C13.2148 49.2145 13.125 49.469 13.1108 49.7332C13.0967 49.9974 13.1587 50.26 13.2896 50.4899C13.3897 50.6208 13.5206 50.7248 13.6707 50.7929C13.8207 50.8609 13.9852 50.8908 14.1496 50.8799C14.3284 50.8776 14.5063 50.8541 14.6796 50.8099C15.5503 50.4922 16.4638 50.3068 17.3896 50.2599V50.6299C17.3896 50.6963 17.4159 50.7598 17.4628 50.8067C17.5097 50.8536 17.5733 50.8799 17.6396 50.8799H65.1396C65.2059 50.8799 65.2695 50.8536 65.3164 50.8067C65.3633 50.7598 65.3896 50.6963 65.3896 50.6299V49.6299C65.3909 49.5963 65.3855 49.5627 65.3735 49.5312C65.3616 49.4997 65.3433 49.471 65.32 49.4467C65.2966 49.4224 65.2686 49.4031 65.2376 49.3899C65.2066 49.3767 65.1733 49.3699 65.1396 49.3699Z" fill="#1D1D1F"/>
</g>
<path d="M12.958 73V65H13.9268V68.9687H14.0205L17.6143 65H18.8799L15.5205 68.6094L18.8799 73H17.708L14.9268 69.2812L13.9268 70.4062V73H12.958ZM21.964 73.125C21.3859 73.125 20.8872 72.9974 20.4679 72.7422C20.0512 72.4844 19.7296 72.125 19.5031 71.6641C19.2791 71.2005 19.1671 70.6615 19.1671 70.0469C19.1671 69.4323 19.2791 68.8906 19.5031 68.4219C19.7296 67.9505 20.0447 67.5833 20.4484 67.3203C20.8546 67.0547 21.3286 66.9219 21.8703 66.9219C22.1828 66.9219 22.4913 66.974 22.796 67.0781C23.1007 67.1823 23.3781 67.3516 23.6281 67.5859C23.8781 67.8177 24.0773 68.125 24.2257 68.5078C24.3742 68.8906 24.4484 69.362 24.4484 69.9219V70.3125H19.8234V69.5156H23.5109C23.5109 69.1771 23.4432 68.875 23.3078 68.6094C23.1749 68.3437 22.9848 68.1341 22.7374 67.9805C22.4926 67.8268 22.2036 67.75 21.8703 67.75C21.5031 67.75 21.1854 67.8411 20.9171 68.0234C20.6515 68.2031 20.4471 68.4375 20.3038 68.7266C20.1606 69.0156 20.089 69.3255 20.089 69.6562V70.1875C20.089 70.6406 20.1671 71.0247 20.3234 71.3398C20.4822 71.6523 20.7023 71.8906 20.9835 72.0547C21.2648 72.2161 21.5916 72.2969 21.964 72.2969C22.2062 72.2969 22.4249 72.263 22.6203 72.1953C22.8182 72.125 22.9887 72.0208 23.132 71.8828C23.2752 71.7422 23.3859 71.5677 23.464 71.3594L24.3546 71.6094C24.2609 71.9115 24.1033 72.1771 23.882 72.4062C23.6606 72.6328 23.3872 72.8099 23.0617 72.9375C22.7361 73.0625 22.3703 73.125 21.964 73.125ZM26.1419 75.25C25.9856 75.25 25.8463 75.237 25.7239 75.2109C25.6015 75.1875 25.5169 75.1641 25.47 75.1406L25.7044 74.3281C25.9283 74.3854 26.1262 74.4063 26.2981 74.3906C26.47 74.375 26.6223 74.2982 26.7551 74.1602C26.8906 74.0247 27.0143 73.8047 27.1262 73.5L27.2981 73.0313L25.0794 67H26.0794L27.7356 71.7812H27.7981L29.4544 67H30.4544L27.9075 73.875C27.7929 74.1849 27.651 74.4414 27.4817 74.6445C27.3124 74.8503 27.1158 75.0026 26.8919 75.1016C26.6705 75.2005 26.4205 75.25 26.1419 75.25ZM31.6762 73V65H32.598V67.9531H32.6762C32.7439 67.849 32.8376 67.7161 32.9574 67.5547C33.0798 67.3906 33.2543 67.2448 33.4808 67.1172C33.71 66.987 34.0199 66.9219 34.4105 66.9219C34.9157 66.9219 35.361 67.0482 35.7465 67.3008C36.1319 67.5534 36.4327 67.9115 36.6488 68.375C36.865 68.8385 36.973 69.3854 36.973 70.0156C36.973 70.651 36.865 71.2018 36.6488 71.668C36.4327 72.1315 36.1332 72.4909 35.7504 72.7461C35.3676 72.9987 34.9262 73.125 34.4262 73.125C34.0407 73.125 33.7321 73.0612 33.5004 72.9336C33.2686 72.8034 33.0902 72.6562 32.9652 72.4922C32.8402 72.3255 32.7439 72.1875 32.6762 72.0781H32.5668V73H31.6762ZM32.5824 70C32.5824 70.4531 32.6488 70.8529 32.7816 71.1992C32.9144 71.543 33.1084 71.8125 33.3637 72.0078C33.6189 72.2005 33.9314 72.2969 34.3012 72.2969C34.6866 72.2969 35.0082 72.1953 35.266 71.9922C35.5264 71.7865 35.7217 71.5104 35.8519 71.1641C35.9847 70.8151 36.0512 70.4271 36.0512 70C36.0512 69.5781 35.986 69.1979 35.8558 68.8594C35.7282 68.5182 35.5342 68.2487 35.2738 68.0508C35.016 67.8503 34.6918 67.75 34.3012 67.75C33.9262 67.75 33.611 67.8451 33.3558 68.0352C33.1006 68.2227 32.9079 68.4857 32.7777 68.8242C32.6475 69.1602 32.5824 69.5521 32.5824 70ZM40.7007 73.125C40.159 73.125 39.6838 72.9961 39.2749 72.7383C38.8687 72.4805 38.5509 72.1198 38.3218 71.6562C38.0952 71.1927 37.9819 70.651 37.9819 70.0312C37.9819 69.4062 38.0952 68.8607 38.3218 68.3945C38.5509 67.9284 38.8687 67.5664 39.2749 67.3086C39.6838 67.0508 40.159 66.9219 40.7007 66.9219C41.2424 66.9219 41.7163 67.0508 42.1226 67.3086C42.5314 67.5664 42.8491 67.9284 43.0757 68.3945C43.3049 68.8607 43.4194 69.4062 43.4194 70.0312C43.4194 70.651 43.3049 71.1927 43.0757 71.6562C42.8491 72.1198 42.5314 72.4805 42.1226 72.7383C41.7163 72.9961 41.2424 73.125 40.7007 73.125ZM40.7007 72.2969C41.1121 72.2969 41.4507 72.1914 41.7163 71.9805C41.9819 71.7695 42.1785 71.4922 42.3062 71.1484C42.4338 70.8047 42.4976 70.4323 42.4976 70.0312C42.4976 69.6302 42.4338 69.2565 42.3062 68.9102C42.1785 68.5638 41.9819 68.2839 41.7163 68.0703C41.4507 67.8568 41.1121 67.75 40.7007 67.75C40.2892 67.75 39.9507 67.8568 39.6851 68.0703C39.4194 68.2839 39.2228 68.5638 39.0952 68.9102C38.9676 69.2565 38.9038 69.6302 38.9038 70.0312C38.9038 70.4323 38.9676 70.8047 39.0952 71.1484C39.2228 71.4922 39.4194 71.7695 39.6851 71.9805C39.9507 72.1914 40.2892 72.2969 40.7007 72.2969ZM46.4723 73.1406C46.0921 73.1406 45.747 73.069 45.4371 72.9258C45.1272 72.7799 44.8811 72.5703 44.6988 72.2969C44.5166 72.0208 44.4254 71.6875 44.4254 71.2969C44.4254 70.9531 44.4931 70.6745 44.6285 70.4609C44.7639 70.2448 44.9449 70.0755 45.1715 69.9531C45.3981 69.8307 45.6481 69.7396 45.9215 69.6797C46.1975 69.6172 46.4749 69.5677 46.7535 69.5313C47.1181 69.4844 47.4137 69.4492 47.6403 69.4258C47.8694 69.3997 48.0361 69.3568 48.1403 69.2969C48.247 69.237 48.3004 69.1328 48.3004 68.9844V68.9531C48.3004 68.5677 48.1949 68.2682 47.984 68.0547C47.7757 67.8411 47.4593 67.7344 47.0348 67.7344C46.5947 67.7344 46.2496 67.8307 45.9996 68.0234C45.7496 68.2161 45.5738 68.4219 45.4723 68.6406L44.5973 68.3281C44.7535 67.9635 44.9619 67.6797 45.2223 67.4766C45.4853 67.2708 45.7718 67.1276 46.0817 67.0469C46.3942 66.9635 46.7014 66.9219 47.0035 66.9219C47.1962 66.9219 47.4176 66.9453 47.6676 66.9922C47.9202 67.0365 48.1637 67.1289 48.3981 67.2695C48.635 67.4102 48.8317 67.6224 48.9879 67.9062C49.1442 68.1901 49.2223 68.5703 49.2223 69.0469V73H48.3004V72.1875H48.2535C48.191 72.3177 48.0869 72.457 47.941 72.6055C47.7952 72.7539 47.6012 72.8802 47.359 72.9844C47.1168 73.0885 46.8212 73.1406 46.4723 73.1406ZM46.6129 72.3125C46.9775 72.3125 47.2848 72.2409 47.5348 72.0977C47.7874 71.9544 47.9775 71.7695 48.1051 71.543C48.2353 71.3164 48.3004 71.0781 48.3004 70.8281V69.9844C48.2613 70.0312 48.1754 70.0742 48.0426 70.1133C47.9124 70.1497 47.7613 70.1823 47.5895 70.2109C47.4202 70.237 47.2548 70.2604 47.0934 70.2812C46.9345 70.2995 46.8056 70.3151 46.7067 70.3281C46.4671 70.3594 46.2431 70.4102 46.0348 70.4805C45.8291 70.5482 45.6624 70.651 45.5348 70.7891C45.4098 70.9245 45.3473 71.1094 45.3473 71.3437C45.3473 71.6641 45.4658 71.9062 45.7028 72.0703C45.9423 72.2318 46.2457 72.3125 46.6129 72.3125ZM50.7849 73V67H51.6755V67.9062H51.738C51.8474 67.6094 52.0453 67.3685 52.3318 67.1836C52.6182 66.9987 52.9412 66.9062 53.3005 66.9062C53.3682 66.9062 53.4529 66.9076 53.5544 66.9102C53.656 66.9128 53.7328 66.9167 53.7849 66.9219V67.8594C53.7537 67.8516 53.682 67.8398 53.5701 67.8242C53.4607 67.806 53.3448 67.7969 53.2224 67.7969C52.9307 67.7969 52.6703 67.8581 52.4412 67.9805C52.2146 68.1003 52.0349 68.2669 51.9021 68.4805C51.7719 68.6914 51.7068 68.9323 51.7068 69.2031V73H50.7849ZM56.8407 73.125C56.3407 73.125 55.8993 72.9987 55.5165 72.7461C55.1337 72.4909 54.8342 72.1315 54.618 71.668C54.4019 71.2018 54.2938 70.651 54.2938 70.0156C54.2938 69.3854 54.4019 68.8385 54.618 68.375C54.8342 67.9115 55.135 67.5534 55.5204 67.3008C55.9058 67.0482 56.3511 66.9219 56.8563 66.9219C57.2469 66.9219 57.5555 66.987 57.7821 67.1172C58.0113 67.2448 58.1857 67.3906 58.3055 67.5547C58.4279 67.7161 58.523 67.849 58.5907 67.9531H58.6688V65H59.5907V73H58.7001V72.0781H58.5907C58.523 72.1875 58.4266 72.3255 58.3016 72.4922C58.1766 72.6562 57.9982 72.8034 57.7665 72.9336C57.5347 73.0612 57.2261 73.125 56.8407 73.125ZM56.9657 72.2969C57.3355 72.2969 57.648 72.2005 57.9032 72.0078C58.1584 71.8125 58.3524 71.543 58.4852 71.1992C58.618 70.8529 58.6844 70.4531 58.6844 70C58.6844 69.5521 58.6193 69.1602 58.4891 68.8242C58.3589 68.4857 58.1662 68.2227 57.911 68.0352C57.6558 67.8451 57.3407 67.75 56.9657 67.75C56.5751 67.75 56.2495 67.8503 55.9891 68.0508C55.7313 68.2487 55.5373 68.5182 55.4071 68.8594C55.2795 69.1979 55.2157 69.5781 55.2157 70C55.2157 70.4271 55.2808 70.8151 55.411 71.1641C55.5438 71.5104 55.7391 71.7865 55.9969 71.9922C56.2573 72.1953 56.5803 72.2969 56.9657 72.2969ZM65.5371 68.3437L64.709 68.5781C64.6569 68.4401 64.5801 68.306 64.4785 68.1758C64.3795 68.043 64.2441 67.9336 64.0722 67.8477C63.9004 67.7617 63.6803 67.7187 63.4121 67.7187C63.0449 67.7187 62.7389 67.8034 62.4941 67.9727C62.2519 68.1393 62.1308 68.3516 62.1308 68.6094C62.1308 68.8385 62.2142 69.0195 62.3808 69.1523C62.5475 69.2852 62.8079 69.3958 63.1621 69.4844L64.0527 69.7031C64.5892 69.8333 64.9889 70.0326 65.2519 70.3008C65.515 70.5664 65.6465 70.9089 65.6465 71.3281C65.6465 71.6719 65.5475 71.9792 65.3496 72.25C65.1543 72.5208 64.8808 72.7344 64.5293 72.8906C64.1777 73.0469 63.7689 73.125 63.3027 73.125C62.6907 73.125 62.1842 72.9922 61.7832 72.7266C61.3821 72.4609 61.1282 72.0729 61.0215 71.5625L61.8965 71.3437C61.9798 71.6667 62.1374 71.9089 62.3691 72.0703C62.6035 72.2318 62.9095 72.3125 63.2871 72.3125C63.7168 72.3125 64.0579 72.2214 64.3105 72.0391C64.5657 71.8542 64.6933 71.6328 64.6933 71.375C64.6933 71.1667 64.6204 70.9922 64.4746 70.8516C64.3288 70.7083 64.1048 70.6016 63.8027 70.5312L62.8027 70.2969C62.2532 70.1667 61.8496 69.9648 61.5918 69.6914C61.3366 69.4154 61.209 69.0703 61.209 68.6562C61.209 68.3177 61.304 68.0182 61.4941 67.7578C61.6868 67.4974 61.9485 67.293 62.2793 67.1445C62.6126 66.9961 62.9902 66.9219 63.4121 66.9219C64.0058 66.9219 64.472 67.0521 64.8105 67.3125C65.1517 67.5729 65.3939 67.9167 65.5371 68.3437Z" fill="#1D1D1F"/>
<path d="M36.539 79.4545V86H35.772L32.2052 80.8608H32.1413V86H31.3487V79.4545H32.1157L35.6953 84.6065H35.7592V79.4545H36.539ZM40.001 86.1023C39.528 86.1023 39.12 85.9979 38.7769 85.7891C38.436 85.5781 38.1729 85.2841 37.9875 84.907C37.8043 84.5277 37.7127 84.0866 37.7127 83.5838C37.7127 83.081 37.8043 82.6378 37.9875 82.2543C38.1729 81.8686 38.4307 81.5682 38.761 81.353C39.0934 81.1357 39.4811 81.027 39.9243 81.027C40.18 81.027 40.4325 81.0696 40.6818 81.1548C40.9311 81.2401 41.158 81.3786 41.3625 81.5703C41.5671 81.7599 41.7301 82.0114 41.8515 82.3246C41.973 82.6378 42.0337 83.0234 42.0337 83.4815V83.8011H38.2496V83.1491H41.2666C41.2666 82.8722 41.2112 82.625 41.1005 82.4077C40.9918 82.1903 40.8362 82.0188 40.6338 81.8931C40.4335 81.7674 40.197 81.7045 39.9243 81.7045C39.6239 81.7045 39.3639 81.7791 39.1445 81.9283C38.9272 82.0753 38.7599 82.267 38.6427 82.5036C38.5255 82.7401 38.4669 82.9936 38.4669 83.2642V83.6989C38.4669 84.0696 38.5309 84.3839 38.6587 84.6417C38.7887 84.8974 38.9687 85.0923 39.1988 85.2266C39.4289 85.3587 39.6963 85.4247 40.001 85.4247C40.1992 85.4247 40.3782 85.397 40.538 85.3416C40.6999 85.2841 40.8394 85.1989 40.9566 85.0859C41.0738 84.9709 41.1644 84.8281 41.2283 84.6577L41.957 84.8622C41.8803 85.1094 41.7514 85.3267 41.5703 85.5142C41.3892 85.6996 41.1654 85.8445 40.8991 85.9489C40.6328 86.0511 40.3334 86.1023 40.001 86.1023ZM44.2133 86L42.7175 81.0909H43.5102L44.5712 84.8494H44.6224L45.6707 81.0909H46.4761L47.5116 84.8366H47.5627L48.6238 81.0909H49.4164L47.9207 86H47.1792L46.1053 82.2287H46.0286L44.9548 86H44.2133Z" fill="#BF4800"/>
<defs>
<clipPath id="clip0_2_1471">
<rect width="63" height="54" fill="white" transform="translate(2.96973)"/>
</clipPath>
</defs>
</svg>
