<svg width="46" height="54" viewBox="0 0 46 54" fill="none" xmlns="http://www.w3.org/2000/svg">
<g clip-path="url(#clip0_2_1461)">
<path d="M15.1699 13H6.16992C4.71177 13.0017 3.31384 13.5818 2.28276 14.6128C1.25169 15.6439 0.671669 17.0418 0.669922 18.5L0.669922 44.5C0.671748 45.9581 1.2518 47.356 2.28285 48.3871C3.31391 49.4181 4.71179 49.9982 6.16992 50H15.1699C16.6281 49.9982 18.0259 49.4181 19.057 48.3871C20.088 47.356 20.6681 45.9581 20.6699 44.5V18.5C20.6682 17.0418 20.0882 15.6439 19.0571 14.6128C18.026 13.5818 16.6281 13.0017 15.1699 13ZM18.6699 44.5C18.6688 45.4279 18.2997 46.3175 17.6436 46.9736C16.9874 47.6298 16.0978 47.9989 15.1699 48H6.16992C5.24201 47.9989 4.35241 47.6298 3.69628 46.9736C3.04014 46.3175 2.67103 45.4279 2.66992 44.5V18.5C2.67103 17.5721 3.04014 16.6825 3.69628 16.0264C4.35241 15.3702 5.24201 15.0011 6.16992 15H15.1699C16.0978 15.0011 16.9874 15.3702 17.6436 16.0264C18.2997 16.6825 18.6688 17.5721 18.6699 18.5V44.5ZM44.6699 36.5H45.6699V42.5H44.6699V36.5ZM32.6699 13H38.6699V14H32.6699V13ZM44.6699 28.5H45.6699V34.5H44.6699V28.5ZM32.6699 49H38.6699V50H32.6699V49ZM26.6699 34.5H25.6699V28.5H26.6699V34.5ZM26.6699 26.5H25.6699V20.5H26.6699V26.5ZM26.6699 42.5H25.6699V36.5H26.6699V42.5ZM40.6699 14.05V13.0253C42.0355 13.1512 43.3048 13.7822 44.2296 14.7948C45.1544 15.8074 45.668 17.1287 45.6699 18.5H44.6699C44.6678 17.396 44.2586 16.3315 43.5205 15.5104C42.7825 14.6893 41.7675 14.1693 40.6699 14.05ZM44.6699 44.5H45.6699C45.668 45.8713 45.1544 47.1926 44.2296 48.2052C43.3048 49.2178 42.0355 49.8488 40.6699 49.9747V48.95C41.7675 48.8307 42.7825 48.3107 43.5205 47.4896C44.2586 46.6685 44.6678 45.604 44.6699 44.5ZM30.6699 13.0253V14.05C29.5723 14.1693 28.5574 14.6893 27.8193 15.5104C27.0812 16.3315 26.672 17.396 26.6699 18.5H25.6699C25.6718 17.1287 26.1854 15.8074 27.1102 14.7948C28.035 13.7822 29.3044 13.1512 30.6699 13.0253ZM30.6699 48.95V49.9751C29.3043 49.8492 28.0349 49.2181 27.1101 48.2054C26.1853 47.1928 25.6717 45.8714 25.6699 44.5H26.6699C26.672 45.604 27.0812 46.6685 27.8193 47.4896C28.5574 48.3107 29.5723 48.8307 30.6699 48.95ZM44.6699 20.5H45.6699V26.5H44.6699V20.5Z" fill="#1D1D1F"/>
</g>
<defs>
<clipPath id="clip0_2_1461">
<rect width="45" height="54" fill="white" transform="translate(0.669922)"/>
</clipPath>
</defs>
</svg>
