<svg width="51" height="89" viewBox="0 0 51 89" fill="none" xmlns="http://www.w3.org/2000/svg">
<g clip-path="url(#clip0_2_1447)">
<path d="M19.8101 46H2.80959V11H19.8101C19.6995 9.4908 20.0127 7.963 21.1927 7H2.16969C1.39479 7.0774 0.805789 7.7313 0.809589 8.51V48.6801C0.820589 49.42 1.42949 50.011 2.16949 50.0001H21.1924C20.0121 49.0365 19.6997 47.509 19.8101 46ZM15.8096 8.4201C16.6729 8.4239 16.6728 9.7364 15.8096 9.7401C14.9467 9.7363 14.9467 8.4237 15.8096 8.4201ZM15.8096 48.9401V48.9501C14.4034 48.9262 14.4036 46.8338 15.8096 46.8101C17.2146 46.8347 17.2143 48.9158 15.8096 48.9401ZM47.8101 7.0001H23.8101C22.1532 7.0001 20.8101 8.3432 20.8101 10.0001V47.0001C20.8101 48.6565 22.1526 49.9992 23.8089 50H47.8101C49.467 50.0001 50.8101 48.657 50.8101 47.0001V10.0001C50.8101 8.3432 49.467 7.0001 47.8101 7.0001ZM48.8101 47.0001C48.8101 47.5523 48.3623 48.0001 47.8101 48.0001C42.9163 47.9997 28.4714 48.0004 23.8101 48.0001C23.2579 48.0001 22.8101 47.5523 22.8101 47.0001V10.0001C22.8101 9.4478 23.2579 9.0001 23.8101 9.0001C28.3996 8.999 42.9951 9.0009 47.8101 9.0001C48.3623 9.0001 48.8101 9.4478 48.8101 10.0001V47.0001Z" fill="#1D1D1F"/>
</g>
<path d="M16.0921 73V67H17.014V73H16.0921ZM16.5609 66C16.3812 66 16.2262 65.9388 16.096 65.8164C15.9684 65.694 15.9046 65.5469 15.9046 65.375C15.9046 65.2031 15.9684 65.056 16.096 64.9336C16.2262 64.8112 16.3812 64.75 16.5609 64.75C16.7405 64.75 16.8942 64.8112 17.0218 64.9336C17.152 65.056 17.2171 65.2031 17.2171 65.375C17.2171 65.5469 17.152 65.694 17.0218 65.8164C16.8942 65.9388 16.7405 66 16.5609 66ZM18.7075 73V65H21.4106C22.0382 65 22.5512 65.1133 22.9496 65.3398C23.3507 65.5638 23.6476 65.8672 23.8403 66.25C24.033 66.6328 24.1293 67.0599 24.1293 67.5312C24.1293 68.0026 24.033 68.431 23.8403 68.8164C23.6502 69.2018 23.3559 69.5091 22.9575 69.7383C22.559 69.9648 22.0486 70.0781 21.4262 70.0781H19.4887V69.2188H21.395C21.8246 69.2188 22.1697 69.1445 22.4301 68.9961C22.6905 68.8477 22.8793 68.6471 22.9965 68.3945C23.1163 68.1393 23.1762 67.8516 23.1762 67.5312C23.1762 67.2109 23.1163 66.9245 22.9965 66.6719C22.8793 66.4193 22.6892 66.2214 22.4262 66.0781C22.1632 65.9323 21.8142 65.8594 21.3793 65.8594H19.6762V73H18.7075ZM27.2105 73.1406C26.8303 73.1406 26.4852 73.069 26.1754 72.9258C25.8655 72.7799 25.6194 72.5703 25.4371 72.2969C25.2548 72.0208 25.1636 71.6875 25.1636 71.2969C25.1636 70.9531 25.2313 70.6745 25.3668 70.4609C25.5022 70.2448 25.6832 70.0755 25.9097 69.9531C26.1363 69.8307 26.3863 69.7396 26.6597 69.6797C26.9358 69.6172 27.2131 69.5677 27.4918 69.5313C27.8563 69.4844 28.1519 69.4492 28.3785 69.4258C28.6076 69.3997 28.7743 69.3568 28.8785 69.2969C28.9852 69.237 29.0386 69.1328 29.0386 68.9844V68.9531C29.0386 68.5677 28.9332 68.2682 28.7222 68.0547C28.5139 67.8411 28.1975 67.7344 27.773 67.7344C27.3329 67.7344 26.9879 67.8307 26.7379 68.0234C26.4879 68.2161 26.3121 68.4219 26.2105 68.6406L25.3355 68.3281C25.4918 67.9635 25.7001 67.6797 25.9605 67.4766C26.2235 67.2708 26.51 67.1276 26.8199 67.0469C27.1324 66.9635 27.4397 66.9219 27.7418 66.9219C27.9345 66.9219 28.1558 66.9453 28.4058 66.9922C28.6584 67.0365 28.9019 67.1289 29.1363 67.2695C29.3733 67.4102 29.5699 67.6224 29.7261 67.9062C29.8824 68.1901 29.9605 68.5703 29.9605 69.0469V73H29.0386V72.1875H28.9918C28.9293 72.3177 28.8251 72.457 28.6793 72.6055C28.5334 72.7539 28.3394 72.8802 28.0972 72.9844C27.855 73.0885 27.5595 73.1406 27.2105 73.1406ZM27.3511 72.3125C27.7157 72.3125 28.023 72.2409 28.273 72.0977C28.5256 71.9544 28.7157 71.7695 28.8433 71.543C28.9735 71.3164 29.0386 71.0781 29.0386 70.8281V69.9844C28.9996 70.0312 28.9136 70.0742 28.7808 70.1133C28.6506 70.1497 28.4996 70.1823 28.3277 70.2109C28.1584 70.237 27.9931 70.2604 27.8316 70.2812C27.6727 70.2995 27.5438 70.3151 27.4449 70.3281C27.2053 70.3594 26.9813 70.4102 26.773 70.4805C26.5673 70.5482 26.4006 70.651 26.273 70.7891C26.148 70.9245 26.0855 71.1094 26.0855 71.3437C26.0855 71.6641 26.204 71.9062 26.441 72.0703C26.6806 72.2318 26.9839 72.3125 27.3511 72.3125ZM33.7888 73.125C33.2888 73.125 32.8473 72.9987 32.4645 72.7461C32.0817 72.4909 31.7822 72.1315 31.5661 71.668C31.3499 71.2018 31.2419 70.651 31.2419 70.0156C31.2419 69.3854 31.3499 68.8385 31.5661 68.375C31.7822 67.9115 32.083 67.5534 32.4684 67.3008C32.8539 67.0482 33.2992 66.9219 33.8044 66.9219C34.195 66.9219 34.5036 66.987 34.7302 67.1172C34.9593 67.2448 35.1338 67.3906 35.2536 67.5547C35.376 67.7161 35.471 67.849 35.5388 67.9531H35.6169V65H36.5388V73H35.6481V72.0781H35.5388C35.471 72.1875 35.3747 72.3255 35.2497 72.4922C35.1247 72.6562 34.9463 72.8034 34.7145 72.9336C34.4828 73.0612 34.1742 73.125 33.7888 73.125ZM33.9138 72.2969C34.2835 72.2969 34.596 72.2005 34.8513 72.0078C35.1065 71.8125 35.3005 71.543 35.4333 71.1992C35.5661 70.8529 35.6325 70.4531 35.6325 70C35.6325 69.5521 35.5674 69.1602 35.4372 68.8242C35.307 68.4857 35.1143 68.2227 34.8591 68.0352C34.6039 67.8451 34.2888 67.75 33.9138 67.75C33.5231 67.75 33.1976 67.8503 32.9372 68.0508C32.6794 68.2487 32.4854 68.5182 32.3552 68.8594C32.2276 69.1979 32.1638 69.5781 32.1638 70C32.1638 70.4271 32.2289 70.8151 32.3591 71.1641C32.4919 71.5104 32.6872 71.7865 32.945 71.9922C33.2054 72.1953 33.5283 72.2969 33.9138 72.2969Z" fill="#1D1D1F"/>
<path d="M21.8794 79.4545V86H21.1123L17.5456 80.8608H17.4816V86H16.689V79.4545H17.4561L21.0356 84.6065H21.0995V79.4545H21.8794ZM25.3414 86.1023C24.8683 86.1023 24.4603 85.9979 24.1173 85.7891C23.7764 85.5781 23.5132 85.2841 23.3279 84.907C23.1446 84.5277 23.053 84.0866 23.053 83.5838C23.053 83.081 23.1446 82.6378 23.3279 82.2543C23.5132 81.8686 23.771 81.5682 24.1013 81.353C24.4337 81.1357 24.8215 81.027 25.2646 81.027C25.5203 81.027 25.7728 81.0696 26.0221 81.1548C26.2714 81.2401 26.4983 81.3786 26.7029 81.5703C26.9074 81.7599 27.0704 82.0114 27.1919 82.3246C27.3133 82.6378 27.374 83.0234 27.374 83.4815V83.8011H23.5899V83.1491H26.607C26.607 82.8722 26.5516 82.625 26.4408 82.4077C26.3321 82.1903 26.1766 82.0188 25.9742 81.8931C25.7739 81.7674 25.5374 81.7045 25.2646 81.7045C24.9642 81.7045 24.7043 81.7791 24.4848 81.9283C24.2675 82.0753 24.1002 82.267 23.983 82.5036C23.8659 82.7401 23.8073 82.9936 23.8073 83.2642V83.6989C23.8073 84.0696 23.8712 84.3839 23.999 84.6417C24.129 84.8974 24.309 85.0923 24.5392 85.2266C24.7693 85.3587 25.0367 85.4247 25.3414 85.4247C25.5395 85.4247 25.7185 85.397 25.8783 85.3416C26.0402 85.2841 26.1798 85.1989 26.297 85.0859C26.4142 84.9709 26.5047 84.8281 26.5686 84.6577L27.2973 84.8622C27.2206 85.1094 27.0917 85.3267 26.9106 85.5142C26.7295 85.6996 26.5058 85.8445 26.2394 85.9489C25.9731 86.0511 25.6737 86.1023 25.3414 86.1023ZM29.5536 86L28.0579 81.0909H28.8505L29.9116 84.8494H29.9627L31.011 81.0909H31.8164L32.8519 84.8366H32.903L33.9641 81.0909H34.7567L33.261 86H32.5195L31.4457 82.2287H31.369L30.2951 86H29.5536Z" fill="#BF4800"/>
<defs>
<clipPath id="clip0_2_1447">
<rect width="50.0005" height="54" fill="white" transform="translate(0.80957 0.000488281)"/>
</clipPath>
</defs>
</svg>
