<svg width="30" height="44" viewBox="0 0 30 44" fill="none" xmlns="http://www.w3.org/2000/svg">
<g clip-path="url(#clip0_2_1496)">
<path d="M21.0731 17.6825C20.5522 18.0014 20.1207 18.4473 19.8191 18.9783C19.5174 19.5094 19.3554 20.1083 19.3483 20.719C19.3503 21.4064 19.554 22.078 19.934 22.6508C20.314 23.2236 20.8537 23.6723 21.4862 23.9413C21.2368 24.7459 20.8677 25.5084 20.3914 26.2031C19.7098 27.1843 18.9971 28.1654 17.9127 28.1654C16.8283 28.1654 16.5494 27.5354 15.2997 27.5354C14.081 27.5354 13.6472 28.1861 12.6557 28.1861C11.6642 28.1861 10.9723 27.2772 10.177 26.1618C9.12643 24.5993 8.54907 22.7668 8.51416 20.8842C8.51416 17.7858 10.5282 16.1437 12.5111 16.1437C13.5646 16.1437 14.4425 16.8356 15.1035 16.8356C15.7335 16.8356 16.7147 16.1023 17.9127 16.1023C18.5286 16.0864 19.139 16.2223 19.6902 16.4978C20.2413 16.7734 20.7162 17.1802 21.0731 17.6825ZM17.3447 14.7907C17.8728 14.1695 18.1717 13.3859 18.1916 12.5707C18.1925 12.4633 18.1821 12.356 18.1606 12.2507C17.2534 12.3393 16.4146 12.7717 15.8161 13.4591C15.2829 14.0556 14.9727 14.8183 14.9382 15.6176C14.9386 15.7148 14.9489 15.8117 14.9692 15.9068C15.0407 15.9204 15.1133 15.9273 15.1861 15.9275C15.6041 15.8943 16.0111 15.7763 16.3822 15.5809C16.7532 15.3855 17.0807 15.1166 17.3447 14.7907Z" fill="black" fill-opacity="0.8"/>
</g>
<g clip-path="url(#clip1_2_1496)">
<path d="M19.3072 27.5H16.9165L21.2692 15.1364H24.0341L28.3928 27.5H26.0021L22.6999 17.6719H22.6033L19.3072 27.5ZM19.3857 22.6523H25.9055V24.4513H19.3857V22.6523ZM29.5506 30.9773V18.2273H31.6998V19.7607H31.8266C31.9392 19.5353 32.0982 19.2958 32.3035 19.0423C32.5087 18.7847 32.7864 18.5653 33.1366 18.3842C33.4867 18.1991 33.9334 18.1065 34.4768 18.1065C35.1931 18.1065 35.8391 18.2897 36.4146 18.6559C36.9942 19.0181 37.453 19.5554 37.791 20.2678C38.1331 20.9761 38.3042 21.8454 38.3042 22.8757C38.3042 23.8939 38.1372 24.7592 37.8031 25.4716C37.4691 26.1839 37.0143 26.7273 36.4388 27.1016C35.8632 27.4759 35.2113 27.663 34.4828 27.663C33.9516 27.663 33.5109 27.5745 33.1607 27.3974C32.8106 27.2203 32.5288 27.007 32.3155 26.7575C32.1063 26.5039 31.9433 26.2644 31.8266 26.0391H31.736V30.9773H29.5506ZM31.6937 22.8636C31.6937 23.4633 31.7783 23.9885 31.9473 24.4393C32.1203 24.89 32.3679 25.2422 32.6898 25.4957C33.0158 25.7453 33.4102 25.87 33.8731 25.87C34.356 25.87 34.7605 25.7412 35.0865 25.4837C35.4125 25.2221 35.658 24.8659 35.823 24.4151C35.992 23.9603 36.0766 23.4432 36.0766 22.8636C36.0766 22.2881 35.994 21.777 35.829 21.3303C35.664 20.8835 35.4185 20.5334 35.0925 20.2798C34.7665 20.0263 34.36 19.8995 33.8731 19.8995C33.4062 19.8995 33.0098 20.0223 32.6838 20.2678C32.3578 20.5133 32.1103 20.8574 31.9413 21.3001C31.7762 21.7428 31.6937 22.264 31.6937 22.8636ZM39.8016 30.9773V18.2273H41.9508V19.7607H42.0776C42.1902 19.5353 42.3492 19.2958 42.5545 19.0423C42.7597 18.7847 43.0374 18.5653 43.3876 18.3842C43.7377 18.1991 44.1844 18.1065 44.7278 18.1065C45.4441 18.1065 46.0901 18.2897 46.6656 18.6559C47.2452 19.0181 47.704 19.5554 48.042 20.2678C48.3841 20.9761 48.5552 21.8454 48.5552 22.8757C48.5552 23.8939 48.3882 24.7592 48.0541 25.4716C47.7201 26.1839 47.2653 26.7273 46.6898 27.1016C46.1142 27.4759 45.4623 27.663 44.7338 27.663C44.2026 27.663 43.7619 27.5745 43.4117 27.3974C43.0616 27.2203 42.7798 27.007 42.5665 26.7575C42.3573 26.5039 42.1943 26.2644 42.0776 26.0391H41.987V30.9773H39.8016ZM41.9447 22.8636C41.9447 23.4633 42.0293 23.9885 42.1983 24.4393C42.3713 24.89 42.6189 25.2422 42.9408 25.4957C43.2668 25.7453 43.6612 25.87 44.1241 25.87C44.607 25.87 45.0115 25.7412 45.3375 25.4837C45.6635 25.2221 45.909 24.8659 46.074 24.4151C46.243 23.9603 46.3276 23.4432 46.3276 22.8636C46.3276 22.2881 46.245 21.777 46.08 21.3303C45.915 20.8835 45.6695 20.5334 45.3435 20.2798C45.0175 20.0263 44.6111 19.8995 44.1241 19.8995C43.6572 19.8995 43.2608 20.0223 42.9348 20.2678C42.6088 20.5133 42.3613 20.8574 42.1923 21.3001C42.0272 21.7428 41.9447 22.264 41.9447 22.8636ZM52.238 15.1364V27.5H50.0526V15.1364H52.238ZM58.2164 27.6811C57.2867 27.6811 56.4838 27.4879 55.8076 27.1016C55.1355 26.7112 54.6183 26.1598 54.2561 25.4474C53.8939 24.7311 53.7128 23.8879 53.7128 22.918C53.7128 21.9641 53.8939 21.127 54.2561 20.4066C54.6224 19.6822 55.1335 19.1187 55.7895 18.7163C56.4455 18.3098 57.2162 18.1065 58.1017 18.1065C58.6732 18.1065 59.2125 18.1991 59.7196 18.3842C60.2307 18.5653 60.6814 18.8471 61.0718 19.2294C61.4662 19.6117 61.7761 20.0987 62.0015 20.6903C62.2269 21.2779 62.3396 21.9782 62.3396 22.7912V23.4613H54.7391V21.9883H60.2448C60.2407 21.5697 60.1502 21.1974 59.9731 20.8714C59.796 20.5414 59.5485 20.2818 59.2306 20.0927C58.9166 19.9035 58.5504 19.8089 58.1318 19.8089C57.6851 19.8089 57.2927 19.9176 56.9546 20.1349C56.6166 20.3482 56.353 20.63 56.1638 20.9801C55.9787 21.3262 55.8841 21.7066 55.8801 22.1211V23.407C55.8801 23.9463 55.9787 24.4091 56.1759 24.7955C56.3731 25.1778 56.6488 25.4716 57.0029 25.6768C57.3571 25.8781 57.7716 25.9787 58.2465 25.9787C58.5645 25.9787 58.8522 25.9344 59.1098 25.8459C59.3674 25.7533 59.5908 25.6185 59.7799 25.4414C59.9691 25.2643 60.112 25.045 60.2085 24.7834L62.249 25.0128C62.1202 25.5521 61.8747 26.023 61.5125 26.4254C61.1543 26.8239 60.6955 27.1338 60.1361 27.3551C59.5767 27.5724 58.9368 27.6811 58.2164 27.6811Z" fill="black" fill-opacity="0.8"/>
</g>
<defs>
<clipPath id="clip0_2_1496">
<rect width="14" height="44" fill="white" transform="translate(8)"/>
</clipPath>
<clipPath id="clip1_2_1496">
<rect width="1" height="44" fill="white" transform="translate(16.5)"/>
</clipPath>
</defs>
</svg>
