<svg width="42" height="77" viewBox="0 0 42 77" fill="none" xmlns="http://www.w3.org/2000/svg">
<g clip-path="url(#clip0_2_1479)">
<path d="M18.4021 25.7301C18.4159 25.5721 18.3937 25.4131 18.3372 25.2649C18.2807 25.1167 18.1914 24.9833 18.0759 24.8746C17.9604 24.7659 17.8217 24.6849 17.6704 24.6375C17.519 24.5901 17.3589 24.5777 17.2021 24.6011H16.1021V26.8391H17.2021C17.357 26.8617 17.5151 26.8493 17.6647 26.8029C17.8143 26.7565 17.9516 26.6772 18.0666 26.5709C18.1817 26.4646 18.2715 26.334 18.3295 26.1885C18.3875 26.043 18.4123 25.8864 18.4021 25.7301Z" fill="#1D1D1F"/>
<path d="M26.4842 28.8519C27.1912 28.8519 27.6292 28.2929 27.6292 27.3789C27.6292 26.4649 27.1882 25.8999 26.4842 25.8999C25.7802 25.8999 25.3472 26.4589 25.3472 27.3769C25.3472 28.2949 25.7702 28.8519 26.4842 28.8519Z" fill="#1D1D1F"/>
<path d="M36.1371 22.285C35.7487 21.365 35.1619 20.5422 34.4186 19.8754C33.6752 19.2086 32.7937 18.7144 31.837 18.428C30.5734 18.1124 29.2717 17.9754 27.9701 18.021H13.5701C12.2684 17.9754 10.9667 18.1124 9.70305 18.428C8.74642 18.7144 7.86489 19.2086 7.12154 19.8754C6.37818 20.5422 5.79136 21.365 5.40305 22.285C4.91527 23.7453 4.70069 25.283 4.77005 26.821V41.221C4.70076 42.759 4.91534 44.2967 5.40305 45.757C5.79136 46.677 6.37818 47.4998 7.12154 48.1666C7.86489 48.8333 8.74642 49.3276 9.70305 49.614C10.9667 49.9296 12.2684 50.0666 13.5701 50.021H27.9701C29.2717 50.0666 30.5734 49.9296 31.837 49.614C32.7937 49.3276 33.6752 48.8333 34.4186 48.1666C35.1619 47.4998 35.7487 46.677 36.1371 45.757C36.6248 44.2967 36.8394 42.759 36.7701 41.221V26.821C36.8394 25.283 36.6248 23.7453 36.1371 22.285ZM26.246 25.185C26.511 25.1746 26.7734 25.239 27.0034 25.371C27.2333 25.5029 27.4214 25.697 27.546 25.931H27.608V23.594H28.448V29.5H27.6481V28.828H27.5821C27.4482 29.0617 27.253 29.2544 27.0175 29.3852C26.782 29.516 26.5152 29.5799 26.246 29.57C25.164 29.57 24.48 28.718 24.48 27.37C24.48 26.022 25.17 25.185 26.246 25.185ZM15.2301 23.863H17.437C17.6842 23.8594 17.9295 23.9053 18.1587 23.9978C18.3879 24.0904 18.5963 24.2277 18.7717 24.4019C18.947 24.5761 19.0859 24.7835 19.18 25.0121C19.2741 25.2406 19.3216 25.4857 19.3197 25.7328C19.3179 25.98 19.2667 26.2243 19.1691 26.4514C19.0716 26.6784 18.9296 26.8838 18.7516 27.0553C18.5737 27.2268 18.3632 27.361 18.1327 27.4501C17.9021 27.5392 17.6561 27.5813 17.409 27.574H16.109V29.5H15.2301V23.863ZM13.4801 23.441C13.5845 23.4414 13.6865 23.4727 13.7732 23.531C13.8599 23.5893 13.9274 23.6719 13.9672 23.7685C14.007 23.8651 14.0173 23.9713 13.9968 24.0737C13.9763 24.1761 13.926 24.2702 13.8521 24.3441C13.7782 24.4179 13.6842 24.4683 13.5817 24.4887C13.4793 24.5092 13.3731 24.4989 13.2765 24.4591C13.18 24.4193 13.0973 24.3518 13.039 24.2651C12.9808 24.1785 12.9494 24.0765 12.949 23.972C12.949 23.8312 13.005 23.6961 13.1046 23.5965C13.2042 23.4969 13.3392 23.441 13.4801 23.441ZM13.8981 25.258V29.5H13.062V25.258H13.8981ZM15.7071 43.658C12.4121 43.658 10.35 41.346 10.35 37.658C10.35 33.97 12.4121 31.647 15.7071 31.647C19.0021 31.647 21.0651 33.967 21.0651 37.658C21.0651 41.349 19.003 43.658 15.7071 43.658ZM19.9261 28.3C19.9261 27.538 20.4961 27.1 21.5081 27.034L22.66 26.964V26.6C22.66 26.135 22.36 25.873 21.789 25.873C21.32 25.873 20.996 26.049 20.9021 26.357H20.09C20.1761 25.642 20.8631 25.177 21.8281 25.177C22.8941 25.177 23.496 25.708 23.496 26.599V29.499H22.687V28.899H22.621C22.4872 29.1145 22.2983 29.2903 22.0738 29.4084C21.8494 29.5266 21.5974 29.5827 21.344 29.571C21.1655 29.5904 20.9849 29.5719 20.8139 29.5169C20.6429 29.4619 20.4854 29.3715 20.3517 29.2516C20.218 29.1317 20.1109 28.9851 20.0376 28.8211C19.9643 28.6572 19.9263 28.4796 19.9261 28.3ZM26.4571 43.653C23.9191 43.653 22.228 42.353 22.091 40.341H23.5401C23.7101 41.59 24.8701 42.348 26.5401 42.348C28.118 42.348 29.2631 41.518 29.2631 40.373C29.2631 39.398 28.618 38.754 27.007 38.399L25.7181 38.117C23.39 37.609 22.382 36.555 22.382 34.902C22.382 32.985 24.0741 31.639 26.482 31.639C28.802 31.639 30.482 33.025 30.5431 34.999H29.0931C29.0552 34.6895 28.9563 34.3905 28.8023 34.1194C28.6483 33.8482 28.4421 33.6103 28.1957 33.4192C27.9492 33.2282 27.6674 33.0878 27.3664 33.0063C27.0654 32.9247 26.7512 32.9035 26.4421 32.944C24.9931 32.944 23.8731 33.653 23.8731 34.837C23.8731 35.756 24.493 36.384 26.08 36.731L27.3691 37.013C29.7941 37.544 30.753 38.513 30.753 40.156C30.751 42.312 29.059 43.658 26.4571 43.658V43.653Z" fill="#1D1D1F"/>
<path d="M15.7068 32.9829C13.3308 32.9829 11.8398 34.7829 11.8398 37.6559C11.8398 40.5289 13.3308 42.3199 15.7068 42.3199C18.0828 42.3199 19.5738 40.5199 19.5738 37.6559C19.5738 34.7919 18.0838 32.9829 15.7068 32.9829Z" fill="#1D1D1F"/>
<path d="M22.66 27.5659L21.621 27.6359C21.035 27.6749 20.769 27.8819 20.769 28.2689C20.769 28.6559 21.101 28.8939 21.558 28.8939C21.6939 28.9058 21.8308 28.8901 21.9605 28.8478C22.0902 28.8055 22.2099 28.7374 22.3127 28.6476C22.4154 28.5579 22.4989 28.4483 22.5583 28.3255C22.6176 28.2027 22.6516 28.0692 22.658 27.9329L22.66 27.5659Z" fill="#1D1D1F"/>
</g>
<path d="M2.90547 73V67H3.82734V73H2.90547ZM3.37422 66C3.19453 66 3.03958 65.9388 2.90937 65.8164C2.78177 65.694 2.71797 65.5469 2.71797 65.375C2.71797 65.2031 2.78177 65.056 2.90937 64.9336C3.03958 64.8112 3.19453 64.75 3.37422 64.75C3.55391 64.75 3.70755 64.8112 3.83516 64.9336C3.96536 65.056 4.03047 65.2031 4.03047 65.375C4.03047 65.5469 3.96536 65.694 3.83516 65.8164C3.70755 65.9388 3.55391 66 3.37422 66ZM5.52082 73V65H8.22394C8.85155 65 9.36457 65.1133 9.76301 65.3398C10.164 65.5638 10.4609 65.8672 10.6536 66.25C10.8463 66.6328 10.9427 67.0599 10.9427 67.5312C10.9427 68.0026 10.8463 68.431 10.6536 68.8164C10.4635 69.2018 10.1693 69.5091 9.77082 69.7383C9.37238 69.9648 8.86197 70.0781 8.23957 70.0781H6.30207V69.2188H8.20832C8.63801 69.2188 8.98306 69.1445 9.24348 68.9961C9.50389 68.8477 9.69269 68.6471 9.80988 68.3945C9.92967 68.1393 9.98957 67.8516 9.98957 67.5312C9.98957 67.2109 9.92967 66.9245 9.80988 66.6719C9.69269 66.4193 9.50259 66.2214 9.23957 66.0781C8.97655 65.9323 8.62759 65.8594 8.19269 65.8594H6.48957V73H5.52082ZM14.0239 73.1406C13.6437 73.1406 13.2986 73.069 12.9887 72.9258C12.6788 72.7799 12.4327 72.5703 12.2504 72.2969C12.0681 72.0208 11.977 71.6875 11.977 71.2969C11.977 70.9531 12.0447 70.6745 12.1801 70.4609C12.3155 70.2448 12.4965 70.0755 12.7231 69.9531C12.9496 69.8307 13.1996 69.7396 13.4731 69.6797C13.7491 69.6172 14.0265 69.5677 14.3051 69.5313C14.6697 69.4844 14.9653 69.4492 15.1918 69.4258C15.421 69.3997 15.5877 69.3568 15.6918 69.2969C15.7986 69.237 15.852 69.1328 15.852 68.9844V68.9531C15.852 68.5677 15.7465 68.2682 15.5356 68.0547C15.3273 67.8411 15.0108 67.7344 14.5864 67.7344C14.1463 67.7344 13.8012 67.8307 13.5512 68.0234C13.3012 68.2161 13.1254 68.4219 13.0239 68.6406L12.1489 68.3281C12.3051 67.9635 12.5135 67.6797 12.7739 67.4766C13.0369 67.2708 13.3233 67.1276 13.6332 67.0469C13.9457 66.9635 14.253 66.9219 14.5551 66.9219C14.7478 66.9219 14.9692 66.9453 15.2192 66.9922C15.4718 67.0365 15.7153 67.1289 15.9496 67.2695C16.1866 67.4102 16.3832 67.6224 16.5395 67.9062C16.6957 68.1901 16.7739 68.5703 16.7739 69.0469V73H15.852V72.1875H15.8051C15.7426 72.3177 15.6385 72.457 15.4926 72.6055C15.3468 72.7539 15.1528 72.8802 14.9106 72.9844C14.6684 73.0885 14.3728 73.1406 14.0239 73.1406ZM14.1645 72.3125C14.5291 72.3125 14.8364 72.2409 15.0864 72.0977C15.339 71.9544 15.5291 71.7695 15.6567 71.543C15.7869 71.3164 15.852 71.0781 15.852 70.8281V69.9844C15.8129 70.0312 15.727 70.0742 15.5942 70.1133C15.464 70.1497 15.3129 70.1823 15.1411 70.2109C14.9718 70.237 14.8064 70.2604 14.645 70.2812C14.4861 70.2995 14.3572 70.3151 14.2582 70.3281C14.0187 70.3594 13.7947 70.4102 13.5864 70.4805C13.3806 70.5482 13.214 70.651 13.0864 70.7891C12.9614 70.9245 12.8989 71.1094 12.8989 71.3437C12.8989 71.6641 13.0174 71.9062 13.2543 72.0703C13.4939 72.2318 13.7973 72.3125 14.1645 72.3125ZM20.6021 73.125C20.1021 73.125 19.6607 72.9987 19.2779 72.7461C18.8951 72.4909 18.5956 72.1315 18.3795 71.668C18.1633 71.2018 18.0552 70.651 18.0552 70.0156C18.0552 69.3854 18.1633 68.8385 18.3795 68.375C18.5956 67.9115 18.8964 67.5534 19.2818 67.3008C19.6672 67.0482 20.1125 66.9219 20.6177 66.9219C21.0084 66.9219 21.317 66.987 21.5435 67.1172C21.7727 67.2448 21.9472 67.3906 22.067 67.5547C22.1893 67.7161 22.2844 67.849 22.3521 67.9531H22.4302V65H23.3521V73H22.4615V72.0781H22.3521C22.2844 72.1875 22.188 72.3255 22.063 72.4922C21.938 72.6562 21.7597 72.8034 21.5279 72.9336C21.2961 73.0612 20.9875 73.125 20.6021 73.125ZM20.7271 72.2969C21.0969 72.2969 21.4094 72.2005 21.6646 72.0078C21.9198 71.8125 22.1138 71.543 22.2466 71.1992C22.3795 70.8529 22.4459 70.4531 22.4459 70C22.4459 69.5521 22.3808 69.1602 22.2505 68.8242C22.1203 68.4857 21.9276 68.2227 21.6724 68.0352C21.4172 67.8451 21.1021 67.75 20.7271 67.75C20.3365 67.75 20.011 67.8503 19.7505 68.0508C19.4927 68.2487 19.2987 68.5182 19.1685 68.8594C19.0409 69.1979 18.9771 69.5781 18.9771 70C18.9771 70.4271 19.0422 70.8151 19.1724 71.1641C19.3052 71.5104 19.5005 71.7865 19.7584 71.9922C20.0188 72.1953 20.3417 72.2969 20.7271 72.2969ZM31.9235 69C31.9235 69.8437 31.7712 70.5729 31.4665 71.1875C31.1618 71.8021 30.7438 72.276 30.2126 72.6094C29.6813 72.9427 29.0746 73.1094 28.3923 73.1094C27.71 73.1094 27.1032 72.9427 26.572 72.6094C26.0407 72.276 25.6227 71.8021 25.318 71.1875C25.0134 70.5729 24.861 69.8437 24.861 69C24.861 68.1562 25.0134 67.4271 25.318 66.8125C25.6227 66.1979 26.0407 65.724 26.572 65.3906C27.1032 65.0573 27.71 64.8906 28.3923 64.8906C29.0746 64.8906 29.6813 65.0573 30.2126 65.3906C30.7438 65.724 31.1618 66.1979 31.4665 66.8125C31.7712 67.4271 31.9235 68.1562 31.9235 69ZM30.986 69C30.986 68.3073 30.8701 67.7227 30.6384 67.2461C30.4092 66.7695 30.098 66.4089 29.7048 66.1641C29.3141 65.9193 28.8766 65.7969 28.3923 65.7969C27.9079 65.7969 27.4691 65.9193 27.0759 66.1641C26.6852 66.4089 26.374 66.7695 26.1423 67.2461C25.9131 67.7227 25.7985 68.3073 25.7985 69C25.7985 69.6927 25.9131 70.2773 26.1423 70.7539C26.374 71.2305 26.6852 71.5911 27.0759 71.8359C27.4691 72.0807 27.9079 72.2031 28.3923 72.2031C28.8766 72.2031 29.3141 72.0807 29.7048 71.8359C30.098 71.5911 30.4092 71.2305 30.6384 70.7539C30.8701 70.2773 30.986 69.6927 30.986 69ZM37.8074 67C37.7605 66.6042 37.5704 66.2969 37.2371 66.0781C36.9038 65.8594 36.4949 65.75 36.0105 65.75C35.6564 65.75 35.3465 65.8073 35.0809 65.9219C34.8178 66.0365 34.6121 66.194 34.4637 66.3945C34.3178 66.5951 34.2449 66.8229 34.2449 67.0781C34.2449 67.2917 34.2957 67.4753 34.3973 67.6289C34.5014 67.7799 34.6342 67.9062 34.7957 68.0078C34.9572 68.1068 35.1264 68.1888 35.3035 68.2539C35.4806 68.3164 35.6434 68.3672 35.7918 68.4062L36.6043 68.625C36.8126 68.6797 37.0444 68.7552 37.2996 68.8516C37.5574 68.9479 37.8035 69.0794 38.0379 69.2461C38.2749 69.4102 38.4702 69.6211 38.6238 69.8789C38.7775 70.1367 38.8543 70.4531 38.8543 70.8281C38.8543 71.2604 38.741 71.651 38.5145 72C38.2905 72.349 37.9624 72.6263 37.5301 72.832C37.1004 73.0378 36.5783 73.1406 35.9637 73.1406C35.3908 73.1406 34.8947 73.0482 34.4754 72.8633C34.0587 72.6784 33.7306 72.4206 33.491 72.0898C33.254 71.7591 33.1199 71.375 33.0887 70.9375H34.0887C34.1147 71.2396 34.2163 71.4896 34.3934 71.6875C34.573 71.8828 34.7996 72.0286 35.073 72.125C35.3491 72.2187 35.646 72.2656 35.9637 72.2656C36.3335 72.2656 36.6655 72.2057 36.9598 72.0859C37.254 71.9635 37.4871 71.7943 37.659 71.5781C37.8309 71.3594 37.9168 71.1042 37.9168 70.8125C37.9168 70.5469 37.8426 70.3307 37.6941 70.1641C37.5457 69.9974 37.3504 69.862 37.1082 69.7578C36.866 69.6536 36.6043 69.5625 36.323 69.4844L35.3387 69.2031C34.7137 69.0234 34.2189 68.7669 33.8543 68.4336C33.4897 68.1003 33.3074 67.6641 33.3074 67.125C33.3074 66.6771 33.4285 66.2865 33.6707 65.9531C33.9155 65.6172 34.2436 65.3568 34.6551 65.1719C35.0691 64.9844 35.5314 64.8906 36.0418 64.8906C36.5574 64.8906 37.0158 64.9831 37.4168 65.168C37.8178 65.3503 38.1355 65.6003 38.3699 65.918C38.6069 66.2357 38.7319 66.5964 38.7449 67H37.8074Z" fill="#1D1D1F"/>
<defs>
<clipPath id="clip0_2_1479">
<rect width="32" height="54" fill="white" transform="translate(4.77002)"/>
</clipPath>
</defs>
</svg>
