<svg width="47" height="89" viewBox="0 0 47 89" fill="none" xmlns="http://www.w3.org/2000/svg">
<g clip-path="url(#clip0_2_1436)">
<path d="M35.1401 6V5C35.1401 4.73478 35.0348 4.48043 34.8472 4.29289C34.6597 4.10536 34.4054 4 34.1401 4H6.14014C5.87492 4 5.62057 4.10536 5.43303 4.29289C5.24549 4.48043 5.14014 4.73478 5.14014 5V47C5.14014 47.2652 5.24549 47.5196 5.43303 47.7071C5.62057 47.8946 5.87492 48 6.14014 48H13.1401C13.1783 48.4101 13.3133 48.8053 13.5341 49.1531C13.7549 49.5008 14.0552 49.7911 14.4101 50H6.14014C5.34449 50 4.58143 49.6839 4.01882 49.1213C3.45621 48.5587 3.14014 47.7957 3.14014 47L3.14014 5C3.14014 4.20435 3.45621 3.44129 4.01882 2.87868C4.58143 2.31607 5.34449 2 6.14014 2H34.1401C34.9358 2 35.6988 2.31607 36.2615 2.87868C36.8241 3.44129 37.1401 4.20435 37.1401 5V6H35.1401ZM41.1401 7C41.9358 7 42.6988 7.31607 43.2615 7.87868C43.8241 8.44129 44.1401 9.20435 44.1401 10V47C44.1401 47.7957 43.8241 48.5587 43.2615 49.1213C42.6988 49.6839 41.9358 50 41.1401 50H17.1401C16.3445 50 15.5814 49.6839 15.0188 49.1213C14.4562 48.5587 14.1401 47.7957 14.1401 47V10C14.1401 9.20435 14.4562 8.44129 15.0188 7.87868C15.5814 7.31607 16.3445 7 17.1401 7H41.1401ZM42.1401 10C42.1401 9.73478 42.0348 9.48043 41.8472 9.29289C41.6597 9.10536 41.4054 9 41.1401 9H17.1401C16.8749 9 16.6206 9.10536 16.433 9.29289C16.2455 9.48043 16.1401 9.73478 16.1401 10V47C16.1401 47.2652 16.2455 47.5196 16.433 47.7071C16.6206 47.8946 16.8749 48 17.1401 48H41.1401C41.4054 48 41.6597 47.8946 41.8472 47.7071C42.0348 47.5196 42.1401 47.2652 42.1401 47V10Z" fill="#1D1D1F"/>
</g>
<path d="M3.87752 73V67H4.79939V73H3.87752ZM4.34627 66C4.16658 66 4.01163 65.9388 3.88143 65.8164C3.75382 65.694 3.69002 65.5469 3.69002 65.375C3.69002 65.2031 3.75382 65.056 3.88143 64.9336C4.01163 64.8112 4.16658 64.75 4.34627 64.75C4.52596 64.75 4.6796 64.8112 4.80721 64.9336C4.93742 65.056 5.00252 65.2031 5.00252 65.375C5.00252 65.5469 4.93742 65.694 4.80721 65.8164C4.6796 65.9388 4.52596 66 4.34627 66ZM6.49287 73V65H9.196C9.8236 65 10.3366 65.1133 10.7351 65.3398C11.1361 65.5638 11.433 65.8672 11.6257 66.25C11.8184 66.6328 11.9147 67.0599 11.9147 67.5312C11.9147 68.0026 11.8184 68.431 11.6257 68.8164C11.4356 69.2018 11.1413 69.5091 10.7429 69.7383C10.3444 69.9648 9.83402 70.0781 9.21162 70.0781H7.27412V69.2188H9.18037C9.61006 69.2188 9.95511 69.1445 10.2155 68.9961C10.4759 68.8477 10.6647 68.6471 10.7819 68.3945C10.9017 68.1393 10.9616 67.8516 10.9616 67.5312C10.9616 67.2109 10.9017 66.9245 10.7819 66.6719C10.6647 66.4193 10.4746 66.2214 10.2116 66.0781C9.9486 65.9323 9.59964 65.8594 9.16475 65.8594H7.46162V73H6.49287ZM14.9959 73.1406C14.6157 73.1406 14.2707 73.069 13.9608 72.9258C13.6509 72.7799 13.4048 72.5703 13.2225 72.2969C13.0402 72.0208 12.949 71.6875 12.949 71.2969C12.949 70.9531 13.0168 70.6745 13.1522 70.4609C13.2876 70.2448 13.4686 70.0755 13.6951 69.9531C13.9217 69.8307 14.1717 69.7396 14.4451 69.6797C14.7212 69.6172 14.9985 69.5677 15.2772 69.5313C15.6418 69.4844 15.9373 69.4492 16.1639 69.4258C16.3931 69.3997 16.5597 69.3568 16.6639 69.2969C16.7707 69.237 16.824 69.1328 16.824 68.9844V68.9531C16.824 68.5677 16.7186 68.2682 16.5076 68.0547C16.2993 67.8411 15.9829 67.7344 15.5584 67.7344C15.1183 67.7344 14.7733 67.8307 14.5233 68.0234C14.2733 68.2161 14.0975 68.4219 13.9959 68.6406L13.1209 68.3281C13.2772 67.9635 13.4855 67.6797 13.7459 67.4766C14.0089 67.2708 14.2954 67.1276 14.6053 67.0469C14.9178 66.9635 15.2251 66.9219 15.5272 66.9219C15.7199 66.9219 15.9412 66.9453 16.1912 66.9922C16.4438 67.0365 16.6873 67.1289 16.9217 67.2695C17.1587 67.4102 17.3553 67.6224 17.5115 67.9062C17.6678 68.1901 17.7459 68.5703 17.7459 69.0469V73H16.824V72.1875H16.7772C16.7147 72.3177 16.6105 72.457 16.4647 72.6055C16.3188 72.7539 16.1248 72.8802 15.8826 72.9844C15.6404 73.0885 15.3449 73.1406 14.9959 73.1406ZM15.1365 72.3125C15.5011 72.3125 15.8084 72.2409 16.0584 72.0977C16.311 71.9544 16.5011 71.7695 16.6287 71.543C16.7589 71.3164 16.824 71.0781 16.824 70.8281V69.9844C16.785 70.0312 16.699 70.0742 16.5662 70.1133C16.436 70.1497 16.285 70.1823 16.1131 70.2109C15.9438 70.237 15.7785 70.2604 15.617 70.2812C15.4582 70.2995 15.3293 70.3151 15.2303 70.3281C14.9907 70.3594 14.7668 70.4102 14.5584 70.4805C14.3527 70.5482 14.186 70.651 14.0584 70.7891C13.9334 70.9245 13.8709 71.1094 13.8709 71.3437C13.8709 71.6641 13.9894 71.9062 14.2264 72.0703C14.466 72.2318 14.7694 72.3125 15.1365 72.3125ZM21.5742 73.125C21.0742 73.125 20.6328 72.9987 20.2499 72.7461C19.8671 72.4909 19.5677 72.1315 19.3515 71.668C19.1354 71.2018 19.0273 70.651 19.0273 70.0156C19.0273 69.3854 19.1354 68.8385 19.3515 68.375C19.5677 67.9115 19.8684 67.5534 20.2538 67.3008C20.6393 67.0482 21.0846 66.9219 21.5898 66.9219C21.9804 66.9219 22.289 66.987 22.5156 67.1172C22.7447 67.2448 22.9192 67.3906 23.039 67.5547C23.1614 67.7161 23.2565 67.849 23.3242 67.9531H23.4023V65H24.3242V73H23.4335V72.0781H23.3242C23.2565 72.1875 23.1601 72.3255 23.0351 72.4922C22.9101 72.6562 22.7317 72.8034 22.4999 72.9336C22.2682 73.0612 21.9596 73.125 21.5742 73.125ZM21.6992 72.2969C22.069 72.2969 22.3815 72.2005 22.6367 72.0078C22.8919 71.8125 23.0859 71.543 23.2187 71.1992C23.3515 70.8529 23.4179 70.4531 23.4179 70C23.4179 69.5521 23.3528 69.1602 23.2226 68.8242C23.0924 68.4857 22.8997 68.2227 22.6445 68.0352C22.3893 67.8451 22.0742 67.75 21.6992 67.75C21.3085 67.75 20.983 67.8503 20.7226 68.0508C20.4648 68.2487 20.2708 68.5182 20.1406 68.8594C20.013 69.1979 19.9492 69.5781 19.9492 70C19.9492 70.4271 20.0143 70.8151 20.1445 71.1641C20.2773 71.5104 20.4726 71.7865 20.7304 71.9922C20.9908 72.1953 21.3137 72.2969 21.6992 72.2969ZM29.1193 73V65H31.8224C32.45 65 32.9631 65.1133 33.3615 65.3398C33.7625 65.5638 34.0594 65.8672 34.2521 66.25C34.4448 66.6328 34.5412 67.0599 34.5412 67.5312C34.5412 68.0026 34.4448 68.431 34.2521 68.8164C34.062 69.2018 33.7678 69.5091 33.3693 69.7383C32.9709 69.9648 32.4605 70.0781 31.8381 70.0781H29.9006V69.2188H31.8068C32.2365 69.2188 32.5816 69.1445 32.842 68.9961C33.1024 68.8477 33.2912 68.6471 33.4084 68.3945C33.5282 68.1393 33.5881 67.8516 33.5881 67.5312C33.5881 67.2109 33.5282 66.9245 33.4084 66.6719C33.2912 66.4193 33.1011 66.2214 32.8381 66.0781C32.575 65.9323 32.2261 65.8594 31.7912 65.8594H30.0881V73H29.1193ZM35.8567 73V67H36.7474V67.9062H36.8099C36.9192 67.6094 37.1172 67.3685 37.4036 67.1836C37.6901 66.9987 38.013 66.9062 38.3724 66.9062C38.4401 66.9062 38.5247 66.9076 38.6263 66.9102C38.7278 66.9128 38.8047 66.9167 38.8567 66.9219V67.8594C38.8255 67.8516 38.7539 67.8398 38.6419 67.8242C38.5325 67.806 38.4166 67.7969 38.2942 67.7969C38.0026 67.7969 37.7422 67.8581 37.513 67.9805C37.2864 68.1003 37.1067 68.2669 36.9739 68.4805C36.8437 68.6914 36.7786 68.9323 36.7786 69.2031V73H35.8567ZM42.0844 73.125C41.5427 73.125 41.0675 72.9961 40.6586 72.7383C40.2524 72.4805 39.9347 72.1198 39.7055 71.6562C39.4789 71.1927 39.3656 70.651 39.3656 70.0312C39.3656 69.4062 39.4789 68.8607 39.7055 68.3945C39.9347 67.9284 40.2524 67.5664 40.6586 67.3086C41.0675 67.0508 41.5427 66.9219 42.0844 66.9219C42.6261 66.9219 43.1 67.0508 43.5063 67.3086C43.9151 67.5664 44.2328 67.9284 44.4594 68.3945C44.6886 68.8607 44.8031 69.4062 44.8031 70.0312C44.8031 70.651 44.6886 71.1927 44.4594 71.6562C44.2328 72.1198 43.9151 72.4805 43.5063 72.7383C43.1 72.9961 42.6261 73.125 42.0844 73.125ZM42.0844 72.2969C42.4959 72.2969 42.8344 72.1914 43.1 71.9805C43.3656 71.7695 43.5623 71.4922 43.6899 71.1484C43.8175 70.8047 43.8813 70.4323 43.8813 70.0312C43.8813 69.6302 43.8175 69.2565 43.6899 68.9102C43.5623 68.5638 43.3656 68.2839 43.1 68.0703C42.8344 67.8568 42.4959 67.75 42.0844 67.75C41.6729 67.75 41.3344 67.8568 41.0688 68.0703C40.8031 68.2839 40.6065 68.5638 40.4789 68.9102C40.3513 69.2565 40.2875 69.6302 40.2875 70.0312C40.2875 70.4323 40.3513 70.8047 40.4789 71.1484C40.6065 71.4922 40.8031 71.7695 41.0688 71.9805C41.3344 72.1914 41.6729 72.2969 42.0844 72.2969Z" fill="#1D1D1F"/>
<path d="M19.7094 79.4545V86H18.9424L15.3756 80.8608H15.3117V86H14.5191V79.4545H15.2861L18.8657 84.6065H18.9296V79.4545H19.7094ZM23.1714 86.1023C22.6984 86.1023 22.2904 85.9979 21.9474 85.7891C21.6064 85.5781 21.3433 85.2841 21.1579 84.907C20.9747 84.5277 20.8831 84.0866 20.8831 83.5838C20.8831 83.081 20.9747 82.6378 21.1579 82.2543C21.3433 81.8686 21.6011 81.5682 21.9314 81.353C22.2638 81.1357 22.6515 81.027 23.0947 81.027C23.3504 81.027 23.6029 81.0696 23.8522 81.1548C24.1015 81.2401 24.3284 81.3786 24.5329 81.5703C24.7375 81.7599 24.9005 82.0114 25.0219 82.3246C25.1434 82.6378 25.2041 83.0234 25.2041 83.4815V83.8011H21.42V83.1491H24.4371C24.4371 82.8722 24.3817 82.625 24.2709 82.4077C24.1622 82.1903 24.0067 82.0188 23.8042 81.8931C23.604 81.7674 23.3675 81.7045 23.0947 81.7045C22.7943 81.7045 22.5344 81.7791 22.3149 81.9283C22.0976 82.0753 21.9303 82.267 21.8131 82.5036C21.6959 82.7401 21.6373 82.9936 21.6373 83.2642V83.6989C21.6373 84.0696 21.7013 84.3839 21.8291 84.6417C21.9591 84.8974 22.1391 85.0923 22.3692 85.2266C22.5993 85.3587 22.8667 85.4247 23.1714 85.4247C23.3696 85.4247 23.5486 85.397 23.7084 85.3416C23.8703 85.2841 24.0099 85.1989 24.127 85.0859C24.2442 84.9709 24.3348 84.8281 24.3987 84.6577L25.1274 84.8622C25.0507 85.1094 24.9218 85.3267 24.7407 85.5142C24.5596 85.6996 24.3358 85.8445 24.0695 85.9489C23.8032 86.0511 23.5038 86.1023 23.1714 86.1023ZM27.3837 86L25.888 81.0909H26.6806L27.7416 84.8494H27.7928L28.8411 81.0909H29.6465L30.682 84.8366H30.7331L31.7942 81.0909H32.5868L31.0911 86H30.3496L29.2757 82.2287H29.199L28.1252 86H27.3837Z" fill="#BF4800"/>
<defs>
<clipPath id="clip0_2_1436">
<rect width="41" height="54" fill="white" transform="translate(3.14014)"/>
</clipPath>
</defs>
</svg>
